<svg width="81" height="24" viewBox="0 0 81 24" fill="none" xmlns="http://www.w3.org/2000/svg">
<path d="M7.90011 0.0705566C8.89129 0.0705566 9.76516 0.64546 10.1288 1.59035C10.8267 3.40614 11.5012 5.23331 12.1815 7.06048C13.1082 9.53085 14.029 12.0069 14.9674 14.4773C15.0612 14.7221 15.0026 14.7961 14.7738 14.8814C13.9938 15.1774 13.2196 15.4905 12.4513 15.8149C12.2343 15.906 12.1522 15.8605 12.0818 15.6499C11.771 14.7221 11.4308 13.8056 11.1141 12.8835C11.0496 12.69 10.9499 12.6217 10.7387 12.6274C8.82677 12.6331 6.90893 12.6331 4.99696 12.6274C4.82101 12.6274 4.74477 12.6843 4.68612 12.8494C4.36355 13.7942 4.01752 14.7278 3.70081 15.6726C3.63043 15.8776 3.55418 15.9117 3.34891 15.832C2.55128 15.5019 1.74778 15.1774 0.944284 14.8644C0.750741 14.7904 0.739011 14.6993 0.803526 14.5285C2.40466 10.2594 4.00579 5.99036 5.60692 1.72127C5.98814 0.679613 6.85615 0.0705566 7.90011 0.0705566ZM7.90011 3.78751C7.84146 3.91843 7.80627 3.99242 7.77695 4.06642C7.11421 5.94482 6.45147 7.82891 5.78286 9.70162C5.70076 9.9293 5.77113 9.96345 5.994 9.96345C7.25497 9.95776 8.51593 9.95776 9.77689 9.96345C10.0174 9.96345 10.076 9.91792 9.99389 9.67885C9.55989 8.47212 9.13761 7.26539 8.70947 6.05297C8.44555 5.32438 8.18163 4.5844 7.90011 3.78751Z" fill="#D6271F"/>
<path d="M7.87756 23.4483C5.41428 23.4483 2.951 23.4426 0.487725 23.454C0.223802 23.454 0.159288 23.38 0.165153 23.1352C0.176883 22.2814 0.176883 21.4276 0.165153 20.5738C0.165153 20.3745 0.223802 20.3176 0.429075 20.3176C5.40255 20.3233 10.376 20.3233 15.3495 20.3176C15.5606 20.3176 15.6134 20.3859 15.6134 20.5795C15.6076 21.4447 15.6017 22.3042 15.6134 23.1694C15.6134 23.3857 15.5548 23.454 15.3202 23.454C12.8393 23.4426 10.3584 23.4483 7.87756 23.4483Z" fill="#D6271F"/>
<path d="M44.9854 7.39135C44.9854 7.68734 44.9912 7.97764 44.9854 8.27363C44.9795 8.4387 45.0323 8.48993 45.2082 8.44439C45.6598 8.33624 46.1173 8.34762 46.5806 8.39316C47.2316 8.45577 47.6715 8.82576 47.8944 9.38928C48.3636 10.5732 48.346 11.7686 47.8181 12.9298C47.4252 13.795 46.6275 14.0739 45.5425 13.8007C44.9854 13.6584 44.9854 13.6584 44.9854 14.239C44.9854 14.5691 44.9795 14.9049 44.9912 15.2351C44.9971 15.4343 44.9326 15.5311 44.7038 15.5197C44.4282 15.5026 44.1584 15.5083 43.8827 15.5197C43.6599 15.5311 43.566 15.4571 43.5719 15.2237C43.5836 14.7683 43.5719 14.313 43.5778 13.8576C43.5778 13.6754 43.5367 13.6242 43.3432 13.7039C42.8857 13.8804 42.4048 13.9771 41.9121 13.8576C41.3022 13.7096 40.9444 13.2941 40.7567 12.7476C40.3931 11.6661 40.3755 10.5675 40.745 9.48036C40.9913 8.75176 41.4957 8.41023 42.2757 8.38177C42.6394 8.37039 43.003 8.35331 43.3549 8.45008C43.5367 8.50131 43.5719 8.44439 43.5719 8.27932C43.566 7.73857 43.5778 7.19781 43.566 6.65706C43.5602 6.38953 43.654 6.27 43.9355 6.29277C44.1877 6.30984 44.4458 6.30415 44.698 6.29277C44.915 6.28138 44.9912 6.37246 44.9795 6.57738C44.9795 6.83921 44.9912 7.11813 44.9854 7.39135C44.9912 7.39135 44.9912 7.39135 44.9854 7.39135ZM44.9854 11.0741C44.9854 11.2848 44.9854 11.4897 44.9854 11.7003C44.9854 11.9109 44.9854 12.1158 44.9854 12.3264C44.9854 12.4346 44.9912 12.5313 45.1085 12.5882C45.6012 12.8387 46.3812 12.5769 46.5982 12.076C46.8269 11.5523 46.8387 11.0058 46.7272 10.4594C46.5572 9.63973 46.1056 9.36082 45.2727 9.53728C45.0675 9.58281 44.9736 9.6625 44.9795 9.8788C44.9912 10.2773 44.9854 10.6757 44.9854 11.0741ZM43.5778 11.0912C43.5778 10.6814 43.5778 10.2773 43.5778 9.86742C43.5778 9.75358 43.5778 9.64542 43.4487 9.57712C42.9209 9.32097 42.2523 9.54866 42.0294 10.0837C41.8124 10.5903 41.8007 11.1197 41.9063 11.6491C42.0646 12.4687 42.4224 12.7135 43.2728 12.6338C43.4839 12.611 43.5895 12.5427 43.5836 12.315C43.566 11.9052 43.5778 11.4954 43.5778 11.0912Z" fill="#D22A22"/>
<path d="M58.9674 10.0156C58.9674 8.97397 58.9674 7.92662 58.9674 6.88496C58.9674 6.48651 59.032 6.40683 59.4484 6.36698C59.8061 6.33283 60.1698 6.32144 60.5334 6.31575C61.3838 6.31006 62.2342 6.32144 63.0846 6.31006C63.3368 6.31006 63.4776 6.37267 63.4424 6.64589C63.4248 6.79389 63.4424 6.94757 63.4365 7.10126C63.4365 7.44279 63.3837 7.48833 63.026 7.48833C62.2753 7.48833 61.5187 7.49402 60.768 7.48263C60.5451 7.47694 60.4571 7.53956 60.4689 7.77293C60.4865 8.16 60.4806 8.55275 60.4689 8.93982C60.463 9.11058 60.5334 9.17319 60.7093 9.1675C61.1903 9.15612 61.6712 9.15043 62.1404 9.22442C63.4013 9.43503 64.0641 10.4084 63.8881 11.7517C63.718 13.0552 62.9615 13.7155 61.5246 13.8066C60.768 13.8578 60.0231 13.7553 59.2841 13.6301C59.0495 13.5903 58.9616 13.4935 58.9674 13.2544C58.9792 12.1786 58.9733 11.0971 58.9674 10.0156ZM60.463 11.598C60.463 11.8997 60.4689 12.2014 60.463 12.5088C60.4571 12.6625 60.4982 12.7365 60.6741 12.7251C60.9732 12.7023 61.2782 12.708 61.5773 12.6682C62.0289 12.6055 62.2987 12.3494 62.375 11.9509C62.4219 11.6948 62.4102 11.4443 62.3456 11.1882C62.2577 10.8125 62.0113 10.6076 61.6301 10.5222C61.3134 10.4539 60.9908 10.4824 60.6683 10.4653C60.4923 10.4596 60.4571 10.5336 60.4571 10.6873C60.4689 10.9947 60.463 11.2964 60.463 11.598Z" fill="#D22A22"/>
<path d="M27.9596 13.7262C27.1913 13.7148 27.1913 13.7148 26.9626 13.0204C26.9626 13.009 26.9567 13.0033 26.9567 12.9919C26.8629 12.7244 26.8805 12.3544 26.6576 12.2178C26.4523 12.0926 26.1122 12.1722 25.8306 12.1722C25.3321 12.1665 24.8336 12.1779 24.3351 12.1665C24.1709 12.1609 24.0946 12.2064 24.0536 12.3658C23.9597 12.7358 23.8366 13.0944 23.7427 13.4587C23.6958 13.6465 23.6078 13.7319 23.4026 13.7205C23.0917 13.7034 22.775 13.7205 22.4642 13.7148C22.1416 13.7148 22.1123 13.6807 22.2178 13.3847C22.5991 12.3145 22.992 11.2444 23.3791 10.1743C23.8131 8.97896 24.2471 7.78362 24.6753 6.58827C24.7515 6.37766 24.8571 6.2809 25.0975 6.29798C25.3615 6.31505 25.6254 6.32644 25.8893 6.29798C26.2001 6.26382 26.3409 6.38905 26.4347 6.66796C26.8336 7.88608 27.25 9.09281 27.6664 10.3052C28.0124 11.3184 28.3526 12.3373 28.6986 13.3505C28.81 13.6807 28.7924 13.7148 28.4405 13.7148C28.2705 13.7262 28.118 13.7262 27.9596 13.7262ZM25.4729 7.59578C25.4494 7.59578 25.4318 7.59578 25.4084 7.60147C25.121 8.66021 24.8453 9.71894 24.5521 10.7777C24.4934 10.9769 24.5755 10.9997 24.7456 10.9997C25.1269 10.994 25.5081 10.9997 25.8834 10.9997C26.3644 10.9997 26.3644 10.9997 26.2471 10.5557C25.989 9.56525 25.7309 8.58051 25.4729 7.59578Z" fill="#D22A22"/>
<path d="M34.2056 11.2732C34.2056 11.9847 34.1997 12.6962 34.2114 13.4077C34.2173 13.6525 34.1411 13.7493 33.8771 13.7265C33.6425 13.7037 33.4079 13.7208 33.1733 13.7208C32.798 13.7208 32.798 13.7208 32.798 13.3394C32.798 12.2181 32.7863 11.1024 32.8039 9.98108C32.8097 9.69647 32.7159 9.57694 32.4285 9.5371C32.147 9.50294 31.8655 9.48586 31.5839 9.54279C31.3728 9.58263 31.279 9.6737 31.2848 9.90139C31.2907 10.6129 31.3317 11.3244 31.2496 12.0359C31.2086 12.3832 31.1441 12.7304 30.9916 13.0491C30.757 13.5386 30.3523 13.7948 29.8069 13.8688C29.6368 13.8916 29.5253 13.8517 29.4784 13.681C29.455 13.607 29.4256 13.5386 29.3846 13.476C29.2204 13.2028 29.1734 12.9808 29.4902 12.7361C29.7775 12.5141 29.8479 12.1384 29.889 11.7855C30.0004 10.943 29.93 10.1006 29.9476 9.25818C29.9535 8.78573 30.0415 8.65482 30.5107 8.53528C31.2262 8.35313 31.9593 8.32467 32.6924 8.38729C33.0502 8.41575 33.4138 8.45559 33.754 8.57513C34.1352 8.71174 34.2114 8.8085 34.2114 9.20126C34.2056 9.89 34.2056 10.5844 34.2056 11.2732Z" fill="#D22A22"/>
<path d="M74.5387 11.0059C74.5387 11.7743 74.527 12.5428 74.5446 13.3112C74.5505 13.5503 74.4684 13.6243 74.2279 13.6129C73.9464 13.5958 73.659 13.6015 73.3775 13.6129C73.1839 13.6186 73.1253 13.5446 73.1311 13.3624C73.1429 12.8387 73.1253 12.3208 73.1429 11.7971C73.1487 11.5523 73.0608 11.4897 72.8262 11.5011C72.4391 11.5182 72.0461 11.5125 71.6532 11.5011C71.4714 11.4954 71.4186 11.558 71.4186 11.7288C71.4244 12.2582 71.4127 12.7932 71.4244 13.3226C71.4303 13.5503 71.3482 13.6243 71.1195 13.6129C70.8379 13.5958 70.5506 13.6015 70.2691 13.6129C70.0872 13.6186 70.0051 13.573 70.0051 13.3738C70.011 11.8312 70.011 10.283 70.0051 8.74043C70.0051 8.50705 70.1224 8.41597 70.3453 8.41597C70.6209 8.41597 70.8907 8.42167 71.1664 8.41597C71.3599 8.41028 71.4244 8.48428 71.4186 8.66642C71.4127 9.13887 71.4186 9.61701 71.4127 10.0895C71.4127 10.2431 71.4479 10.3058 71.6239 10.3058C72.052 10.2944 72.486 10.2944 72.9141 10.3058C73.1077 10.3114 73.1429 10.2374 73.137 10.0724C73.1311 9.62839 73.137 9.17872 73.1311 8.73473C73.1253 8.50705 73.2191 8.40459 73.4596 8.41597C73.7235 8.42736 73.9874 8.43305 74.2513 8.41028C74.4977 8.3932 74.5446 8.49566 74.5446 8.70627C74.5329 9.46901 74.5387 10.2375 74.5387 11.0059Z" fill="#D22A22"/>
<path d="M68.8324 11.1368C68.8324 11.3645 68.8441 11.5921 68.8324 11.8198C68.7972 12.2923 68.8676 12.7249 69.2195 13.0835C69.3603 13.2258 69.3192 13.3339 69.1374 13.4079C69.0846 13.4307 69.0318 13.4592 68.979 13.4876C68.3398 13.8121 68.3339 13.8178 67.8354 13.2941C67.6829 13.129 67.6008 13.2486 67.5069 13.3339C67.0201 13.7722 66.4395 13.8747 65.8178 13.7552C64.9791 13.5901 64.4865 12.7989 64.6331 11.8995C64.7739 11.0286 65.331 10.5391 66.3398 10.4196C66.6506 10.3797 66.9615 10.3513 67.2723 10.3456C67.4893 10.3399 67.5187 10.2374 67.4776 10.0724C67.3955 9.73652 67.1844 9.52591 66.8383 9.44622C66.3633 9.33238 65.9058 9.42345 65.4542 9.54299C65.2255 9.6056 65.1551 9.54298 65.1668 9.32099C65.1785 9.10469 65.1668 8.8827 65.1727 8.6664C65.1727 8.58102 65.1551 8.49564 65.2841 8.46717C66.1756 8.26226 67.0612 8.18257 67.9233 8.56394C68.5392 8.83716 68.8148 9.33807 68.8383 9.97559C68.8383 10.357 68.8265 10.744 68.8324 11.1368ZM67.4952 12.002C67.4952 11.8312 67.4952 11.6605 67.4952 11.4897C67.4952 11.3872 67.4541 11.3303 67.3427 11.3303C67.0201 11.3303 66.6976 11.3303 66.3867 11.4271C66.1228 11.5125 65.9644 11.6832 65.9527 11.9735C65.9469 12.2695 66.0993 12.4574 66.375 12.5541C66.5099 12.5997 66.6624 12.6167 66.8031 12.6281C67.4952 12.685 67.4952 12.685 67.4952 12.002Z" fill="#D22A22"/>
<path d="M53.1142 11.1309C53.1142 11.3757 53.126 11.6261 53.1084 11.8709C53.079 12.3149 53.1553 12.719 53.4779 13.0548C53.6362 13.2199 53.601 13.3338 53.3899 13.4134C53.2726 13.459 53.1612 13.5273 53.0497 13.5842C52.5571 13.8347 52.5512 13.846 52.2052 13.4021C52.0468 13.1971 51.953 13.1744 51.736 13.3565C50.8914 14.068 49.6305 13.9087 49.1085 13.0548C48.5278 12.1043 49.0322 10.8292 50.1172 10.5219C50.563 10.3966 51.0146 10.3511 51.4779 10.334C51.7829 10.3226 51.8122 10.2771 51.7184 9.98679C51.6011 9.6225 51.2902 9.41189 50.8152 9.38912C50.4281 9.36635 50.0586 9.44035 49.6891 9.53712C49.5014 9.58265 49.4076 9.55988 49.431 9.34927C49.4428 9.24682 49.431 9.13867 49.431 9.03621C49.431 8.43854 49.431 8.44423 50.0527 8.35885C50.6275 8.27916 51.2023 8.26777 51.7712 8.41008C52.6157 8.62068 53.079 9.17851 53.1025 10.0209C53.1201 10.3909 53.1142 10.7609 53.1142 11.1309ZM51.777 12.0132C51.777 11.8424 51.777 11.6717 51.777 11.5009C51.777 11.4269 51.777 11.3358 51.6656 11.3358C51.2785 11.3415 50.8797 11.3074 50.5219 11.4952C50.3108 11.6034 50.2287 11.7912 50.2404 12.0189C50.2463 12.2352 50.3401 12.4003 50.5395 12.5027C50.7155 12.5938 50.9032 12.6222 51.1026 12.6336C51.777 12.6735 51.777 12.6735 51.777 12.0132Z" fill="#D22A22"/>
<path d="M75.6944 11.0343C75.6944 10.2659 75.7002 9.49747 75.6885 8.72904C75.6826 8.47858 75.7765 8.38751 76.0287 8.40459C76.2984 8.42166 76.5741 8.41597 76.8498 8.40459C77.0374 8.39889 77.1078 8.4672 77.1078 8.65504C77.0961 9.11041 77.1137 9.56578 77.1019 10.0211C77.0961 10.2318 77.143 10.3228 77.3835 10.3171C77.9054 10.3001 77.9875 10.2602 78.1752 9.77638C78.228 9.63408 78.2808 9.49178 78.3453 9.35517C78.6092 8.75181 79.4127 8.33628 80.0872 8.44443C80.1928 8.46151 80.2104 8.51843 80.2104 8.59812C80.2104 8.74042 80.1986 8.88272 80.2162 9.02503C80.2456 9.24133 80.1752 9.34378 79.9406 9.38932C79.6649 9.44055 79.5476 9.67962 79.4421 9.90731C79.2837 10.2488 79.184 10.6245 78.7735 10.801C78.6268 10.8636 78.7852 10.9433 78.8262 10.9888C79.3658 11.6206 79.8057 12.3151 80.0637 13.1006C80.2456 13.647 80.2338 13.6072 79.6649 13.6584C79.0902 13.7096 78.75 13.5787 78.5916 12.9924C78.4802 12.594 78.228 12.2411 77.9641 11.9109C77.8878 11.8142 77.8057 11.7174 77.6884 11.6605C77.3483 11.4783 77.1078 11.6206 77.1078 11.9963C77.1078 12.4403 77.0961 12.89 77.1137 13.334C77.1195 13.5616 77.0316 13.6356 76.8028 13.6243C76.5389 13.6129 76.275 13.6072 76.0111 13.6243C75.7765 13.6413 75.6885 13.5673 75.6885 13.3226C75.7061 12.5484 75.6944 11.7914 75.6944 11.0343Z" fill="#D22A22"/>
<path d="M35.3375 11.0117C35.3375 10.2432 35.3493 9.4748 35.3317 8.70637C35.3258 8.45022 35.4197 8.37053 35.666 8.38761C35.9299 8.40469 36.1938 8.3933 36.4577 8.38191C36.6689 8.37622 36.7569 8.44453 36.751 8.66083C36.7393 9.07066 36.7569 9.4748 36.7451 9.88463C36.7393 10.0668 36.7979 10.1294 36.9915 10.1294C37.3727 10.1294 37.7539 10.1408 38.1351 10.1692C39.0676 10.2432 39.6717 10.8751 39.7011 11.7801C39.7421 13.1519 39.1732 13.7553 37.7598 13.8293C37.0032 13.8691 36.2583 13.7553 35.5135 13.6585C35.3141 13.6357 35.3434 13.5105 35.3434 13.3967C35.3375 12.6055 35.3375 11.8086 35.3375 11.0117ZM36.7451 11.9224C36.7451 12.7364 36.7451 12.7364 37.5604 12.6339C38.0706 12.5713 38.3111 12.3266 38.2876 11.8826C38.2642 11.4841 37.9709 11.228 37.4958 11.2109C36.7451 11.1824 36.7451 11.1824 36.7451 11.9224Z" fill="#D22A22"/>
<path d="M56.9373 11.1367C56.9315 11.649 56.4977 12.0531 55.976 12.0417C55.4484 12.0304 55.0439 11.6205 55.0497 11.1025C55.0556 10.5903 55.4718 10.1804 55.9994 10.1804C56.527 10.1804 56.9432 10.6073 56.9373 11.1367Z" fill="#D22A22"/>
</svg>
