<svg width="17" height="22" viewBox="0 0 17 22" fill="none" xmlns="http://www.w3.org/2000/svg">
<path d="M1.24096 7.12866C0.88954 7.12866 0.604009 7.26091 0.362405 7.52539C0.120802 7.78988 0 8.10245 0 8.47514V14.1616C0 14.5463 0.120802 14.8589 0.362405 15.1234C0.604009 15.3878 0.900522 15.5201 1.24096 15.5201C1.59239 15.5201 1.87792 15.3878 2.11952 15.1234C2.36112 14.8589 2.47094 14.5343 2.47094 14.1616V8.47514C2.47094 8.10245 2.35014 7.78988 2.10854 7.52539C1.86694 7.26091 1.5814 7.12866 1.24096 7.12866Z" fill="#FFD47C"/>
<path d="M11.2455 2.01928L12.1021 0.288103C12.157 0.167882 12.135 0.083727 12.0472 0.0236165C11.9374 -0.0244719 11.8605 -0.000427679 11.8056 0.107771L10.938 1.85097C10.1693 1.47829 9.36757 1.29796 8.51097 1.29796C7.65438 1.29796 6.85269 1.47829 6.08396 1.85097L5.21638 0.107771C5.16147 -0.000427679 5.0846 -0.0244719 4.97478 0.0236165C4.87594 0.083727 4.85398 0.167882 4.91987 0.288103L5.77646 2.01928C4.90888 2.50017 4.21702 3.18543 3.70087 4.05102C3.18471 4.91661 2.93213 5.86635 2.93213 6.90025H14.0788C14.0788 5.86635 13.8263 4.91661 13.3101 4.05102C12.7939 3.18543 12.1021 2.51219 11.2455 2.01928ZM6.28163 4.54392C6.19378 4.6401 6.07297 4.70021 5.95217 4.70021C5.82039 4.70021 5.71057 4.65212 5.62271 4.54392C5.53486 4.44775 5.49093 4.32753 5.49093 4.18326C5.49093 4.03899 5.53486 3.91877 5.62271 3.8226C5.71057 3.72642 5.82039 3.66631 5.95217 3.66631C6.08396 3.66631 6.19378 3.7144 6.28163 3.8226C6.36949 3.91877 6.4244 4.05102 6.4244 4.18326C6.4244 4.3155 6.36949 4.43572 6.28163 4.54392ZM11.3773 4.54392C11.2894 4.6401 11.1796 4.70021 11.0478 4.70021C10.916 4.70021 10.8062 4.65212 10.7184 4.54392C10.6305 4.44775 10.5756 4.32753 10.5756 4.18326C10.5756 4.03899 10.6195 3.91877 10.7184 3.8226C10.8062 3.72642 10.927 3.66631 11.0478 3.66631C11.1796 3.66631 11.2894 3.7144 11.3773 3.8226C11.4651 3.91877 11.5091 4.05102 11.5091 4.18326C11.5091 4.3155 11.4651 4.43572 11.3773 4.54392Z" fill="#FFD47C"/>
<path d="M2.9541 16.1813C2.9541 16.59 3.08588 16.9266 3.33847 17.2152C3.59105 17.4917 3.90953 17.6359 4.28291 17.6359H5.17245L5.18344 20.6415C5.18344 21.0262 5.30424 21.3387 5.54584 21.6032C5.78744 21.8677 6.07297 22 6.41342 22C6.76484 22 7.05037 21.8677 7.29197 21.6032C7.53358 21.3387 7.65438 21.0141 7.65438 20.6415V17.6359H9.32364V20.6415C9.32364 21.0262 9.44444 21.3387 9.68604 21.6032C9.92765 21.8677 10.2242 22 10.5646 22C10.916 22 11.2016 21.8677 11.4432 21.6032C11.6848 21.3387 11.8056 21.0141 11.8056 20.6415V17.6359H12.7171C13.0795 17.6359 13.387 17.4917 13.6505 17.2152C13.9031 16.9387 14.0349 16.59 14.0349 16.1813V7.3811H2.94312V16.1813H2.9541Z" fill="#FFD47C"/>
<path d="M15.759 7.12866C15.4186 7.12866 15.1331 7.26091 14.8915 7.51337C14.6499 7.77786 14.5291 8.09043 14.5291 8.47514V14.1616C14.5291 14.5463 14.6499 14.8589 14.8915 15.1234C15.1331 15.3878 15.4186 15.5201 15.759 15.5201C16.1105 15.5201 16.396 15.3878 16.6376 15.1234C16.8792 14.8589 17 14.5343 17 14.1616V8.47514C17 8.10245 16.8792 7.77786 16.6376 7.51337C16.396 7.26091 16.1105 7.12866 15.759 7.12866Z" fill="#FFD47C"/>
</svg>
