<svg width="89" height="24" viewBox="0 0 89 24" fill="none" xmlns="http://www.w3.org/2000/svg">
<path d="M50.0792 17.7168C45.7956 17.7168 42.2908 14.4208 42.1492 10.2665C42.0075 10.6442 41.8305 11.0562 41.6889 11.5025C40.2728 15.1075 39.2108 16.8928 39.1754 16.9615C38.9276 17.3392 38.5027 17.6138 38.0425 17.6138H36.3078C35.8476 17.6138 35.3873 17.3735 35.1749 16.9615C34.9271 16.5495 34.9271 16.0688 35.1749 15.6912C35.7768 14.6612 36.1308 13.9745 36.2724 13.5968C36.06 12.9788 35.6706 11.7428 35.2457 10.5755C35.1395 10.2322 34.9979 9.85452 34.8563 9.44252V12.9445C34.8563 13.4595 34.5377 13.9402 34.0067 14.1462C33.9359 14.1805 32.0241 14.9015 30.1124 14.9015C29.6876 14.9015 28.1653 14.8672 27.0324 14.2148C26.4306 13.8715 26.0412 13.3222 25.8288 12.7728C25.7934 12.8758 25.7226 12.9445 25.6872 13.0475C24.9437 14.2492 23.5276 14.8672 21.5805 14.8672C21.2973 14.8672 21.0495 14.8328 20.8017 14.8328V16.3435C20.8017 17.0645 20.1998 17.6138 19.4918 17.6138H18.0049C17.6509 17.6138 17.3323 17.4765 17.0844 17.2705C16.8366 17.4765 16.518 17.6138 16.164 17.6138H14.6771C13.9337 17.6138 13.3672 17.0302 13.3672 16.3435V14.8328C13.1194 14.8672 12.8716 14.8672 12.5884 14.8672C10.6059 14.8328 9.22517 14.2492 8.44633 13.0475V13.0132C8.37552 12.9102 8.30472 12.7728 8.23392 12.6355V13.3565C8.23392 14.0775 7.63208 14.6268 6.92404 14.6268H5.43715C4.97692 14.6268 4.55209 14.3865 4.30428 14.0088L3.24222 14.6612C3.0298 14.7985 2.78199 14.8672 2.53417 14.8672C2.25096 14.8672 1.96774 14.7642 1.71992 14.5925C1.50751 14.5238 0.162231 13.4595 0.162231 11.6398V2.16388C0.162231 1.47722 0.764068 0.893555 1.47211 0.893555H2.9944C3.66704 0.893555 4.19807 1.33989 4.30428 1.95788C4.5875 1.51155 5.11853 1.23689 5.68496 1.23689H6.53461C7.45507 1.23689 8.23392 1.95788 8.23392 2.88488V3.64021C8.23392 4.01787 8.09231 4.39554 7.84449 4.67021C8.05691 4.91054 8.16311 5.1852 8.16311 5.52853V6.38686C8.37552 5.94053 8.55254 5.66587 8.65874 5.56287C8.90656 5.25387 10.0748 3.98354 12.6946 3.98354C15.1727 3.98354 16.5888 4.70454 16.7304 4.80754C16.8366 4.8762 16.9074 4.91054 17.0136 5.01354C17.0844 4.94487 17.1907 4.8762 17.2969 4.80754C17.4739 4.73887 18.89 3.98354 21.3681 3.98354C23.9879 3.98354 25.1561 5.25387 25.4039 5.56287C25.581 5.76887 26.2182 6.66153 26.3952 8.34386C26.5368 8.17219 26.6784 8.03486 26.8908 7.89752C26.643 7.76019 26.466 7.51986 26.3598 7.24519L25.935 6.07787C25.6872 5.42554 26.0412 4.70454 26.7138 4.46421C26.8554 4.39554 28.2007 3.94921 30.1124 3.94921C31.7409 3.94921 32.8384 4.25821 33.6172 4.94487C33.6526 4.8762 33.688 4.80754 33.7234 4.73887C33.9713 4.39554 34.3607 4.18954 34.8209 4.18954H36.3078C36.8388 4.18954 37.3345 4.49854 37.5115 4.9792C37.5469 5.04787 38.1133 6.35253 38.6797 8.00052C39.1754 6.48986 39.5294 5.1852 39.5294 5.15087C39.671 4.56721 40.202 4.18954 40.8039 4.18954H42.2908C42.6802 4.18954 43.0696 4.36121 43.3174 4.67021C43.5298 4.91054 43.6006 5.1852 43.6006 5.4942C45.0521 3.53721 47.3887 2.26688 50.0438 2.26688C53.5486 2.26688 56.5224 4.46421 57.5845 7.55419C57.7615 6.76453 58.1155 5.9062 58.7882 5.25387C60.098 3.94921 61.9743 3.94921 62.5762 3.94921C63.9923 3.94921 65.3021 4.42987 65.4437 4.49854C65.8686 4.67021 66.1518 5.01354 66.258 5.3912C66.2934 5.35687 66.3288 5.2882 66.3996 5.25387C67.1785 4.46421 68.6299 3.98354 70.0814 3.98354C71.5683 3.98354 73.0906 4.49854 73.8695 5.25387C74.1173 5.4942 74.3297 5.76887 74.5067 6.1122V5.87187C74.5067 5.3912 74.7899 4.94487 75.2501 4.73887C75.675 4.53287 76.914 3.94921 79.109 3.94921C80.2064 3.94921 80.9853 4.15521 81.5163 4.39554C82.1181 4.18954 83.0386 3.94921 84.0653 3.94921C84.1361 3.94921 84.2069 3.94921 84.3131 3.94921C84.4193 3.94921 84.4901 3.94921 84.5963 3.94921C85.1273 3.94921 85.7292 3.98354 86.508 4.32687C86.508 4.32687 86.508 4.32687 86.5434 4.32687C88.7738 5.32254 88.8092 8.06919 88.8092 8.48119V13.3565C88.8092 14.0775 88.2073 14.6268 87.4993 14.6268H86.0124C85.2689 14.6268 84.7025 14.0432 84.7025 13.3565V8.24086C84.7025 8.10352 84.6671 8.00052 84.6317 7.93186C84.5609 7.89752 84.3839 7.82886 84.0653 7.82886C83.9591 7.82886 83.8529 7.82886 83.7113 7.86319C83.7467 8.20652 83.7467 8.58419 83.7467 9.03052V13.3565C83.7467 14.0775 83.1448 14.6268 82.4368 14.6268H80.9499C80.2064 14.6268 79.64 14.0432 79.64 13.3565V8.24086C79.64 8.06919 79.5692 7.89752 79.5692 7.89752C79.4984 7.86319 79.3568 7.82886 79.0736 7.82886C78.9674 7.82886 78.8258 7.82886 78.755 7.82886V13.3565C78.755 14.0775 78.1531 14.6268 77.4451 14.6268H75.9582C75.2147 14.6268 74.6483 14.0432 74.6483 13.3565V12.7385C74.5067 13.0132 74.2943 13.2878 74.0819 13.4938C73.126 14.3865 71.8515 14.8328 70.2584 14.8328H70.223C68.7007 14.8328 67.4263 14.3865 66.4704 13.4938C66.435 13.4595 66.435 13.4595 66.3996 13.4252C66.2934 13.8372 66.0102 14.2148 65.5854 14.3522C65.4437 14.4208 64.0631 14.9015 62.7532 14.9015C60.9477 14.9015 59.4608 14.2835 58.5757 13.1848C58.2571 12.8072 58.0447 12.3608 57.9031 11.9145C56.9118 15.2792 53.7965 17.7168 50.0792 17.7168ZM29.6168 11.1248C29.723 11.1248 29.8646 11.1592 30.1124 11.1592C30.3248 11.1592 30.5373 11.1248 30.7497 11.1248V10.7815C30.5019 10.7472 30.2894 10.7472 30.1124 10.7472C29.9 10.7472 29.723 10.7472 29.6168 10.7815C29.6168 10.8502 29.6168 10.9188 29.6168 10.9875C29.6168 11.0218 29.6168 11.0905 29.6168 11.1248ZM69.3734 10.9532C69.5504 11.0562 69.9398 11.1248 70.0814 11.1248C70.2584 11.1248 70.6833 11.0218 70.8957 10.9188C70.9311 10.7815 71.0373 10.4038 71.0373 9.51118C71.0373 8.58419 70.9311 8.10352 70.8603 7.89752C70.7541 7.86319 70.5063 7.76019 70.0814 7.76019C69.692 7.76019 69.4442 7.82886 69.3026 7.89752C69.2318 8.10352 69.1256 8.61852 69.1256 9.51118C69.2318 10.3352 69.338 10.7815 69.3734 10.9532ZM61.6911 10.8158C61.7973 10.8845 62.1159 11.0218 62.6116 11.0218C63.178 11.0218 63.8153 10.8158 63.9923 10.7128C64.1693 10.6442 64.3463 10.6098 64.5233 10.6098C64.7003 10.6098 64.8773 10.6442 65.0543 10.7128C65.0897 10.7472 65.1251 10.7472 65.1959 10.7815C65.1251 10.3008 65.1251 9.82018 65.1251 9.44252C65.1251 8.92752 65.1605 8.48119 65.2313 8.03486C65.1605 8.10352 65.0543 8.13786 64.9481 8.17219C64.8065 8.20652 64.6649 8.24086 64.5587 8.24086C64.3109 8.24086 64.0631 8.17219 63.8507 8.03486C63.7799 8.00052 63.355 7.79453 62.647 7.79453C62.47 7.79453 61.9035 7.79453 61.7619 7.96619C61.6557 8.06919 61.5495 8.51552 61.5495 9.44252C61.5495 10.2322 61.6203 10.6785 61.6911 10.8158ZM20.7663 10.8845C20.9433 10.9188 21.1911 10.9875 21.5451 10.9875C21.9699 10.9875 22.1115 10.9188 22.1469 10.8845C22.2886 10.7128 22.324 9.99185 22.324 9.47685C22.324 8.61852 22.2178 8.10352 22.1469 7.93186C22.0407 7.89752 21.8637 7.82886 21.5451 7.82886C21.2973 7.82886 21.0141 7.86319 20.7663 7.89752V10.8845ZM11.9511 7.89752C11.8803 8.06919 11.7741 8.58419 11.7741 9.44252C11.7741 9.95752 11.8095 10.7128 11.9511 10.8502C11.9865 10.8845 12.1281 10.9532 12.553 10.9532C12.907 10.9532 13.1548 10.9188 13.3318 10.8502V7.86319C13.084 7.82886 12.8008 7.79453 12.553 7.79453C12.2344 7.79453 12.0219 7.86319 11.9511 7.89752ZM4.30428 4.7732C4.33968 4.73887 4.37508 4.70454 4.37508 4.67021C4.33968 4.63587 4.30428 4.60154 4.30428 4.56721V4.7732Z" fill="#E6E6E6"/>
<path d="M57.4073 10.0949C57.4073 14.0088 54.1503 17.1675 50.1145 17.1675C46.0787 17.1675 42.8217 14.0088 42.8217 10.0949C42.8217 6.18087 46.0787 3.02222 50.1145 3.02222C54.1503 3.02222 57.4073 6.18087 57.4073 10.0949Z" fill="white"/>
<path d="M56.6994 10.0946C56.6994 13.6309 53.7256 16.5149 50.0792 16.5149C46.4328 16.5149 43.459 13.6309 43.459 10.0946C43.459 6.5583 46.4328 3.67432 50.0792 3.67432C53.7256 3.67432 56.6994 6.5583 56.6994 10.0946Z" fill="url(#paint0_linear)"/>
<path d="M50.0792 4.18931C53.4424 4.18931 56.1683 6.83297 56.1683 10.0946C56.1683 13.3563 53.4424 15.9999 50.0792 15.9999C46.716 15.9999 43.99 13.3563 43.99 10.0946C44.0254 6.83297 46.7514 4.18931 50.0792 4.18931ZM50.0792 3.67432C46.4328 3.67432 43.459 6.5583 43.459 10.0946C43.459 13.6309 46.4328 16.5149 50.0792 16.5149C53.7256 16.5149 56.6994 13.6309 56.6994 10.0946C56.6994 6.5583 53.7256 3.67432 50.0792 3.67432Z" fill="url(#paint1_linear)"/>
<path d="M49.017 14.5582V13.7342C48.4151 13.5969 46.7866 13.0819 46.3972 11.5026L46.3264 11.1936H49.194L49.2294 11.3996C49.2294 11.4682 49.3356 11.9489 49.902 11.9489C50.6455 11.9489 50.6455 11.6399 50.6455 11.5026C50.6455 11.1936 50.1498 11.0219 49.3356 10.7472C49.017 10.6442 48.663 10.5069 48.3089 10.3696C48.1319 10.3009 46.5742 9.82024 46.5742 8.51558C46.5742 7.31392 47.9195 6.45559 48.9816 6.35259V5.63159H51.1057V6.38692C51.7075 6.45559 53.0882 6.73025 53.6901 8.13791L53.8671 8.48125H50.9287L50.8933 8.27525C50.8933 8.24091 50.7871 7.79458 50.1498 7.79458C49.6896 7.79458 49.5834 8.03491 49.5834 8.20658C49.5834 8.41258 49.5834 8.68724 51.1411 9.09924C52.8758 9.54557 53.7255 10.3009 53.7255 11.3996C53.7255 12.2922 53.2652 13.3909 51.1057 13.7686V14.5582H50.8579H49.017Z" fill="white"/>
<path d="M50.8579 5.87193V6.62726C50.9641 6.62726 52.7696 6.66159 53.4777 8.24092C51.1765 8.24092 51.1765 8.24092 51.1765 8.24092C51.1765 8.24092 51.0703 7.51992 50.1499 7.51992C49.4064 7.51992 49.3356 8.00059 49.3356 8.20659C49.3356 8.51559 49.3356 8.89325 51.1057 9.33958C52.8404 9.78591 53.5131 10.5069 53.5131 11.3996C53.5131 12.3952 52.8758 13.2879 50.8933 13.5626C50.8933 14.3179 50.8933 14.3179 50.8933 14.3179H49.3002V13.5626C49.3002 13.5626 47.1053 13.2536 46.6805 11.4682C49.017 11.4682 49.017 11.4682 49.017 11.4682C49.017 11.4682 49.1586 12.2579 49.9729 12.2579C50.7163 12.2579 50.9995 11.9832 50.9995 11.5369C50.9995 10.8159 49.7958 10.6786 48.486 10.1636C48.486 10.1636 46.9283 9.75158 46.9283 8.54992C46.9283 7.45126 48.3444 6.62726 49.3356 6.62726C49.3356 6.0436 49.3356 5.90626 49.3356 5.90626H50.8579V5.87193ZM51.3889 5.35693H50.8579H49.2648H48.7338V5.87193V6.1466C47.6363 6.38693 46.3264 7.27959 46.3264 8.54992C46.3264 10.0262 47.9549 10.5756 48.2027 10.6442C48.5214 10.7816 48.84 10.8846 49.0878 10.9876H48.9108H48.8754H48.663H46.6451H45.9724L46.114 11.6056C46.5034 13.1849 47.9903 13.7686 48.7338 13.9746V14.3522V14.8672H49.2648H50.8579H51.3889V14.3522V14.2836V14.0432C53.6547 13.5626 54.0087 12.2236 54.0087 11.4339C54.0087 10.2322 53.0882 9.37392 51.2119 8.89325C51.1057 8.85892 50.9641 8.82459 50.8933 8.79025H51.1765H51.2119H51.4597H53.4777H54.2919L53.9733 8.06926C53.4069 6.83326 52.274 6.3526 51.3889 6.21526V5.90626V5.35693ZM50.6809 8.68725C49.9374 8.44692 49.8312 8.30959 49.8312 8.27525V8.20659C49.8312 8.13792 49.8312 8.03492 50.1145 8.03492C50.5747 8.03492 50.6101 8.30959 50.6101 8.30959L50.6809 8.68725ZM49.902 11.7429C49.548 11.7429 49.4772 11.4339 49.4772 11.3996L49.4064 11.0562C49.8312 11.1936 50.3977 11.3996 50.3977 11.5369C50.3977 11.6056 50.3977 11.7429 49.902 11.7429Z" fill="url(#paint2_linear)"/>
<path d="M62.6116 13.5623C61.8328 13.5623 60.3813 13.425 59.5671 12.395C59.1068 11.8114 58.859 10.8157 58.859 9.44237C58.859 8.82437 58.9652 7.24504 59.8503 6.35238C60.7353 5.45972 62.0806 5.45972 62.6116 5.45972C63.5321 5.45972 64.4879 5.73438 64.8066 5.87172L64.4525 6.83304C64.1693 6.69571 63.5321 6.45538 62.6116 6.45538C61.3726 6.45538 60.9123 6.79871 60.6291 7.10771C60.3459 7.41671 60.0627 7.96604 60.0627 9.4767C60.0627 10.9874 60.3105 11.468 60.5583 11.8114C60.8415 12.1547 61.585 12.5324 62.6116 12.5324C63.4259 12.5324 64.1693 12.292 64.4525 12.1547L64.8066 13.1847C64.4879 13.2877 63.4967 13.5623 62.6116 13.5623ZM70.0815 13.528C69.6567 13.528 68.3822 13.528 67.3555 12.5667C66.7891 12.0174 66.5767 10.644 66.5767 9.54537C66.5767 8.00037 66.8599 6.93604 67.4617 6.35238C67.8866 5.94038 68.9486 5.49405 70.1169 5.49405C71.179 5.49405 72.3826 5.87171 72.8428 6.35238C73.4093 6.93604 73.7279 8.00037 73.7279 9.51103C73.7279 10.644 73.5155 12.0174 72.9491 12.5667C72.241 13.1847 71.3206 13.528 70.0815 13.528ZM70.1523 6.42105C69.0902 6.42105 68.453 6.79871 68.276 7.00471C67.8511 7.48537 67.7803 8.82437 67.7803 9.5797C67.7803 10.4037 67.8865 11.5024 68.276 11.9487C68.7008 12.395 69.6921 12.601 70.1169 12.601C70.5771 12.601 71.6746 12.3607 72.0286 11.9487C72.3472 11.571 72.5242 10.8157 72.5242 9.5797C72.5242 8.82437 72.4534 7.51971 72.0286 7.00471C71.9932 6.97038 71.4622 6.42105 70.1523 6.42105ZM86.0832 13.2877V8.30937C86.0832 7.69137 85.8 7.24504 85.8 7.21071C85.8 7.17638 85.3752 6.48971 83.9945 6.48971C83.4635 6.48971 82.4368 6.62705 81.9766 6.93604L81.8704 7.03904L81.9766 7.14204C82.2244 7.38238 82.2598 8.4467 82.2598 9.0647V13.2877H81.0207V8.30937C81.0207 7.72571 80.7729 7.31371 80.7375 7.21071C80.7021 7.10771 80.3481 6.48971 79.0028 6.48971C77.6221 6.48971 77.3035 6.76438 77.2681 6.79871L77.2327 6.83304V13.2877H75.9936V6.07771C76.3831 5.90605 77.4097 5.45972 79.109 5.45972C80.6313 5.45972 81.304 5.97471 81.3394 6.00905L81.4102 6.04338L81.481 6.00905C81.481 6.00905 82.7554 5.45972 84.0653 5.45972C84.1715 5.45972 84.2423 5.45972 84.3131 5.45972C84.3839 5.45972 84.4901 5.45972 84.5609 5.45972C85.0212 5.45972 85.4106 5.49405 85.8708 5.70005C87.3223 6.35238 87.2869 8.51537 87.2869 8.5497V13.2877H86.0832Z" fill="url(#paint3_linear)"/>
<path d="M79.1088 5.59742C80.5957 5.59742 81.2329 6.11242 81.2329 6.11242L81.3745 6.21542L81.5161 6.14675C81.5161 6.14675 82.7552 5.59742 84.0651 5.59742C84.1713 5.59742 84.2421 5.59742 84.3483 5.59742C84.4191 5.59742 84.5253 5.59742 84.5961 5.59742C85.0209 5.59742 85.4104 5.63175 85.8706 5.83775C87.2513 6.45575 87.2159 8.55007 87.2159 8.58441V13.1851H86.26V8.30974C86.26 7.65741 85.9768 7.21108 85.9414 7.14241C85.8706 7.03941 85.4104 6.35275 84.0297 6.35275C83.4632 6.35275 82.4012 6.49008 81.941 6.83341L81.6931 7.00508L81.9056 7.21108C82.0826 7.38275 82.1534 8.30974 82.1534 9.06507V13.1507H81.1975V8.30974C81.1975 7.72608 80.9497 7.27975 80.8789 7.17675C80.8081 7.00508 80.4187 6.38708 79.038 6.38708C77.6573 6.38708 77.2679 6.66175 77.1971 6.73041L77.1263 6.79908V6.90208V13.1851H76.1704V6.14675C76.5244 5.97508 77.4803 5.59742 79.1088 5.59742ZM62.6114 5.59742C63.4256 5.59742 64.2399 5.83775 64.6293 5.94075L64.3461 6.62742C64.0275 6.49008 63.3902 6.28408 62.576 6.28408C61.2661 6.28408 60.7705 6.66175 60.4873 6.97075C60.204 7.31408 59.8854 7.86341 59.8854 9.44274C59.8854 10.8847 60.0978 11.4684 60.4165 11.8461C60.7351 12.2237 61.5139 12.6357 62.576 12.6357C63.284 12.6357 63.9921 12.4297 64.3461 12.2924L64.6293 13.0821C64.2045 13.2194 63.3548 13.4597 62.576 13.4597C61.7971 13.4597 60.4165 13.3224 59.6376 12.3267C59.1774 11.7431 58.965 10.7817 58.965 9.44274C58.965 8.82474 59.0712 7.31408 59.9208 6.45575C60.8059 5.59742 62.1158 5.59742 62.6114 5.59742ZM70.1166 5.63175C71.2495 5.63175 72.347 6.04375 72.7718 6.45575C73.1612 6.83341 73.6215 7.69174 73.6215 9.54574C73.6215 10.6444 73.409 11.9834 72.878 12.4984C72.2408 13.1164 71.3203 13.4254 70.152 13.4254C69.7272 13.4254 68.4881 13.4254 67.5323 12.4984C67.0013 11.9834 66.7888 10.6444 66.7888 9.54574C66.7888 7.69174 67.2491 6.83341 67.6385 6.45575C67.9571 6.00942 68.9484 5.63175 70.1166 5.63175ZM70.1166 12.7387C70.5061 12.7387 71.7097 12.5327 72.1346 12.0521C72.5948 11.5371 72.6656 10.4041 72.6656 9.6144C72.6656 8.68741 72.5948 7.48574 72.1346 6.97075C72.0284 6.86775 71.4973 6.31842 70.152 6.31842C69.0546 6.31842 68.3819 6.73041 68.1695 6.97075C67.7093 7.48574 67.6385 8.68741 67.6385 9.6144C67.6385 10.8504 67.8155 11.6744 68.1695 12.0521C68.6298 12.5671 69.6918 12.7387 70.1166 12.7387ZM79.1088 5.32275C77.2325 5.32275 76.2058 5.80342 75.8518 5.97508C75.8518 10.6787 75.8518 13.4254 75.8518 13.4254H77.3387V6.90208C77.3387 6.90208 77.6219 6.62742 79.0026 6.62742C80.3833 6.62742 80.5957 7.27975 80.5957 7.27975C80.5957 7.27975 80.8789 7.69174 80.8789 8.30974V13.4254H82.3658V9.0994C82.3658 9.0994 82.4366 7.45141 82.0472 7.07375C82.472 6.79908 83.4278 6.66175 83.9943 6.66175C85.3042 6.66175 85.6936 7.31408 85.6936 7.31408C85.6936 7.31408 85.9768 7.72608 85.9768 8.34407V13.4597H87.4637V8.55007C87.4637 8.55007 87.5345 6.24975 85.9768 5.59742C85.4458 5.35709 85.0209 5.32275 84.5961 5.32275C84.4191 5.32275 84.2421 5.32275 84.0651 5.32275C82.6844 5.32275 81.4099 5.87208 81.4099 5.87208C81.4099 5.87208 80.7019 5.32275 79.1088 5.32275ZM62.6114 5.35709C62.0804 5.35709 60.6643 5.35709 59.7792 6.28408C58.788 7.27975 58.7526 8.96207 58.7526 9.44274C58.7526 9.9234 58.7526 11.5714 59.496 12.4984C60.2395 13.4254 61.5139 13.7001 62.6468 13.7001C63.7443 13.7001 65.0187 13.2537 65.0187 13.2537L64.5939 11.9834C64.5939 11.9834 63.6381 12.3954 62.6468 12.3954C61.6555 12.3954 60.9475 12.0521 60.6997 11.7087C60.4519 11.3997 60.2395 10.9534 60.2395 9.47707C60.2395 8.00074 60.4873 7.48574 60.7705 7.17675C61.0183 6.86775 61.4785 6.55875 62.6468 6.55875C63.8151 6.55875 64.5585 7.00508 64.5585 7.00508L65.0187 5.80342C64.9833 5.80342 63.8151 5.35709 62.6114 5.35709ZM70.1166 5.35709C68.9838 5.35709 67.8509 5.76909 67.3907 6.24975C66.4702 7.17675 66.4702 9.03074 66.4702 9.5114C66.4702 9.75174 66.4702 11.8461 67.2845 12.6357C68.3465 13.6314 69.6564 13.6314 70.1166 13.6314C70.5415 13.6314 71.9576 13.6314 73.0196 12.6357C73.8339 11.8461 73.8339 9.75174 73.8339 9.5114C73.8339 9.03074 73.8339 7.17675 72.9134 6.24975C72.4532 5.76909 71.2495 5.35709 70.1166 5.35709ZM70.1166 12.4641C69.6918 12.4641 68.7714 12.2581 68.3819 11.8461C67.9571 11.3997 67.9217 10.1637 67.9217 9.58007C67.9217 8.96207 67.9571 7.58874 68.3819 7.10808C68.559 6.93641 69.1254 6.55875 70.152 6.55875C71.2141 6.55875 71.7805 6.93641 71.9222 7.10808C72.347 7.58874 72.3824 8.96207 72.3824 9.58007C72.3824 10.1981 72.347 11.3654 71.9222 11.8461C71.5681 12.2581 70.5415 12.4641 70.1166 12.4641Z" fill="url(#paint4_linear)"/>
<path d="M36.5548 16.2741C37.5461 14.5574 37.7939 13.8021 37.7939 13.7678V13.7334V13.6991C37.7939 13.6648 37.2275 11.9138 36.6256 10.1971C36.0946 8.72078 35.2449 6.38612 34.9971 5.73379H36.2008C36.3424 6.04279 36.8734 7.31312 37.3691 8.78945C37.9709 10.4718 38.4311 12.2228 38.4311 12.2571L38.5373 12.6348L38.6789 12.2571C38.6789 12.2228 39.4932 10.3001 40.0242 8.68645C40.4844 7.31312 40.8031 6.07712 40.9093 5.73379H42.1129C41.9713 6.28312 41.4403 8.13712 40.3074 11.0898C39.0684 14.2141 38.1125 15.9307 37.9355 16.2741H36.5548ZM18.0749 16.2741V6.07712C18.3581 5.93979 19.491 5.45913 21.3319 5.45913C23.4206 5.45913 24.2349 6.48912 24.2349 6.48912C24.2349 6.48912 24.9783 7.38179 24.9783 9.44178C24.9783 11.4674 24.5889 12.1198 24.4119 12.3258L24.3765 12.3601C23.9163 13.1154 22.925 13.4931 21.4735 13.4931C20.0928 13.4931 19.491 12.9438 19.4556 12.9438L19.2432 12.7378V16.2397H18.0749V16.2741ZM21.5443 6.45479C20.5885 6.45479 19.4556 6.79812 19.4202 6.83245L19.314 6.86679V11.7078L19.3494 11.7421C19.3848 11.7764 19.9158 12.4631 21.5443 12.4631C22.3232 12.4631 22.8542 12.2914 23.2082 11.9138C23.6684 11.3988 23.7746 10.7121 23.7746 9.54478C23.7746 8.27445 23.5622 7.38179 23.2082 7.03845C22.8542 6.62646 22.2524 6.45479 21.5443 6.45479ZM14.7825 16.2741V12.7378L14.5701 12.9438C14.5701 12.9438 13.9683 13.4931 12.5522 13.4931C11.1007 13.4931 10.1448 13.0811 9.6492 12.3601L9.6138 12.3258C9.47219 12.0854 9.04736 11.4674 9.04736 9.44178C9.04736 7.41612 9.7554 6.52346 9.79081 6.52346C9.79081 6.52346 10.6051 5.49346 12.6938 5.49346C14.5347 5.49346 15.6676 5.97412 15.9508 6.11146V16.3084H14.7825V16.2741ZM12.5522 6.45479C11.8441 6.45479 11.2423 6.62646 10.8883 7.00412C10.5343 7.34745 10.3218 8.27445 10.3218 9.51044C10.3218 10.6778 10.3926 11.3988 10.8883 11.8794C11.2423 12.2571 11.8087 12.4288 12.5522 12.4288C14.1807 12.4288 14.7471 11.7421 14.7471 11.7078L14.7825 11.6734V6.86679L14.6763 6.83245C14.6409 6.79812 13.508 6.45479 12.5522 6.45479ZM2.49797 13.5274C2.28556 13.3214 1.61292 12.6691 1.61292 11.7078V2.36914H2.85199V11.7078C2.85199 11.7421 2.78119 12.4631 3.34762 13.0124L2.49797 13.5274ZM30.147 13.5274C29.439 13.5274 28.4477 13.3901 27.7751 13.0468C26.9962 12.6348 26.9608 11.1928 26.9608 10.9181C26.9608 10.7121 26.9962 9.68211 27.7397 9.13278C28.2353 8.78945 29.1204 8.58345 30.147 8.58345C30.9967 8.58345 31.9879 8.78945 31.9879 8.78945L32.1295 8.82378L32.1649 8.68645C32.1649 8.61778 32.4482 7.31312 31.7047 6.72945C31.5277 6.59212 31.2445 6.45479 30.1824 6.45479C29.2974 6.45479 28.0937 6.69512 27.7043 6.79812L27.3857 5.87113C27.7397 5.76813 28.8017 5.49346 30.147 5.49346C31.9171 5.49346 32.519 5.90546 32.873 6.35179C33.4394 7.03845 33.4394 7.86245 33.4394 7.89678V12.9094C33.05 13.0468 31.5631 13.5274 30.147 13.5274ZM30.147 9.37311C29.4744 9.37311 28.8726 9.51044 28.5893 9.71644C28.1999 10.0254 28.1645 10.7808 28.1645 11.0211C28.1645 11.6734 28.3061 12.0854 28.6601 12.3258C28.9788 12.5318 29.4036 12.6348 30.1116 12.6348C31.2799 12.6348 32.0587 12.2914 32.0941 12.2914L32.1649 12.2571V9.61344H32.0587C32.0587 9.57911 30.7489 9.37311 30.147 9.37311ZM5.50715 13.2871V5.73379H6.74622V13.3214H5.50715V13.2871ZM5.68416 3.94847C5.54255 3.94847 5.43634 3.84547 5.43634 3.70813V2.91847C5.43634 2.78114 5.54255 2.67814 5.68416 2.67814H6.53381C6.67542 2.67814 6.78163 2.78114 6.78163 2.91847V3.6738C6.78163 3.81113 6.67542 3.91413 6.53381 3.91413H5.68416V3.94847Z" fill="url(#paint5_linear)"/>
<path d="M2.71051 2.5066V11.7079C2.71051 11.8109 2.67511 12.4632 3.13534 12.9782L2.4981 13.3902C2.25028 13.1499 1.75465 12.5662 1.75465 11.7079V2.5066H2.71051ZM6.53394 2.8156C6.60474 2.8156 6.64015 2.84993 6.64015 2.9186V3.67393C6.64015 3.74259 6.60474 3.77693 6.53394 3.77693H5.68429C5.61348 3.77693 5.57808 3.74259 5.57808 3.67393V2.9186C5.57808 2.84993 5.61348 2.8156 5.68429 2.8156H6.53394ZM30.1472 5.59659C31.8819 5.59659 32.4129 5.97425 32.7669 6.38625C33.2979 7.00425 33.2979 7.82824 33.2979 7.82824V12.8066C32.8377 12.9782 31.4924 13.3902 30.1472 13.3902C29.4391 13.3902 28.4833 13.2529 27.846 12.9096C27.138 12.5319 27.1026 11.1586 27.1026 10.8839C27.1026 10.6779 27.138 9.71657 27.846 9.20157C28.3062 8.85824 29.1913 8.65224 30.1472 8.65224C30.9614 8.65224 31.9527 8.85824 31.9527 8.85824L32.2005 8.9269L32.2713 8.68657C32.2713 8.61791 32.5899 7.24458 31.7757 6.59225C31.5632 6.42058 31.28 6.28325 30.1826 6.28325C29.3683 6.28325 28.2708 6.48925 27.7752 6.59225L27.5274 5.90558C27.9876 5.80259 28.9435 5.59659 30.1472 5.59659ZM30.1472 12.7722C31.3154 12.7722 32.1651 12.4289 32.2005 12.4289L32.3775 12.3602V12.1886V9.71657V9.51057L32.1297 9.47624C32.0589 9.47624 30.7844 9.27024 30.1472 9.27024C29.4391 9.27024 28.8019 9.40757 28.5187 9.6479C28.0938 9.9569 28.0584 10.7466 28.0584 11.0556C28.0584 11.7766 28.2354 12.1886 28.6249 12.4632C28.9435 12.6692 29.3683 12.7722 30.1472 12.7722ZM21.3674 5.59659C23.3854 5.59659 24.1288 6.55792 24.1642 6.59225C24.1642 6.59225 24.8722 7.45058 24.8722 9.4419C24.8722 11.4332 24.4828 12.0512 24.3412 12.2572C23.881 12.9782 22.9605 13.3216 21.5798 13.3559C20.27 13.3559 19.6681 12.8409 19.6681 12.8409L19.2079 12.4289V13.0469V16.1369H18.2166V6.18025C18.5707 6.00858 19.6681 5.59659 21.3674 5.59659ZM21.5444 12.5662C22.3587 12.5662 22.9251 12.3602 23.3145 11.9482C23.8102 11.4332 23.9164 10.7122 23.9164 9.47624C23.9164 8.72091 23.8456 7.34758 23.3145 6.86691C22.9251 6.48925 22.3233 6.28325 21.5444 6.28325C20.5532 6.28325 19.4203 6.62658 19.3495 6.66091L19.1725 6.72958V6.90125V11.6049V11.6736L19.2079 11.7422C19.2433 11.8452 19.8451 12.5662 21.5444 12.5662ZM12.7293 5.59659C14.4286 5.59659 15.4907 6.00858 15.8801 6.14592V16.1025H14.9242V13.0126V12.4289L14.464 12.8409C14.464 12.8409 13.8622 13.3559 12.5523 13.3559C11.1716 13.3559 10.2158 12.9782 9.79093 12.2572C9.64933 12.0169 9.2599 11.4332 9.2599 9.4419C9.2599 7.45058 9.96795 6.59225 9.96795 6.59225C9.96795 6.52358 10.7114 5.59659 12.7293 5.59659ZM12.5523 12.5662C14.2516 12.5662 14.8534 11.8109 14.8534 11.7766L14.8888 11.7079V11.6392V6.93558V6.76391L14.7118 6.69525C14.6764 6.69525 13.5082 6.31758 12.5169 6.31758C11.7735 6.31758 11.1362 6.52358 10.7468 6.90125C10.2158 7.38191 10.145 8.75524 10.145 9.51057C10.145 10.7122 10.2512 11.4332 10.7468 11.9826C11.1362 12.3602 11.7381 12.5662 12.5523 12.5662ZM41.9715 5.83692C41.7945 6.52358 41.2634 8.30891 40.2014 11.0212C39.0331 13.9739 38.1126 15.6562 37.8648 16.1025H36.7674C37.6878 14.5232 37.9002 13.7679 37.9356 13.7679L37.971 13.6992L37.9356 13.6305C37.9356 13.5962 37.3692 11.8452 36.7674 10.1286C36.2717 8.75524 35.5283 6.66091 35.2097 5.83692H36.1301C36.3071 6.24892 36.8028 7.45058 37.263 8.82391C37.8648 10.5062 38.3251 12.2572 38.3251 12.2572L38.5375 13.0126L38.8561 12.2916C38.8561 12.2572 39.6703 10.3346 40.2014 8.72091C40.6262 7.45058 40.9448 6.28325 41.051 5.83692H41.9715ZM6.60474 5.83692V13.1499H5.64889V5.83692H6.60474ZM2.99373 2.23193H1.47144C1.47144 2.23193 1.47144 10.4719 1.47144 11.7079C1.47144 12.9439 2.4627 13.6992 2.4627 13.6992C2.4627 13.6992 2.4627 13.6992 3.56016 13.0126C2.92292 12.4976 2.99373 11.7079 2.99373 11.7079V2.23193ZM6.53394 2.57527H5.68429C5.47188 2.57527 5.29487 2.74693 5.29487 2.95293V3.70826C5.29487 3.91426 5.47188 4.08593 5.68429 4.08593H6.53394C6.74635 4.08593 6.92336 3.91426 6.92336 3.70826V2.9186C6.92336 2.74693 6.74635 2.57527 6.53394 2.57527ZM30.1472 5.35625C28.4125 5.35625 27.2088 5.80258 27.2088 5.80258L27.6336 6.96991C27.6336 6.96991 29.1559 6.62658 30.1826 6.62658C31.2446 6.62658 31.457 6.76391 31.5986 6.86691C32.3067 7.41624 32.0235 8.68657 32.0235 8.68657C32.0235 8.68657 30.9968 8.44624 30.1472 8.44624C29.2621 8.44624 28.2708 8.61791 27.669 9.0299C26.961 9.5449 26.8194 10.4376 26.8194 10.9182C26.8194 11.4332 26.9256 12.7379 27.7044 13.1499C28.3771 13.5276 29.3683 13.6649 30.1472 13.6649C31.8111 13.6649 33.5458 13.0126 33.5458 13.0126V7.86258C33.5458 7.86258 33.5458 6.96991 32.9793 6.24892C32.5191 5.69959 31.8465 5.35625 30.1472 5.35625ZM30.1472 12.4976C29.4391 12.4976 29.0497 12.3946 28.7665 12.2229C28.4479 12.0169 28.3062 11.6736 28.3062 11.0212C28.3062 10.5062 28.4125 9.99123 28.6603 9.81957C28.8727 9.6479 29.4037 9.51057 30.1118 9.51057C30.749 9.51057 32.0589 9.71657 32.0589 9.71657V12.1886C32.0943 12.1542 31.28 12.4976 30.1472 12.4976ZM21.3674 5.35625C19.1725 5.35625 17.9688 6.00858 17.9688 6.00858V16.4115H19.4557V13.0812C19.4557 13.0812 20.093 13.6649 21.5444 13.6649C23.8456 13.6306 24.412 12.6692 24.5536 12.4289C24.6952 12.1886 25.1201 11.5706 25.1201 9.4419C25.1201 7.31324 24.3766 6.42058 24.3766 6.42058C24.3766 6.42058 23.5624 5.35625 21.3674 5.35625ZM21.5444 12.3259C19.9513 12.3259 19.4557 11.6392 19.4557 11.6392V6.93558C19.4557 6.93558 20.5886 6.55791 21.5444 6.55791C22.2525 6.55791 22.7835 6.72958 23.1375 7.07291C23.4562 7.38191 23.6686 8.27457 23.6686 9.51057C23.6686 10.7466 23.5624 11.3646 23.1375 11.8109C22.7835 12.1542 22.2879 12.3259 21.5444 12.3259ZM12.7293 5.35625C10.5344 5.35625 9.72013 6.45492 9.72013 6.45492C9.72013 6.45492 8.97669 7.34758 8.97669 9.47624C8.97669 11.6049 9.40151 12.2229 9.54312 12.4632C9.68473 12.7036 10.2512 13.6649 12.5523 13.6992C14.0392 13.6992 14.641 13.1156 14.641 13.1156V16.4459H16.1279V6.00858C16.1279 6.00858 14.9242 5.35625 12.7293 5.35625ZM12.5523 12.3259C11.8089 12.3259 11.3132 12.1542 10.9592 11.8109C10.5344 11.3646 10.4282 10.7466 10.4282 9.51057C10.4282 8.27457 10.6406 7.38191 10.9592 7.07291C11.3132 6.76391 11.8443 6.55791 12.5523 6.55791C13.5082 6.55791 14.641 6.93558 14.641 6.93558V11.6392C14.641 11.6392 14.11 12.3259 12.5523 12.3259ZM42.3255 5.59659H40.8386C40.8386 5.59659 40.4846 7.00425 39.9181 8.65224C39.3871 10.2659 38.5729 12.2229 38.5729 12.2229C38.5729 12.2229 38.1126 10.4719 37.5108 8.75524C36.909 7.03858 36.2717 5.59659 36.2717 5.59659H34.7848C34.7848 5.59659 35.8469 8.48057 36.4841 10.2316C37.086 11.9482 37.6524 13.7336 37.6524 13.7336C37.6524 13.7336 37.4046 14.5575 36.3071 16.4115C36.6257 16.4115 38.0418 16.4115 38.0418 16.4115C38.0418 16.4115 39.0685 14.6949 40.4846 11.1586C41.8653 7.55358 42.3255 5.59659 42.3255 5.59659ZM6.85256 5.59659H5.36567V13.4246H6.85256V5.59659Z" fill="url(#paint6_linear)"/>
<path d="M2.4264 23.0385H1.9668V19.5022H2.39104V23.0385H2.4264Z" fill="#666666"/>
<path d="M4.58687 20.0857H4.09192V19.6394H4.58687V20.0857ZM4.58687 23.0384H4.16263V20.5321H4.58687V23.0384Z" fill="#666666"/>
<path d="M8.41088 23.9653H7.95065V22.7636C7.80904 22.8666 7.66743 22.9696 7.56123 23.0039C7.41962 23.0726 7.27801 23.0726 7.1364 23.0726C6.81778 23.0726 6.56997 22.9696 6.39296 22.7293C6.21595 22.4889 6.10974 22.1799 6.10974 21.7679C6.10974 21.5619 6.14514 21.356 6.21595 21.1843C6.28675 21.0126 6.35756 20.8753 6.46376 20.7723C6.56997 20.6693 6.67617 20.5663 6.81778 20.532C6.95939 20.4633 7.101 20.429 7.24261 20.429C7.38422 20.429 7.49042 20.429 7.59663 20.4633C7.70284 20.4976 7.80904 20.532 7.91525 20.6006L7.95065 20.4976H8.37548V23.9653H8.41088ZM7.95065 22.3859V20.9783C7.84445 20.9096 7.73824 20.8753 7.63203 20.8753C7.52583 20.841 7.45502 20.841 7.31341 20.841C7.0656 20.841 6.85319 20.9096 6.74698 21.0813C6.60537 21.253 6.53457 21.459 6.53457 21.7679C6.53457 22.0769 6.56997 22.2829 6.67618 22.4546C6.78238 22.6263 6.95939 22.6949 7.1718 22.6949C7.31341 22.6949 7.41962 22.6606 7.56123 22.6263C7.73824 22.5233 7.84445 22.4546 7.95065 22.3859Z" fill="#666666"/>
<path d="M12.2696 23.0378H11.8448V22.7632C11.7032 22.8662 11.5616 22.9692 11.42 23.0378C11.2784 23.1065 11.1368 23.1408 10.9598 23.1408C10.6765 23.1408 10.4641 23.0721 10.3225 22.9005C10.1809 22.7288 10.1101 22.4885 10.1101 22.1795V20.5315H10.5349V21.9735C10.5349 22.1108 10.5349 22.2138 10.5703 22.3168C10.5703 22.4198 10.6057 22.4885 10.6411 22.5572C10.6765 22.6258 10.7473 22.6602 10.8182 22.6945C10.889 22.7288 10.9952 22.7288 11.1014 22.7288C11.2076 22.7288 11.3492 22.6945 11.4554 22.6602C11.597 22.5915 11.7032 22.5228 11.8448 22.4542V20.5658H12.2696V23.0378Z" fill="#666666"/>
<path d="M14.4641 20.0857H13.9691V19.6394H14.4641V20.0857ZM14.4287 23.0384H14.0045V20.5321H14.4287V23.0384Z" fill="#666666"/>
<path d="M18.2527 23.0385H17.8279V22.7639C17.6862 22.8668 17.58 22.9355 17.4384 23.0042C17.2968 23.0728 17.1552 23.1072 16.9782 23.1072C16.6596 23.1072 16.4118 23.0042 16.2348 22.7639C16.0577 22.5235 15.9515 22.2145 15.9515 21.8025C15.9515 21.5965 15.9869 21.3905 16.0577 21.2189C16.1285 21.0472 16.1994 20.9099 16.3056 20.8069C16.4118 20.7039 16.518 20.6009 16.6596 20.5322C16.8012 20.4635 16.9428 20.4292 17.0844 20.4292C17.226 20.4292 17.3322 20.4292 17.4384 20.4635C17.5446 20.4979 17.6508 20.5322 17.757 20.6009V19.5022H18.1819V23.0385H18.2527ZM17.8279 22.4205V20.9785C17.7216 20.9442 17.6154 20.8755 17.5092 20.8755C17.403 20.8412 17.3322 20.8412 17.1906 20.8412C16.9428 20.8412 16.7658 20.9099 16.6242 21.0815C16.4826 21.2532 16.4118 21.4935 16.4118 21.7682C16.4118 22.0772 16.4472 22.2832 16.5534 22.4549C16.6596 22.6265 16.8366 22.6952 17.049 22.6952C17.1906 22.6952 17.2968 22.6609 17.4384 22.6265C17.58 22.5579 17.6862 22.4892 17.8279 22.4205Z" fill="#666666"/>
<path d="M24.7668 21.7333C24.7668 21.9393 24.7314 22.111 24.6606 22.2826C24.5898 22.4543 24.519 22.5916 24.4128 22.729C24.3066 22.832 24.2004 22.935 24.0588 23.0036C23.9172 23.0723 23.7756 23.1066 23.634 23.1066C23.4924 23.1066 23.3862 23.1066 23.2799 23.0723C23.1737 23.038 23.0675 23.0036 22.9613 22.935V23.9993H22.5365V20.566H22.9613V20.8406C23.0675 20.7376 23.2091 20.669 23.3507 20.6003C23.4924 20.5316 23.634 20.4973 23.811 20.4973C24.1296 20.4973 24.3774 20.6003 24.5544 20.8406C24.696 21.0123 24.7668 21.3213 24.7668 21.7333ZM24.342 21.7333C24.342 21.4243 24.2712 21.2183 24.165 21.0466C24.0588 20.9093 23.8818 20.8063 23.6694 20.8063C23.5278 20.8063 23.4216 20.8406 23.2799 20.875C23.1383 20.9436 23.0321 21.0123 22.9259 21.081V22.523C23.0675 22.5916 23.1737 22.626 23.2445 22.626C23.3507 22.6603 23.4216 22.6603 23.5632 22.6603C23.811 22.6603 23.988 22.5916 24.1296 22.42C24.2712 22.2826 24.342 22.0423 24.342 21.7333Z" fill="#666666"/>
<path d="M28.3423 23.0383H27.9174V22.7636C27.882 22.7979 27.8112 22.8323 27.7758 22.8666C27.705 22.9009 27.6342 22.9353 27.5988 22.9696C27.528 23.0039 27.4572 23.0383 27.351 23.0726C27.2448 23.1069 27.1386 23.1069 27.0324 23.1069C26.7846 23.1069 26.6076 23.0383 26.4306 22.8666C26.2535 22.7293 26.1827 22.5233 26.1827 22.2829C26.1827 22.0769 26.2181 21.9396 26.3243 21.8366C26.3952 21.7336 26.5368 21.6306 26.6784 21.562C26.82 21.4933 27.0324 21.459 27.2448 21.4246C27.4572 21.3903 27.705 21.3903 27.9528 21.356V21.2873C27.9528 21.1843 27.9528 21.1156 27.9174 21.047C27.882 20.9783 27.8466 20.944 27.7758 20.9096C27.705 20.8753 27.6342 20.841 27.5634 20.841C27.4926 20.841 27.3864 20.8066 27.2802 20.8066C27.174 20.8066 27.0324 20.8066 26.8908 20.841C26.7492 20.8753 26.6076 20.9096 26.466 20.9783H26.3597V20.532C26.4306 20.4976 26.5722 20.4976 26.7138 20.4633C26.8908 20.429 27.0324 20.429 27.174 20.429C27.351 20.429 27.528 20.429 27.6342 20.4633C27.7758 20.4976 27.882 20.532 27.9882 20.6006C28.0945 20.6693 28.1653 20.7723 28.2007 20.8753C28.2361 20.9783 28.2715 21.1156 28.2715 21.2873V23.0383H28.3423ZM27.882 22.4203V21.7336C27.7404 21.7336 27.5988 21.7679 27.4218 21.7679C27.2448 21.7679 27.1032 21.8023 26.997 21.8366C26.8554 21.8709 26.7846 21.9396 26.6784 22.0083C26.6076 22.0769 26.5722 22.1799 26.5722 22.3173C26.5722 22.4546 26.6076 22.5576 26.7138 22.6263C26.82 22.6949 26.9262 22.7293 27.1386 22.7293C27.2802 22.7293 27.4218 22.6949 27.5634 22.6263C27.6696 22.5576 27.7758 22.4889 27.882 22.4203Z" fill="#666666"/>
<path d="M32.2366 20.4975L30.7143 23.9308H30.2541L30.7497 22.8665L29.723 20.4631H30.1833L30.9975 22.3171L31.8117 20.4631H32.2366V20.4975Z" fill="#666666"/>
<path d="M37.4406 23.0378H37.0158V21.5958C37.0158 21.4928 37.0158 21.3898 37.0158 21.2868C37.0158 21.1838 36.9804 21.1152 36.945 21.0465C36.9096 20.9778 36.8742 20.9435 36.8034 20.9092C36.7326 20.8748 36.6264 20.8748 36.5202 20.8748C36.4139 20.8748 36.2723 20.9092 36.1661 20.9778C36.0599 21.0465 35.9183 21.1152 35.8121 21.2182C35.8121 21.2525 35.8121 21.2868 35.8121 21.3555C35.8121 21.3898 35.8121 21.4585 35.8121 21.4928V23.1065H35.3873V21.6645C35.3873 21.5615 35.3873 21.4585 35.3873 21.3555C35.3873 21.2525 35.3519 21.1838 35.3165 21.1152C35.2811 21.0465 35.2457 21.0122 35.1749 20.9778C35.1041 20.9435 34.9979 20.9435 34.8917 20.9435C34.7855 20.9435 34.6438 20.9778 34.5376 21.0122C34.4314 21.0808 34.2898 21.1495 34.1836 21.2182V23.1065H33.7588V20.6002H34.1836V20.8748C34.3252 20.7718 34.4668 20.6688 34.6084 20.6345C34.75 20.5658 34.8917 20.5315 35.0333 20.5315C35.2103 20.5315 35.3519 20.5658 35.4935 20.6345C35.5997 20.7032 35.7059 20.8062 35.7767 20.9435C35.9537 20.8062 36.1307 20.7032 36.2723 20.6345C36.4139 20.5658 36.591 20.5315 36.7326 20.5315C37.0158 20.5315 37.2282 20.6002 37.3698 20.7718C37.5114 20.9435 37.5822 21.1838 37.5822 21.4585V23.0378H37.4406Z" fill="#666666"/>
<path d="M41.2994 21.8019H39.3877C39.3877 21.9736 39.4231 22.0766 39.4585 22.2139C39.4939 22.3169 39.5647 22.4199 39.6709 22.4886C39.7417 22.5573 39.8479 22.6259 39.9542 22.6603C40.0604 22.6946 40.202 22.7289 40.3082 22.7289C40.4852 22.7289 40.6622 22.6946 40.8392 22.6259C41.0162 22.5573 41.1578 22.4886 41.2286 22.4199H41.264V22.8663C41.1224 22.9349 40.9808 22.9693 40.8038 23.0036C40.6622 23.0379 40.4852 23.0723 40.3082 23.0723C39.8833 23.0723 39.5293 22.9693 39.3169 22.7289C39.0691 22.4886 38.9629 22.1796 38.9629 21.7676C38.9629 21.3556 39.0691 21.0123 39.3169 20.772C39.5647 20.5316 39.8479 20.3943 40.2374 20.3943C40.5914 20.3943 40.8746 20.4973 41.0516 20.7033C41.2286 20.9093 41.3348 21.184 41.3348 21.5616V21.8019H41.2994ZM40.8746 21.4929C40.8746 21.2869 40.8038 21.1153 40.6976 20.978C40.5914 20.8406 40.4144 20.8063 40.1666 20.8063C39.9187 20.8063 39.7417 20.875 39.6001 21.0123C39.4585 21.1496 39.3877 21.3213 39.3523 21.5273H40.8746V21.4929Z" fill="#666666"/>
<path d="M45.0166 23.0381H44.5918V21.5961C44.5918 21.4931 44.5918 21.3558 44.5564 21.2871C44.5564 21.1841 44.521 21.1155 44.4856 21.0468C44.4502 20.9781 44.3793 20.9438 44.3085 20.9095C44.2377 20.8751 44.1315 20.8751 44.0253 20.8751C43.9191 20.8751 43.7775 20.9095 43.6359 20.9438C43.4943 21.0125 43.3881 21.0811 43.2465 21.1498V23.0381H42.8217V20.5318H43.2465V20.8065C43.3881 20.7035 43.5297 20.6005 43.6713 20.5661C43.8129 20.4975 43.9545 20.4631 44.1315 20.4631C44.4147 20.4631 44.6272 20.5318 44.7688 20.7035C44.9104 20.8751 44.9812 21.1155 44.9812 21.4245V23.0381H45.0166Z" fill="#666666"/>
<path d="M48.0606 23.0039C47.9898 23.0383 47.8836 23.0383 47.7775 23.0726C47.6713 23.0726 47.6006 23.1069 47.5298 23.1069C47.2821 23.1069 47.0698 23.0383 46.9283 22.9009C46.7867 22.7636 46.7159 22.5576 46.7159 22.2486V20.9096H46.4329V20.5663H46.7159V19.7766H47.1406V20.4976H48.0252V20.8409H47.1406V21.9739C47.1406 22.1113 47.1406 22.2143 47.1406 22.2829C47.1406 22.3516 47.1759 22.4203 47.2113 22.4889C47.2467 22.5576 47.2821 22.5919 47.3529 22.6263C47.4236 22.6606 47.4944 22.6606 47.6359 22.6606C47.7067 22.6606 47.7775 22.6606 47.8483 22.6263C47.919 22.5919 47.9898 22.5919 48.0252 22.5919H48.0606V23.0039Z" fill="#666666"/>
<path d="M51.2819 22.2828C51.2819 22.5231 51.1758 22.6948 50.9989 22.8321C50.7866 22.9694 50.5389 23.0381 50.185 23.0381C50.0081 23.0381 49.8312 23.0038 49.6542 22.9694C49.4773 22.9351 49.3712 22.8664 49.265 22.8321V22.3514H49.3004C49.4419 22.4544 49.5835 22.5231 49.7604 22.5918C49.9373 22.6604 50.0789 22.6948 50.2558 22.6948C50.4327 22.6948 50.6096 22.6604 50.7158 22.5918C50.8219 22.5231 50.8927 22.4201 50.8927 22.3171C50.8927 22.2141 50.8573 22.1454 50.8219 22.0768C50.7512 22.0424 50.645 21.9738 50.4681 21.9394C50.3973 21.9394 50.3266 21.9051 50.2204 21.9051C50.1142 21.8708 50.0435 21.8708 49.9373 21.8364C49.725 21.7678 49.5481 21.6991 49.4419 21.5618C49.3358 21.4588 49.3004 21.3214 49.3004 21.1498C49.3004 21.0468 49.3358 20.9438 49.3712 20.8408C49.4066 20.7378 49.4773 20.6691 49.5835 20.6004C49.6542 20.5318 49.7958 20.4631 49.9019 20.4288C50.0435 20.3944 50.185 20.3601 50.3619 20.3601C50.5035 20.3601 50.6804 20.3944 50.8219 20.4288C50.9635 20.4631 51.105 20.4974 51.2112 20.5661V21.0124H51.1758C51.0696 20.9438 50.9281 20.8751 50.7866 20.8064C50.6096 20.7378 50.4681 20.7378 50.3266 20.7378C50.1496 20.7378 50.0435 20.7721 49.9373 20.8408C49.8312 20.9094 49.7604 20.9781 49.7604 21.1154C49.7604 21.2184 49.7958 21.2871 49.8666 21.3558C49.9373 21.4244 50.0435 21.4588 50.185 21.4931C50.2558 21.5274 50.3619 21.5274 50.4681 21.5618C50.5743 21.5961 50.645 21.5961 50.7158 21.5961C50.9281 21.6304 51.0696 21.7334 51.1758 21.8364C51.2466 21.9738 51.2819 22.1111 51.2819 22.2828Z" fill="#666666"/>
<defs>
<linearGradient id="paint0_linear" x1="50.0915" y1="16.5079" x2="50.0915" y2="3.68911" gradientUnits="userSpaceOnUse">
<stop stop-color="#4B7B00"/>
<stop offset="1" stop-color="#8EE200"/>
</linearGradient>
<linearGradient id="paint1_linear" x1="50.0915" y1="16.5079" x2="50.0915" y2="3.68911" gradientUnits="userSpaceOnUse">
<stop stop-color="#3A5E00"/>
<stop offset="1" stop-color="#73B700"/>
</linearGradient>
<linearGradient id="paint2_linear" x1="50.125" y1="14.8311" x2="50.125" y2="5.35594" gradientUnits="userSpaceOnUse">
<stop stop-color="#3A5E00"/>
<stop offset="1" stop-color="#73B700"/>
</linearGradient>
<linearGradient id="paint3_linear" x1="73.0899" y1="13.5689" x2="73.0899" y2="5.46133" gradientUnits="userSpaceOnUse">
<stop stop-color="#4D4D4D"/>
<stop offset="1" stop-color="#B3B3B3"/>
</linearGradient>
<linearGradient id="paint4_linear" x1="73.0895" y1="13.6973" x2="73.0895" y2="5.33329" gradientUnits="userSpaceOnUse">
<stop stop-color="#262626"/>
<stop offset="1" stop-color="#999999"/>
</linearGradient>
<linearGradient id="paint5_linear" x1="21.8858" y1="16.2569" x2="21.8858" y2="2.36406" gradientUnits="userSpaceOnUse">
<stop stop-color="#4B7B00"/>
<stop offset="1" stop-color="#8EE200"/>
</linearGradient>
<linearGradient id="paint6_linear" x1="21.904" y1="16.3851" x2="21.904" y2="2.23592" gradientUnits="userSpaceOnUse">
<stop stop-color="#3A5E00"/>
<stop offset="1" stop-color="#73B700"/>
</linearGradient>
</defs>
</svg>
