<svg width="45" height="26" viewBox="0 0 45 26" fill="none" xmlns="http://www.w3.org/2000/svg">
<path fill-rule="evenodd" clip-rule="evenodd" d="M30.9475 25.6071L31.6326 25.5843L32.294 25.5387L32.9554 25.4475L33.6169 25.3335L34.2547 25.1967L34.8925 25.0371L35.5067 24.8318L36.0973 24.6038L36.6878 24.3302L37.2548 24.0566L37.8217 23.7601L38.365 23.4181L38.8847 23.0533L39.3808 22.6884L39.8533 22.278L40.3257 21.8448L40.7509 21.4115L41.1761 20.9555L41.5541 20.4539L41.9321 19.975L42.2864 19.4506L42.5935 18.9033L42.9006 18.3561L43.1604 17.786L43.3967 17.216L43.6093 16.6231L43.7746 16.0075L43.94 15.3918L44.0345 14.7533L44.129 14.1149L44.1762 13.4764L44.1999 12.8152L44.1762 12.1539L44.129 11.5155L44.0345 10.877L43.94 10.2385L43.7746 9.62289L43.6093 9.03004L43.3967 8.43719L43.1604 7.86714L42.9006 7.29709L42.5935 6.74984L42.2864 6.22539L41.9321 5.70095L41.5541 5.1993L41.1761 4.72046L40.7509 4.24162L40.3257 3.80838L39.8533 3.37514L39.3808 2.98751L38.8847 2.59987L38.365 2.25784L37.8217 1.91581L37.2548 1.61939L36.6878 1.32296L36.0973 1.07214L35.5067 0.844116L34.8925 0.638898L34.2547 0.479284L33.6169 0.31967L32.9554 0.20566L32.294 0.137254L31.6326 0.0916497L30.9475 0.0688477L30.2625 0.0916497L29.601 0.137254L28.9396 0.20566L28.2782 0.31967L27.6403 0.479284L27.0262 0.638898L26.412 0.844116L25.7978 1.07214L25.2072 1.32296L24.6403 1.61939L24.0969 1.91581L23.5536 2.25784L23.0339 2.59987L22.5378 2.98751L22.0654 3.37514L21.6166 3.80838L21.1677 4.24162L20.7661 4.72046L20.3645 5.1993L19.9866 5.70095L19.6559 6.22539L19.3488 6.74984L19.0417 7.29709L18.7818 7.86714L18.5456 8.43719L18.333 9.03004L18.1676 9.62289L18.0023 10.2385L17.9078 10.877L17.8133 11.5155L17.7661 12.1539L17.7424 12.8152L17.7661 13.4764L17.8133 14.1149L17.9078 14.7533L18.0023 15.3918L18.1676 16.0075L18.333 16.6231L18.5456 17.216L18.7818 17.786L19.0417 18.3561L19.3488 18.9033L19.6559 19.4506L19.9866 19.975L20.3645 20.4539L20.7661 20.9555L21.1677 21.4115L21.6166 21.8448L22.0654 22.278L22.5378 22.6884L23.0339 23.0533L23.5536 23.4181L24.0969 23.7601L24.6403 24.0566L25.2072 24.3302L25.7978 24.6038L26.412 24.8318L27.0262 25.0371L27.6403 25.1967L28.2782 25.3335L28.9396 25.4475L29.601 25.5387L30.2625 25.5843L30.9475 25.6071Z" fill="#FAB51D"/>
<path fill-rule="evenodd" clip-rule="evenodd" d="M13.254 25.6074L13.9391 25.5846L14.6005 25.5389L15.262 25.4477L15.9234 25.3337L16.5612 25.1969L17.1754 25.0373L17.7896 24.8321L18.4038 24.6041L18.9707 24.3304L19.5377 24.0568L20.1046 23.7604L20.6243 23.4184L21.144 23.0535L21.6637 22.6887L22.1362 22.2783L22.585 21.845L23.0338 21.4118L23.4354 20.9557L23.837 20.4541L24.1913 19.9753L24.5457 19.4508L24.8528 18.9036L25.1599 18.3563L25.4197 17.7863L25.656 17.2162L25.8686 16.6234L26.0339 16.0077L26.1757 15.392L26.2938 14.7536L26.3883 14.1151L26.4355 13.4767L26.4591 12.8154L26.4355 12.1542L26.3883 11.5157L26.2938 10.8772L26.1757 10.2388L26.0339 9.62314L25.8686 9.03028L25.656 8.43743L25.4197 7.86738L25.1599 7.29733L24.8528 6.75008L24.5457 6.22564L24.1913 5.70119L23.837 5.19955L23.4354 4.7207L23.0338 4.24186L22.585 3.80862L22.1362 3.37538L21.6637 2.98775L21.144 2.60012L20.6243 2.25809L20.1046 1.91606L19.5377 1.61963L18.9707 1.3232L18.4038 1.07238L17.7896 0.84436L17.1754 0.639142L16.5612 0.479528L15.9234 0.319914L15.262 0.205904L14.6005 0.137498L13.9391 0.0918938L13.254 0.0690918L12.569 0.0918938L11.9075 0.137498L11.2461 0.205904L10.5847 0.319914L9.94686 0.479528L9.30905 0.639142L8.69486 0.84436L8.10429 1.07238L7.51373 1.3232L6.92316 1.61963L6.37984 1.91606L5.83651 2.25809L5.31682 2.60012L4.82074 2.98775L4.34828 3.37538L3.87583 3.80862L3.45062 4.24186L3.02541 4.7207L2.62383 5.19955L2.26949 5.70119L1.91515 6.22564L1.60805 6.75008L1.30096 7.29733L1.04111 7.86738L0.804881 8.43743L0.592276 9.03028L0.426917 9.62314L0.261559 10.2388L0.143445 10.8772L0.0725771 11.5157L0.0253317 12.1542L0.00170898 12.8154L0.0253317 13.4767L0.0725771 14.1151L0.143445 14.7536L0.261559 15.392L0.426917 16.0077L0.592276 16.6234L0.804881 17.2162L1.04111 17.7863L1.30096 18.3563L1.60805 18.9036L1.91515 19.4508L2.26949 19.9753L2.62383 20.4541L3.02541 20.9557L3.45062 21.4118L3.87583 21.845L4.34828 22.2783L4.82074 22.6887L5.31682 23.0535L5.83651 23.4184L6.37984 23.7604L6.92316 24.0568L7.51373 24.3304L8.10429 24.6041L8.69486 24.8321L9.30905 25.0373L9.94686 25.1969L10.5847 25.3337L11.2461 25.4477L11.9075 25.5389L12.569 25.5846L13.254 25.6074Z" fill="#E40520"/>
<path fill-rule="evenodd" clip-rule="evenodd" d="M20.5535 4.97086H27.5694V4.2644H21.1677L20.5535 4.97086Z" fill="#FAB51D"/>
<path fill-rule="evenodd" clip-rule="evenodd" d="M19.4904 6.49837H27.5693V5.8147H19.9156L19.4904 6.49837Z" fill="#FAB51D"/>
<path fill-rule="evenodd" clip-rule="evenodd" d="M18.7111 8.04899H27.5696V7.34253H19.0182L18.7111 8.04899Z" fill="#FAB51D"/>
<path fill-rule="evenodd" clip-rule="evenodd" d="M18.1675 9.57674H27.5693V8.89307H18.4037L18.1675 9.57674Z" fill="#FAB51D"/>
<path fill-rule="evenodd" clip-rule="evenodd" d="M18.4747 17.0333H27.5931V16.3496H18.2621L18.4747 17.0333Z" fill="#FAB51D"/>
<path fill-rule="evenodd" clip-rule="evenodd" d="M19.1598 18.5837H27.5931V17.8772H18.8291L19.1598 18.5837Z" fill="#FAB51D"/>
<path fill-rule="evenodd" clip-rule="evenodd" d="M20.1046 20.1112H27.593V19.4275H19.6558L20.1046 20.1112Z" fill="#FAB51D"/>
<path fill-rule="evenodd" clip-rule="evenodd" d="M21.4037 21.6618H27.5929V20.9553H20.7896L21.4037 21.6618Z" fill="#FAB51D"/>
<path fill-rule="evenodd" clip-rule="evenodd" d="M17.8602 11.1269H27.5692V10.4204H18.002L17.8602 11.1269Z" fill="#FAB51D"/>
<path fill-rule="evenodd" clip-rule="evenodd" d="M23.7898 15.5053H27.4986V14.7988H23.9079L23.7898 15.5053Z" fill="#FAB51D"/>
<path fill-rule="evenodd" clip-rule="evenodd" d="M24.0732 13.9547H27.4985V13.271H24.215L24.0732 13.9547Z" fill="#FAB51D"/>
<path fill-rule="evenodd" clip-rule="evenodd" d="M17.6007 13.271H18.5679V13.9547H17.6479L17.6007 13.271Z" fill="#FAB51D"/>
<path fill-rule="evenodd" clip-rule="evenodd" d="M15.8054 12.427H15.7581L15.6873 12.4042H15.64H15.5692L15.5219 12.3814H15.451L15.4038 12.3586H15.3329H15.2857L15.2148 12.3358H15.1203H15.0495H14.955H14.8369L14.7187 12.3586H14.6006L14.5061 12.3814H14.4353L14.3408 12.4042L14.2935 12.427L14.2227 12.4726L14.1518 12.4954L14.1282 12.541L14.0809 12.5866L14.0573 12.6322L14.0337 12.6778L14.0101 12.7234V12.7918L14.0337 12.8375L14.0573 12.8831L14.0809 12.9515L14.1282 12.9971L14.2227 13.0883L14.3172 13.1567L14.4589 13.2023L14.577 13.2479L14.7187 13.2935L14.8841 13.3391L15.0258 13.4075L15.1676 13.4531L15.3093 13.5215L15.4274 13.6127L15.5455 13.7267L15.64 13.8635L15.7109 14.0232L15.7345 14.2056L15.7581 14.4564L15.7345 14.73L15.7109 14.9124L15.6636 15.0949L15.5928 15.2545L15.4983 15.4141L15.4038 15.5281L15.2857 15.6421L15.1676 15.7333L15.0258 15.8017L14.8841 15.8701L14.7187 15.9385L14.577 15.9841L14.4116 16.0069L14.2699 16.0297L14.1282 16.0525H13.9864H13.8447H13.6557H13.4667H13.3014H13.1596H13.0179L12.8998 16.0297H12.8053H12.6872L12.6163 16.0069L12.5218 15.9841H12.4273L12.3565 15.9613L12.2856 15.9385L12.2147 15.9157L12.1439 15.8929L12.073 15.8701L12.262 14.9124H12.3092L12.3565 14.9352L12.4273 14.958H12.4982L12.5691 14.9808L12.6636 15.0036L12.7581 15.0264L12.8762 15.0492H12.9707L13.0888 15.0721L13.2069 15.0949H13.3486L13.4667 15.1177H13.6085H13.7266H13.8683L13.9864 15.0721L14.0809 15.0492L14.1754 15.0036L14.2227 14.9352L14.2699 14.8668L14.3172 14.7984L14.3408 14.73L14.3644 14.6844V14.5476L14.3172 14.4336L14.2463 14.3652L14.1282 14.274L14.0101 14.2284L13.8447 14.16L13.6793 14.0916L13.4904 14.0232L13.325 13.9548L13.1596 13.8635L12.9943 13.7495L12.8525 13.6127L12.7344 13.4531L12.6636 13.2479L12.6163 13.0199V12.7462L12.6399 12.5866L12.6872 12.427L12.7108 12.2674L12.7817 12.1306L12.8525 12.0166L12.9234 11.9026L13.0179 11.7886L13.136 11.6974L13.2541 11.6061L13.3959 11.5377L13.5612 11.4693L13.7502 11.4237L13.9392 11.4009L14.1518 11.3553L14.4116 11.3325H14.6715H14.8369H14.9786L15.1203 11.3553H15.2384H15.3566L15.451 11.3781H15.5455H15.64L15.7109 11.4009H15.7581L15.829 11.4237H15.8763H15.9235L15.9707 11.4465H15.9944H16.0416L15.8054 12.427Z" fill="white"/>
<path d="M15.8054 12.427H15.7581L15.6873 12.4042H15.64H15.5692L15.5219 12.3814H15.451L15.4038 12.3586H15.3329H15.2857L15.2148 12.3358H15.1203H15.0495H14.955H14.8369L14.7187 12.3586H14.6006L14.5061 12.3814H14.4353L14.3408 12.4042L14.2935 12.427L14.2227 12.4726L14.1518 12.4954L14.1282 12.541L14.0809 12.5866L14.0573 12.6322L14.0337 12.6778L14.0101 12.7234V12.7918L14.0337 12.8375L14.0573 12.8831L14.0809 12.9515L14.1282 12.9971L14.2227 13.0883L14.3172 13.1567L14.4589 13.2023L14.577 13.2479L14.7187 13.2935L14.8841 13.3391L15.0258 13.4075L15.1676 13.4531L15.3093 13.5215L15.4274 13.6127L15.5455 13.7267L15.64 13.8635L15.7109 14.0232L15.7345 14.2056L15.7581 14.4564L15.7345 14.73L15.7109 14.9124L15.6636 15.0949L15.5928 15.2545L15.4983 15.4141L15.4038 15.5281L15.2857 15.6421L15.1676 15.7333L15.0258 15.8017L14.8841 15.8701L14.7187 15.9385L14.577 15.9841L14.4116 16.0069L14.2699 16.0297L14.1282 16.0525H13.9864H13.8447H13.6557H13.4667H13.3014H13.1596H13.0179L12.8998 16.0297H12.8053H12.6872L12.6163 16.0069L12.5218 15.9841H12.4273L12.3565 15.9613L12.2856 15.9385L12.2147 15.9157L12.1439 15.8929L12.073 15.8701L12.262 14.9124H12.3092L12.3565 14.9352L12.4273 14.958H12.4982L12.5691 14.9808L12.6636 15.0036L12.7581 15.0264L12.8762 15.0492H12.9707L13.0888 15.0721L13.2069 15.0949H13.3486L13.4667 15.1177H13.6085H13.7266H13.8683L13.9864 15.0721L14.0809 15.0492L14.1754 15.0036L14.2227 14.9352L14.2699 14.8668L14.3172 14.7984L14.3408 14.73L14.3644 14.6844V14.5476L14.3172 14.4336L14.2463 14.3652L14.1282 14.274L14.0101 14.2284L13.8447 14.16L13.6793 14.0916L13.4904 14.0232L13.325 13.9548L13.1596 13.8635L12.9943 13.7495L12.8525 13.6127L12.7344 13.4531L12.6636 13.2479L12.6163 13.0199V12.7462L12.6399 12.5866L12.6872 12.427L12.7108 12.2674L12.7817 12.1306L12.8525 12.0166L12.9234 11.9026L13.0179 11.7886L13.136 11.6974L13.2541 11.6061L13.3959 11.5377L13.5612 11.4693L13.7502 11.4237L13.9392 11.4009L14.1518 11.3553L14.4116 11.3325H14.6715H14.8369H14.9786L15.1203 11.3553H15.2384H15.3566L15.451 11.3781H15.5455H15.64L15.7109 11.4009H15.7581L15.829 11.4237H15.8763H15.9235L15.9707 11.4465H15.9944H16.0416L15.8054 12.427Z" stroke="white" stroke-width="0.216" stroke-miterlimit="2.6131"/>
<path fill-rule="evenodd" clip-rule="evenodd" d="M16.8684 10.3979H18.0968L17.9314 11.424H18.6637L18.4984 12.4045L17.7188 12.3817L17.2936 14.7759V14.8671L17.3173 14.9356L17.3645 15.004L17.4117 15.0496L17.5062 15.0724L17.5771 15.0952L17.6716 15.118H17.7897H17.8842H17.9787L18.0496 15.0952H18.1204L18.1913 15.0724L18.2149 15.0496H18.2622L18.0968 15.8476L18.0732 15.8704L18.0496 15.8932H18.0023L17.9787 15.916L17.9551 15.9388H17.9078L17.8842 15.9616H17.837L17.7897 15.9844H17.7425L17.6952 16.0072H17.648H17.5771L17.5062 16.03H17.4354H17.3645H17.0338H16.8448L16.7031 16.0072L16.5377 15.9844L16.4196 15.9616L16.3251 15.916L16.2306 15.8704L16.1597 15.8248L16.1125 15.7564L16.0653 15.7108L16.0416 15.6424L16.018 15.5512L15.9944 15.4828V15.3916V15.3004V15.1864L16.018 15.0952L16.8684 10.3979Z" fill="white"/>
<path d="M16.8684 10.3979H18.0968L17.9314 11.424H18.6637L18.4984 12.4045L17.7188 12.3817L17.2936 14.7759V14.8671L17.3173 14.9356L17.3645 15.004L17.4117 15.0496L17.5062 15.0724L17.5771 15.0952L17.6716 15.118H17.7897H17.8842H17.9787L18.0496 15.0952H18.1204L18.1913 15.0724L18.2149 15.0496H18.2622L18.0968 15.8476L18.0732 15.8704L18.0496 15.8932H18.0023L17.9787 15.916L17.9551 15.9388H17.9078L17.8842 15.9616H17.837L17.7897 15.9844H17.7425L17.6952 16.0072H17.648H17.5771L17.5062 16.03H17.4354H17.3645H17.0338H16.8448L16.7031 16.0072L16.5377 15.9844L16.4196 15.9616L16.3251 15.916L16.2306 15.8704L16.1597 15.8248L16.1125 15.7564L16.0653 15.7108L16.0416 15.6424L16.018 15.5512L15.9944 15.4828V15.3916V15.3004V15.1864L16.018 15.0952L16.8684 10.3979Z" stroke="white" stroke-width="0.216" stroke-miterlimit="2.6131"/>
<path fill-rule="evenodd" clip-rule="evenodd" d="M19.6558 14.0232L19.6322 14.0916V14.1828L19.6558 14.2512V14.3424L19.7031 14.4108L19.7267 14.502L19.7739 14.5704L19.8212 14.6616L19.892 14.73L19.9629 14.7984L20.0338 14.8668L20.1046 14.9124L20.1991 14.958L20.2936 15.0036L20.3645 15.0264L20.459 15.0492H20.5771L20.6952 15.0721L20.8133 15.0949H20.9314H21.0259H21.1677H21.2622H21.4039L21.522 15.0721L21.6401 15.0492L21.7582 15.0264L21.8763 14.9808L21.9945 14.9352L22.1362 14.8896L22.2543 14.8212L22.396 14.73L22.2071 15.8017L22.1362 15.8245L22.0653 15.8701L21.9945 15.8929L21.9236 15.9157L21.8527 15.9385L21.7819 15.9613L21.711 15.9841H21.6401L21.5693 16.0069H21.4748L21.3803 16.0297H21.2858H21.1677H21.0496H20.9078H20.7661H20.5299L20.3173 16.0069L20.081 15.9841L19.8684 15.9385L19.6558 15.8701L19.4432 15.7789L19.2306 15.6877L19.0416 15.5509L18.8763 15.4141L18.7345 15.2317L18.5928 15.0264L18.4983 14.7984L18.4038 14.5476L18.3566 14.2512V13.9548L18.3802 13.5899V13.4531L18.4274 13.2935L18.4511 13.1339L18.4983 12.9515L18.5692 12.769L18.64 12.5638L18.7582 12.3814L18.8763 12.199L19.018 12.0394L19.1834 11.857L19.396 11.7202L19.6086 11.5833L19.8684 11.4921L20.1519 11.4009L20.4826 11.3553L20.8369 11.3325H21.0259L21.1913 11.3553L21.3803 11.4009L21.5693 11.4237L21.7582 11.4921L21.9236 11.5833L22.089 11.6746L22.2307 11.7886L22.3724 11.9482L22.4669 12.1078L22.5614 12.313L22.6323 12.541L22.6559 12.7918V13.0883L22.6323 13.4303L22.5614 13.7951L22.5378 14.046H19.3015L19.4905 13.2023H21.4511V13.0883V12.9971V12.8831L21.4275 12.8147L21.4039 12.7234L21.3567 12.655L21.333 12.5866L21.2858 12.5182L21.2149 12.4726L21.1677 12.427L21.0968 12.4042L21.0259 12.3586L20.9551 12.3358L20.8842 12.313H20.8133L20.7425 12.2902H20.648L20.5771 12.313L20.4826 12.3358L20.4117 12.3586L20.3409 12.3814L20.27 12.427L20.1991 12.4726L20.1519 12.5182L20.081 12.5866L20.0338 12.655L19.9865 12.7234L19.9393 12.7918L19.9157 12.8603L19.8684 12.9515L19.8448 13.0427L19.8212 13.1339L19.6558 14.0232Z" fill="white"/>
<path d="M19.6558 14.0232L19.6322 14.0916V14.1828L19.6558 14.2512V14.3424L19.7031 14.4108L19.7267 14.502L19.7739 14.5704L19.8212 14.6616L19.892 14.73L19.9629 14.7984L20.0338 14.8668L20.1046 14.9124L20.1991 14.958L20.2936 15.0036L20.3645 15.0264L20.459 15.0492H20.5771L20.6952 15.0721L20.8133 15.0949H20.9314H21.0259H21.1677H21.2622H21.4039L21.522 15.0721L21.6401 15.0492L21.7582 15.0264L21.8763 14.9808L21.9945 14.9352L22.1362 14.8896L22.2543 14.8212L22.396 14.73L22.2071 15.8017L22.1362 15.8245L22.0653 15.8701L21.9945 15.8929L21.9236 15.9157L21.8527 15.9385L21.7819 15.9613L21.711 15.9841H21.6401L21.5693 16.0069H21.4748L21.3803 16.0297H21.2858H21.1677H21.0496H20.9078H20.7661H20.5299L20.3173 16.0069L20.081 15.9841L19.8684 15.9385L19.6558 15.8701L19.4432 15.7789L19.2306 15.6877L19.0416 15.5509L18.8763 15.4141L18.7345 15.2317L18.5928 15.0264L18.4983 14.7984L18.4038 14.5476L18.3566 14.2512V13.9548L18.3802 13.5899V13.4531L18.4274 13.2935L18.4511 13.1339L18.4983 12.9515L18.5692 12.769L18.64 12.5638L18.7582 12.3814L18.8763 12.199L19.018 12.0394L19.1834 11.857L19.396 11.7202L19.6086 11.5833L19.8684 11.4921L20.1519 11.4009L20.4826 11.3553L20.8369 11.3325H21.0259L21.1913 11.3553L21.3803 11.4009L21.5693 11.4237L21.7582 11.4921L21.9236 11.5833L22.089 11.6746L22.2307 11.7886L22.3724 11.9482L22.4669 12.1078L22.5614 12.313L22.6323 12.541L22.6559 12.7918V13.0883L22.6323 13.4303L22.5614 13.7951L22.5378 14.046H19.3015L19.4905 13.2023H21.4511V13.0883V12.9971V12.8831L21.4275 12.8147L21.4039 12.7234L21.3567 12.655L21.333 12.5866L21.2858 12.5182L21.2149 12.4726L21.1677 12.427L21.0968 12.4042L21.0259 12.3586L20.9551 12.3358L20.8842 12.313H20.8133L20.7425 12.2902H20.648L20.5771 12.313L20.4826 12.3358L20.4117 12.3586L20.3409 12.3814L20.27 12.427L20.1991 12.4726L20.1519 12.5182L20.081 12.5866L20.0338 12.655L19.9865 12.7234L19.9393 12.7918L19.9157 12.8603L19.8684 12.9515L19.8448 13.0427L19.8212 13.1339L19.6558 14.0232Z" stroke="white" stroke-width="0.216" stroke-miterlimit="2.6131"/>
<path fill-rule="evenodd" clip-rule="evenodd" d="M30.286 11.6976L30.2388 11.652L30.1679 11.6292L30.1207 11.6064L30.0498 11.5607L29.979 11.5379L29.9081 11.5151L29.8372 11.4923L29.7427 11.4695L29.6719 11.4467L29.5774 11.4239L29.4829 11.4011H29.3884H29.2939L29.1994 11.3783H29.0813H28.9632H28.8687L28.7506 11.4011H28.6325L28.4907 11.4239L28.3726 11.4695L28.2545 11.5151L28.1128 11.5607L27.9946 11.652L27.8765 11.7432L27.7584 11.8572L27.6403 11.994L27.5458 12.1536L27.4513 12.336L27.3568 12.564L27.2623 12.7921L27.1915 13.0657L27.1679 13.2253L27.1442 13.3849V13.5217V13.6813L27.1679 13.8181L27.1915 13.955L27.2387 14.0918L27.286 14.2058L27.3568 14.3426L27.4277 14.4338L27.5222 14.5478L27.6167 14.639L27.7584 14.7074L27.8765 14.7758L28.0419 14.8214L28.2072 14.867L28.2545 14.8898H28.3254L28.4199 14.9126H28.4907H28.6088H28.7033H28.8214H28.9159L29.034 14.8898L29.1522 14.867L29.2703 14.8442L29.3884 14.8214L29.4829 14.7758L29.601 14.7074L29.6955 14.639L29.7663 14.5706L29.5774 15.7107L29.5537 15.7335L29.5301 15.7563L29.4829 15.8019L29.4356 15.8247L29.3884 15.8475L29.3411 15.8931L29.2703 15.9159L29.1758 15.9387L29.0813 15.9615L28.9632 15.9843L28.8214 16.0071L28.6797 16.0299H28.4907H28.3017H28.0655H27.8293L27.6167 16.0071L27.4041 15.9615L27.2151 15.8931L27.0025 15.8019L26.8135 15.7107L26.6245 15.5739L26.4355 15.4143L26.2702 15.2547L26.1285 15.0495L26.0103 14.8442L25.8922 14.5934L25.8214 14.3426L25.7505 14.0462V13.7497V13.4077L25.7977 13.0429L25.845 12.8605L25.8686 12.7008L25.9158 12.5412L25.9631 12.3816L26.0103 12.222L26.0812 12.0624L26.1285 11.9256L26.1993 11.7888L26.2702 11.652L26.3174 11.5379L26.4119 11.4239L26.4828 11.3099L26.5537 11.1959L26.6482 11.0819L26.7426 10.9907L26.8371 10.8995L26.9316 10.8311L27.0497 10.7399L27.1442 10.6715L27.2623 10.6031L27.3805 10.5347L27.4986 10.4663L27.6167 10.4206L27.7584 10.375L27.9002 10.3294L28.0419 10.3066L28.1836 10.261L28.3254 10.2382L28.4907 10.2154H28.6325L28.7978 10.1926H28.9632H29.1049L29.2466 10.2154H29.3884L29.5301 10.2382L29.6482 10.261L29.7663 10.2838L29.8845 10.3066L29.979 10.3294L30.0971 10.3522L30.1679 10.375L30.2624 10.3978L30.3333 10.4206L30.4042 10.4434L30.4514 10.4663L30.4987 10.4891H30.5223L30.286 11.6976Z" fill="white"/>
<path d="M30.286 11.6976L30.2388 11.652L30.1679 11.6292L30.1207 11.6064L30.0498 11.5607L29.979 11.5379L29.9081 11.5151L29.8372 11.4923L29.7427 11.4695L29.6719 11.4467L29.5774 11.4239L29.4829 11.4011H29.3884H29.2939L29.1994 11.3783H29.0813H28.9632H28.8687L28.7506 11.4011H28.6325L28.4907 11.4239L28.3726 11.4695L28.2545 11.5151L28.1128 11.5607L27.9946 11.652L27.8765 11.7432L27.7584 11.8572L27.6403 11.994L27.5458 12.1536L27.4513 12.336L27.3568 12.564L27.2623 12.7921L27.1915 13.0657L27.1679 13.2253L27.1442 13.3849V13.5217V13.6813L27.1679 13.8181L27.1915 13.955L27.2387 14.0918L27.286 14.2058L27.3568 14.3426L27.4277 14.4338L27.5222 14.5478L27.6167 14.639L27.7584 14.7074L27.8765 14.7758L28.0419 14.8214L28.2072 14.867L28.2545 14.8898H28.3254L28.4199 14.9126H28.4907H28.6088H28.7033H28.8214H28.9159L29.034 14.8898L29.1522 14.867L29.2703 14.8442L29.3884 14.8214L29.4829 14.7758L29.601 14.7074L29.6955 14.639L29.7663 14.5706L29.5774 15.7107L29.5537 15.7335L29.5301 15.7563L29.4829 15.8019L29.4356 15.8247L29.3884 15.8475L29.3411 15.8931L29.2703 15.9159L29.1758 15.9387L29.0813 15.9615L28.9632 15.9843L28.8214 16.0071L28.6797 16.0299H28.4907H28.3017H28.0655H27.8293L27.6167 16.0071L27.4041 15.9615L27.2151 15.8931L27.0025 15.8019L26.8135 15.7107L26.6245 15.5739L26.4355 15.4143L26.2702 15.2547L26.1285 15.0495L26.0103 14.8442L25.8922 14.5934L25.8214 14.3426L25.7505 14.0462V13.7497V13.4077L25.7977 13.0429L25.845 12.8605L25.8686 12.7008L25.9158 12.5412L25.9631 12.3816L26.0103 12.222L26.0812 12.0624L26.1285 11.9256L26.1993 11.7888L26.2702 11.652L26.3174 11.5379L26.4119 11.4239L26.4828 11.3099L26.5537 11.1959L26.6482 11.0819L26.7426 10.9907L26.8371 10.8995L26.9316 10.8311L27.0497 10.7399L27.1442 10.6715L27.2623 10.6031L27.3805 10.5347L27.4986 10.4663L27.6167 10.4206L27.7584 10.375L27.9002 10.3294L28.0419 10.3066L28.1836 10.261L28.3254 10.2382L28.4907 10.2154H28.6325L28.7978 10.1926H28.9632H29.1049L29.2466 10.2154H29.3884L29.5301 10.2382L29.6482 10.261L29.7663 10.2838L29.8845 10.3066L29.979 10.3294L30.0971 10.3522L30.1679 10.375L30.2624 10.3978L30.3333 10.4206L30.4042 10.4434L30.4514 10.4663L30.4987 10.4891H30.5223L30.286 11.6976Z" stroke="white" stroke-width="0.216" stroke-miterlimit="2.6131"/>
<path fill-rule="evenodd" clip-rule="evenodd" d="M41.2704 16.03H40.0421L40.1366 15.574V15.5284L40.0657 15.5968L39.9948 15.688L39.9003 15.7564L39.8295 15.802L39.7586 15.8704L39.6641 15.916L39.5932 15.9616L39.4987 15.9844L39.4279 16.03L39.3334 16.0528L39.2389 16.0757H39.168L39.0735 16.0985H38.979H38.8846H38.8137H38.5775L38.3648 16.03L38.1759 15.9616L37.9869 15.8704L37.8215 15.7336L37.6798 15.5968L37.5617 15.4372L37.4436 15.2548L37.3727 15.0724L37.3018 14.8671L37.231 14.6391L37.2073 14.4339L37.1837 14.2059L37.2073 13.9779V13.7726L37.2546 13.5446L37.3255 13.2938L37.3963 13.043L37.4908 12.8378L37.6089 12.6325L37.727 12.4273L37.8688 12.2677L38.0105 12.1081L38.1522 11.9713L38.294 11.8345L38.4593 11.7205L38.6483 11.6293L38.8137 11.5609L38.979 11.4924L39.168 11.4696L39.3334 11.4468L39.5224 11.424H39.6641L39.7822 11.4468L39.9003 11.4696L39.9948 11.4924L40.1129 11.538L40.1838 11.5609L40.2783 11.6293L40.3728 11.6749L40.4436 11.7205L40.4909 11.7661L40.5618 11.8345L40.609 11.8801L40.6563 11.9485L40.7035 11.9941L40.7271 12.0397L40.7507 12.1081L41.0815 10.3979H42.2862L41.2704 16.03Z" fill="white"/>
<path d="M41.2704 16.03H40.0421L40.1366 15.574V15.5284L40.0657 15.5968L39.9948 15.688L39.9003 15.7564L39.8295 15.802L39.7586 15.8704L39.6641 15.916L39.5932 15.9616L39.4987 15.9844L39.4279 16.03L39.3334 16.0528L39.2389 16.0757H39.168L39.0735 16.0985H38.979H38.8846H38.8137H38.5775L38.3648 16.03L38.1759 15.9616L37.9869 15.8704L37.8215 15.7336L37.6798 15.5968L37.5617 15.4372L37.4436 15.2548L37.3727 15.0724L37.3018 14.8671L37.231 14.6391L37.2073 14.4339L37.1837 14.2059L37.2073 13.9779V13.7726L37.2546 13.5446L37.3255 13.2938L37.3963 13.043L37.4908 12.8378L37.6089 12.6325L37.727 12.4273L37.8688 12.2677L38.0105 12.1081L38.1522 11.9713L38.294 11.8345L38.4593 11.7205L38.6483 11.6293L38.8137 11.5609L38.979 11.4924L39.168 11.4696L39.3334 11.4468L39.5224 11.424H39.6641L39.7822 11.4468L39.9003 11.4696L39.9948 11.4924L40.1129 11.538L40.1838 11.5609L40.2783 11.6293L40.3728 11.6749L40.4436 11.7205L40.4909 11.7661L40.5618 11.8345L40.609 11.8801L40.6563 11.9485L40.7035 11.9941L40.7271 12.0397L40.7507 12.1081L41.0815 10.3979H42.2862L41.2704 16.03Z" stroke="white" stroke-width="0.216" stroke-miterlimit="2.6131"/>
<path fill-rule="evenodd" clip-rule="evenodd" d="M39.2624 15.0039L39.3804 14.9811L39.4985 14.9583L39.6165 14.9355L39.711 14.8899L39.8054 14.8443L39.8999 14.7759L39.9707 14.7075L40.0415 14.6163L40.1124 14.5251L40.1832 14.4339L40.2304 14.3427L40.2777 14.2287L40.3249 14.1374L40.3721 14.0234L40.3957 13.9094L40.4193 13.7954L40.4429 13.6586L40.4665 13.5446V13.4306L40.4429 13.2938V13.1798L40.4193 13.0886L40.3957 12.9745L40.3485 12.8833L40.3013 12.7921L40.254 12.7009L40.2068 12.6325L40.136 12.5869L40.0652 12.5413L39.9707 12.4957L39.8999 12.4729H39.8054H39.6874L39.5693 12.4957L39.4513 12.5185L39.3568 12.5641L39.2624 12.6325L39.1915 12.7009L39.0971 12.7693L39.0263 12.8605L38.9554 12.9517L38.9082 13.043L38.8374 13.157L38.7902 13.2482L38.7429 13.385L38.7193 13.499L38.6721 13.613L38.6485 13.7498L38.6249 13.9322L38.6485 14.1374L38.6721 14.3427L38.7193 14.5479L38.8138 14.7303L38.9318 14.8671L39.0735 14.9583L39.2624 15.0039Z" fill="#FAB51D"/>
<path fill-rule="evenodd" clip-rule="evenodd" d="M11.8603 15.0951L11.6714 16.03H10.5611L10.5847 15.8704L10.6083 15.7108L10.632 15.574L10.6556 15.5284L10.5847 15.5968L10.5139 15.6652L10.4194 15.7336L10.3249 15.7792L10.2304 15.8476L10.1123 15.8932L9.99415 15.9388L9.87604 15.9844L9.75792 16.03L9.61619 16.0528L9.49808 16.0756L9.35634 16.0984L9.23823 16.1212H9.09649L8.97838 16.0984L8.86026 16.0756L8.6949 16.0528L8.55317 16.0072L8.43505 15.9388L8.31694 15.8932L8.22245 15.802L8.12796 15.7336L8.05709 15.6424L7.98622 15.574L7.93898 15.4828L7.89173 15.3916L7.86811 15.2776L7.84449 15.1864L7.82086 15.0951L7.79724 15.0039V14.8899V14.7987L7.82086 14.6391L7.84449 14.4795L7.89173 14.3199L7.93898 14.1831L8.00985 14.0463L8.08071 13.9094L8.1752 13.7954L8.29332 13.6814L8.41143 13.5902L8.52954 13.499L8.64766 13.4078L8.78939 13.3394L8.93113 13.2938L9.07287 13.2482L9.23823 13.2026L9.37996 13.1798H9.40358H9.42721H9.45083L9.49808 13.157H9.54532H9.61619L9.68706 13.1342H9.75792H9.82879L9.89966 13.1114H9.99415H10.065L10.1359 13.0886H10.2068H10.254H10.3012H10.4194H10.5139H10.6083H10.7265L10.7973 13.1114H10.8682H10.9154L10.9391 13.0886L10.9627 12.9974L10.9863 12.9062V12.8377L10.9627 12.7465L10.9391 12.6553L10.8682 12.5641L10.7973 12.5185L10.7265 12.4501L10.632 12.4045L10.5139 12.3817H10.3957H10.2776H10.1359H9.99415H9.85242H9.71068L9.56894 12.4045H9.42721L9.28547 12.4273L9.16736 12.4501L9.02562 12.4729L8.90751 12.4957L8.81302 12.5185L8.6949 12.5413L8.62404 12.5641L8.55317 12.5869L8.50592 12.6097L8.83664 11.5836L8.93113 11.538L9.02562 11.5152L9.14374 11.4696L9.23823 11.4468L9.35634 11.424H9.47445L9.56894 11.4012H9.71068L9.82879 11.3784H9.94691H10.0886H10.2304H10.3721H10.5139H10.6792H10.8209L10.9627 11.4012H11.0808L11.2225 11.4468L11.3643 11.4696L11.506 11.538L11.6477 11.5836L11.7659 11.6748L11.9076 11.7433L12.0021 11.8345L12.1202 11.9485L12.1911 12.0625L12.2619 12.1993L12.3092 12.3361L12.3328 12.4729V12.6325L12.3092 12.8149L11.8603 15.0951Z" fill="white"/>
<path d="M11.8603 15.0951L11.6714 16.03H10.5611L10.5847 15.8704L10.6083 15.7108L10.632 15.574L10.6556 15.5284L10.5847 15.5968L10.5139 15.6652L10.4194 15.7336L10.3249 15.7792L10.2304 15.8476L10.1123 15.8932L9.99415 15.9388L9.87604 15.9844L9.75792 16.03L9.61619 16.0528L9.49808 16.0756L9.35634 16.0984L9.23823 16.1212H9.09649L8.97838 16.0984L8.86026 16.0756L8.6949 16.0528L8.55317 16.0072L8.43505 15.9388L8.31694 15.8932L8.22245 15.802L8.12796 15.7336L8.05709 15.6424L7.98622 15.574L7.93898 15.4828L7.89173 15.3916L7.86811 15.2776L7.84449 15.1864L7.82086 15.0951L7.79724 15.0039V14.8899V14.7987L7.82086 14.6391L7.84449 14.4795L7.89173 14.3199L7.93898 14.1831L8.00985 14.0463L8.08071 13.9094L8.1752 13.7954L8.29332 13.6814L8.41143 13.5902L8.52954 13.499L8.64766 13.4078L8.78939 13.3394L8.93113 13.2938L9.07287 13.2482L9.23823 13.2026L9.37996 13.1798H9.40358H9.42721H9.45083L9.49808 13.157H9.54532H9.61619L9.68706 13.1342H9.75792H9.82879L9.89966 13.1114H9.99415H10.065L10.1359 13.0886H10.2068H10.254H10.3012H10.4194H10.5139H10.6083H10.7265L10.7973 13.1114H10.8682H10.9154L10.9391 13.0886L10.9627 12.9974L10.9863 12.9062V12.8377L10.9627 12.7465L10.9391 12.6553L10.8682 12.5641L10.7973 12.5185L10.7265 12.4501L10.632 12.4045L10.5139 12.3817H10.3957H10.2776H10.1359H9.99415H9.85242H9.71068L9.56894 12.4045H9.42721L9.28547 12.4273L9.16736 12.4501L9.02562 12.4729L8.90751 12.4957L8.81302 12.5185L8.6949 12.5413L8.62404 12.5641L8.55317 12.5869L8.50592 12.6097L8.83664 11.5836L8.93113 11.538L9.02562 11.5152L9.14374 11.4696L9.23823 11.4468L9.35634 11.424H9.47445L9.56894 11.4012H9.71068L9.82879 11.3784H9.94691H10.0886H10.2304H10.3721H10.5139H10.6792H10.8209L10.9627 11.4012H11.0808L11.2225 11.4468L11.3643 11.4696L11.506 11.538L11.6477 11.5836L11.7659 11.6748L11.9076 11.7433L12.0021 11.8345L12.1202 11.9485L12.1911 12.0625L12.2619 12.1993L12.3092 12.3361L12.3328 12.4729V12.6325L12.3092 12.8149L11.8603 15.0951Z" stroke="white" stroke-width="0.216" stroke-miterlimit="2.6131"/>
<path fill-rule="evenodd" clip-rule="evenodd" d="M10.7729 13.9551V13.9323V13.9095H10.7256L10.702 13.8867H10.6312H10.584H10.5131H10.4423H10.3715H10.3006L10.2298 13.9095H10.159L10.0881 13.9323H10.0409L9.97009 13.9551H9.92286L9.89925 13.9779H9.85203L9.80481 14.0007L9.75759 14.0235L9.71036 14.0462L9.63953 14.069L9.59231 14.1146L9.52147 14.1374L9.47425 14.183L9.40342 14.2286L9.3562 14.2741L9.30897 14.3425L9.26175 14.3881L9.23814 14.4564L9.19092 14.5248V14.5932V14.7299L9.21453 14.8439L9.26175 14.935L9.30897 15.0034L9.37981 15.049L9.45064 15.0717H9.52147L9.59231 15.0945L9.73397 15.0717H9.85203L9.97009 15.049L10.0645 15.0262L10.159 15.0034L10.2298 14.9578L10.3243 14.9122L10.3715 14.8666L10.4423 14.8211L10.4895 14.7755L10.5368 14.7299L10.584 14.6843L10.6076 14.616L10.6312 14.5704L10.6548 14.5248L10.6784 14.4792L10.702 14.3425L10.7256 14.2058L10.7729 14.069V13.9551Z" fill="#E40520"/>
<path fill-rule="evenodd" clip-rule="evenodd" d="M2.48143 16.03H1.25305L2.26883 10.3979H4.37125L4.58385 13.7498L6.04846 10.3979H8.24537L7.20597 16.03H6.00121L6.75714 11.8117H6.70989L4.89095 16.03H3.52083V15.8704L3.49721 15.3916L3.44996 14.7303L3.40272 13.9551L3.35547 13.1798L3.33185 12.5185L3.2846 12.0169V11.8117H3.26098H3.23736H3.21374L2.48143 16.03Z" fill="white"/>
<path d="M2.48143 16.03H1.25305L2.26883 10.3979H4.37125L4.58385 13.7498L6.04846 10.3979H8.24537L7.20597 16.03H6.00121L6.75714 11.8117H6.70989L4.89095 16.03H3.52083V15.8704L3.49721 15.3916L3.44996 14.7303L3.40272 13.9551L3.35547 13.1798L3.33185 12.5185L3.2846 12.0169V11.8117H3.26098H3.23736H3.21374L2.48143 16.03Z" stroke="white" stroke-width="0.216" stroke-miterlimit="2.6131"/>
<path fill-rule="evenodd" clip-rule="evenodd" d="M33.9947 15.0951L33.8293 16.03H32.6954L32.7191 15.8704V15.7108V15.5968V15.5512L32.6718 15.5968L32.6009 15.6652L32.5065 15.7336L32.4356 15.802L32.3411 15.8476L32.223 15.8932L32.1049 15.9616L32.0104 15.9844L31.8923 16.03L31.7505 16.0528L31.6324 16.0756L31.5143 16.0984L31.3726 16.1212H31.2544L31.1363 16.0984L31.0182 16.0756L30.8529 16.0528L30.7111 16.0072L30.593 15.9388L30.4749 15.8932L30.3804 15.802L30.2859 15.7336L30.2151 15.6424L30.1442 15.574L30.0969 15.4828L30.0497 15.3916L30.0261 15.2776L30.0024 15.1864L29.9788 15.0951V15.0039L29.9552 14.8899V14.7987L29.9788 14.6391L30.0024 14.4795L30.0261 14.3199L30.0969 14.1831L30.1678 14.0463L30.2387 13.9094L30.3332 13.7954L30.4513 13.6814L30.5694 13.5902L30.6875 13.499L30.8056 13.4078L30.9474 13.3394L31.0891 13.2938L31.2308 13.2482L31.3726 13.2026L31.5379 13.1798H31.5615H31.5852L31.6324 13.157H31.7033H31.7505L31.8214 13.1342H31.8923H31.9631L32.0576 13.1114H32.1285H32.1994L32.2702 13.0886H32.3411H32.412H32.4592H32.5537H32.6718H32.7663H32.8608L32.9553 13.1114H33.0262H33.0498H33.0734L33.097 13.0886V12.9974L33.1206 12.9062V12.8377L33.097 12.7465L33.0734 12.6553L33.0025 12.5641L32.9553 12.5185L32.8608 12.4501L32.7663 12.4045L32.6718 12.3817H32.5773H32.4356H32.3175H32.1757H32.034H31.8686L31.7269 12.4045H31.5852L31.4434 12.4273L31.3253 12.4501L31.1836 12.4729L31.0655 12.4957L30.971 12.5185L30.8765 12.5413L30.782 12.5641L30.7348 12.5869L30.6875 12.6097L30.9946 11.5836L31.0891 11.538L31.1836 11.5152L31.3017 11.4696L31.3962 11.4468L31.5143 11.424H31.6324L31.7505 11.4012H31.8686L31.9868 11.3784H32.1049H32.2466H32.3883H32.5301H32.6718H32.8135H32.9553L33.097 11.4012H33.2151L33.3569 11.4468L33.4986 11.4696L33.6403 11.538L33.7821 11.5836L33.9238 11.6748L34.0419 11.7433L34.16 11.8345L34.2545 11.9485L34.349 12.0625L34.4199 12.1993L34.4671 12.3361L34.4908 12.4729V12.6325L34.4671 12.8149L33.9947 15.0951Z" fill="white"/>
<path fill-rule="evenodd" clip-rule="evenodd" d="M33.8294 16.0752L33.853 16.0524L34.0181 15.0953L33.971 15.0725L33.7822 16.0296L33.8294 16.0069V16.0752H33.853V16.0524L33.8294 16.0752Z" fill="white"/>
<path fill-rule="evenodd" clip-rule="evenodd" d="M32.6719 16.0299L32.6955 16.0754H33.8288V16.0071H32.6955L32.7191 16.0299H32.6719V16.0754H32.6955L32.6719 16.0299Z" fill="white"/>
<path fill-rule="evenodd" clip-rule="evenodd" d="M32.7425 15.5511L32.6954 15.5283V15.5967L32.6719 15.7106V15.8702V16.0297H32.7189L32.7425 15.8702V15.7106V15.5967V15.5511L32.6954 15.5283L32.7425 15.5511Z" fill="white"/>
<path fill-rule="evenodd" clip-rule="evenodd" d="M31.0183 16.1208H31.1364L31.2544 16.1436H31.3725L31.5141 16.1208H31.6322L31.7739 16.098L31.8919 16.0525L32.01 16.0297L32.128 15.9841L32.2461 15.9157L32.3405 15.8702L32.435 15.8018L32.5294 15.7562L32.6239 15.6878L32.6947 15.6195L32.7419 15.5511L32.6947 15.5283L32.6475 15.5967L32.5766 15.6423L32.5058 15.7106L32.4114 15.779L32.3169 15.8246L32.2225 15.8702L32.1044 15.9157L31.9864 15.9613L31.8683 16.0069L31.7503 16.0297L31.6322 16.0525L31.5141 16.0753H31.3725L31.2544 16.098L31.1364 16.0753L31.0183 16.0525V16.1208Z" fill="white"/>
<path fill-rule="evenodd" clip-rule="evenodd" d="M29.9315 14.7988V14.89V15.0039L29.9551 15.0951L29.9787 15.1862L30.0023 15.3002L30.0259 15.3913L30.0731 15.4825L30.1202 15.5737L30.191 15.6648L30.2618 15.756L30.3561 15.8243L30.4505 15.8927L30.5685 15.9611L30.71 16.0294L30.8515 16.075L31.0167 16.1206V16.0522L30.8515 16.0294L30.71 15.9839L30.5921 15.9155L30.4741 15.8699L30.3797 15.8015L30.309 15.7104L30.2382 15.642L30.1674 15.5509L30.1202 15.4597L30.0731 15.3686L30.0495 15.2774L30.0259 15.1862L30.0023 15.0951V15.0039L29.9787 14.89L30.0023 14.7988H29.9315Z" fill="white"/>
<path fill-rule="evenodd" clip-rule="evenodd" d="M31.5371 13.1567L31.3718 13.1795L31.2301 13.2251L31.0649 13.2707L30.9232 13.3163L30.8051 13.3846L30.6635 13.4758L30.5454 13.5669L30.4274 13.6809L30.3093 13.772L30.2149 13.9088L30.144 14.0227L30.0732 14.1822L30.0024 14.319L29.9787 14.4785L29.9315 14.638V14.7975H30.0024V14.638L30.026 14.4785L30.0732 14.3418L30.1204 14.1822L30.1912 14.0455L30.2621 13.9316L30.3565 13.8176L30.451 13.7037L30.569 13.6125L30.6871 13.5214L30.8287 13.453L30.9704 13.3846L31.0885 13.3163L31.2301 13.2707L31.3718 13.2251L31.5371 13.2023V13.1567Z" fill="white"/>
<path fill-rule="evenodd" clip-rule="evenodd" d="M32.4582 13.0659H32.4111H32.3403H32.2695L32.1987 13.0887H32.128H32.0572H31.9628L31.8921 13.1115H31.8213L31.7505 13.1343H31.7033H31.6326H31.5854L31.5618 13.1571H31.5382V13.2027H31.5618H31.5854L31.6326 13.1799H31.7033H31.7505H31.8213L31.8921 13.1571H31.9628L32.0572 13.1343H32.128H32.1987H32.2695L32.3403 13.1115H32.4111H32.4582V13.0659Z" fill="white"/>
<path fill-rule="evenodd" clip-rule="evenodd" d="M33.049 13.1115L33.0726 13.0887H33.049H33.0254H32.9546L32.8603 13.0659H32.7659H32.6715H32.5536H32.4592V13.1115H32.5536H32.6715L32.7659 13.1343H32.8603H32.9546H33.0254H33.049H33.0726L33.0962 13.1115L33.0726 13.1343H33.0962V13.1115H33.049Z" fill="white"/>
<path fill-rule="evenodd" clip-rule="evenodd" d="M33.0973 12.8376V12.906L33.0736 12.9972L33.0499 13.0883V13.1111H33.0973L33.1209 13.0883V13.02L33.1446 12.906V12.8376H33.0973Z" fill="white"/>
<path fill-rule="evenodd" clip-rule="evenodd" d="M32.5774 12.4045H32.6718L32.7661 12.45L32.8605 12.4728L32.9312 12.5412L32.9784 12.5868L33.0492 12.6551L33.0728 12.7463L33.0964 12.8375H33.1436L33.12 12.7235L33.0964 12.6324L33.0256 12.564L32.9548 12.4956L32.8841 12.4273L32.7897 12.3817L32.6718 12.3589H32.5774V12.4045Z" fill="white"/>
<path fill-rule="evenodd" clip-rule="evenodd" d="M30.6403 12.6094L30.6875 12.6322L30.7347 12.6094L30.8055 12.5866L30.8764 12.5638L30.9708 12.541L31.0889 12.5182L31.2069 12.4955L31.325 12.4727L31.443 12.4499L31.5847 12.4271H31.7264L31.868 12.4043H32.0333H32.175H32.3167H32.4347H32.5764V12.3587H32.4347L32.3167 12.3359H32.175L32.0333 12.3587H31.868L31.7264 12.3815H31.5847L31.443 12.4043L31.325 12.4271L31.1833 12.4499L31.0653 12.4727H30.9708L30.8764 12.5182L30.7819 12.541L30.7111 12.5638L30.6639 12.5866L30.7111 12.6322L30.6403 12.6094Z" fill="white"/>
<path fill-rule="evenodd" clip-rule="evenodd" d="M30.9705 11.5605V11.5833L30.6403 12.6088L30.711 12.6316L31.0177 11.5833L30.9941 11.6061L30.9705 11.5605V11.5833V11.5605Z" fill="white"/>
<path fill-rule="evenodd" clip-rule="evenodd" d="M32.9545 11.3553H32.8129L32.6712 11.3325H32.5295H32.3879H32.2462L32.1045 11.3553H31.9865H31.8684L31.7504 11.3781L31.6087 11.4009H31.5142L31.3962 11.4237L31.2781 11.4465L31.1837 11.4693L31.0892 11.5148L30.9712 11.5604L30.9948 11.606L31.0892 11.5604L31.2073 11.5376L31.3017 11.492L31.3962 11.4693H31.5142L31.6323 11.4465L31.7504 11.4237H31.8684L31.9865 11.4009H32.1045H32.2462H32.3879H32.5295H32.6712H32.8129H32.9545V11.3553Z" fill="white"/>
<path fill-rule="evenodd" clip-rule="evenodd" d="M34.49 12.814L34.5137 12.6317V12.4721L34.49 12.3354L34.4428 12.1759L34.372 12.0391L34.2775 11.9252L34.1595 11.8112L34.065 11.7201L33.9234 11.6517L33.8053 11.5606L33.6637 11.515L33.522 11.4466L33.3567 11.4238L33.2387 11.3783L33.097 11.3555H32.9553V11.401L33.097 11.4238L33.215 11.4466L33.3567 11.4694L33.4984 11.515L33.64 11.5606L33.7581 11.6289L33.8998 11.6973L34.0178 11.7657L34.1359 11.8568L34.2303 11.9708L34.3248 12.0847L34.3956 12.1987L34.4428 12.3354L34.4664 12.4721V12.6317L34.4428 12.814H34.49Z" fill="white"/>
<path fill-rule="evenodd" clip-rule="evenodd" d="M34.0183 15.0949L34.4901 12.8147H34.4429L33.9711 15.0721L34.0183 15.0949Z" fill="white"/>
<path fill-rule="evenodd" clip-rule="evenodd" d="M32.9308 13.9551L32.9072 13.9323L32.8836 13.9095H32.86L32.8128 13.8867H32.7655H32.7183H32.6475H32.5767H32.5058L32.435 13.9095H32.3642H32.2933L32.2225 13.9323H32.1753L32.1044 13.9551H32.0808H32.0336L32.01 13.9779L31.9628 14.0007H31.9155L31.8447 14.0235L31.7975 14.069L31.7267 14.0918L31.6794 14.1374L31.6086 14.1602L31.5614 14.2058L31.5142 14.2513L31.4669 14.3197L31.4197 14.3881L31.3961 14.4337L31.3725 14.502L31.3489 14.5932V14.7299L31.3725 14.8439L31.3961 14.935L31.4669 15.0034L31.5142 15.049L31.6086 15.0717H31.6794L31.7503 15.0945L31.8919 15.0717H32.01L32.128 15.049L32.2225 15.0262L32.3169 14.9806L32.4114 14.935L32.4822 14.8894L32.5767 14.8439L32.6239 14.7983L32.6711 14.7527L32.7183 14.6843L32.7655 14.6388L32.8128 14.5932V14.5248L32.8364 14.4792L32.86 14.4337L32.8836 14.3197V14.183L32.9072 14.069L32.9308 13.9551Z" fill="#FAB51D"/>
<path fill-rule="evenodd" clip-rule="evenodd" d="M42.1209 15.4597V15.3458L42.1681 15.2318L42.2153 15.1407L42.2861 15.0495L42.3806 14.9583L42.4986 14.9128L42.6167 14.89L42.7347 14.8672L42.8528 14.89L42.9708 14.9128L43.0889 14.9583L43.1834 15.0495L43.2542 15.1407L43.325 15.2318L43.3486 15.3458L43.3722 15.4597H43.2306V15.3685L43.207 15.2774L43.1597 15.1862L43.0889 15.1179L43.0181 15.0495L42.9472 15.0267L42.8292 14.9811H42.7347H42.6403L42.5459 15.0267L42.4514 15.0495L42.3806 15.1179L42.3333 15.1862L42.2861 15.2774L42.2625 15.3685L42.2389 15.4597H42.1209Z" fill="white"/>
<path fill-rule="evenodd" clip-rule="evenodd" d="M42.5225 15.4597V15.1863H42.7584H42.8055L42.8527 15.2091H42.8999L42.9235 15.2319L42.9471 15.2546L42.9707 15.2774V15.323V15.3458V15.3914V15.4142L42.9471 15.437V15.4597H42.7584L42.782 15.437H42.8055H42.8291L42.8527 15.4142H42.8763V15.3914L42.8999 15.3686V15.3458V15.323L42.8763 15.3002H42.8527L42.8291 15.2774H42.8055H42.782H42.7584H42.6168V15.4597H42.5225Z" fill="white"/>
<path fill-rule="evenodd" clip-rule="evenodd" d="M42.121 15.46L42.0974 15.4827L42.121 15.5967L42.1682 15.7106L42.2155 15.8246L42.2863 15.9157L42.3807 15.9841L42.4988 16.0297L42.6169 16.0753H42.7349H42.853L42.971 16.0297L43.0891 15.9841L43.1835 15.9157L43.2544 15.8246L43.3252 15.7106L43.3488 15.5967L43.3724 15.4827V15.46H43.2307V15.4827V15.5739L43.2071 15.6651L43.1599 15.7562L43.0891 15.8246L43.0182 15.893L42.9474 15.9385L42.8294 15.9613L42.7349 15.9841L42.6405 15.9613L42.546 15.9385L42.4516 15.893L42.3807 15.8246L42.3335 15.7562L42.2863 15.6651L42.2627 15.5739L42.2391 15.4827V15.46H42.121Z" fill="white"/>
<path fill-rule="evenodd" clip-rule="evenodd" d="M42.5225 15.46V15.7106H42.6168V15.5055H42.7348L42.8763 15.7106H42.9707L42.8291 15.5055H42.8527L42.8999 15.4827H42.9235L42.9471 15.46H42.7584H42.7348H42.6168H42.5225Z" fill="white"/>
<path d="M42.0974 15.4825L42.121 15.3685L42.1682 15.2546L42.2391 15.1407L42.3099 15.0495L42.4044 14.9811L42.5224 14.9356L42.6405 14.89L42.7585 14.8672L42.8766 14.89L42.9946 14.9356L43.1127 14.9811L43.2071 15.0495L43.278 15.1407L43.3488 15.2546L43.396 15.3685L43.4196 15.4825L43.396 15.5964L43.3488 15.7104L43.278 15.8243L43.2071 15.9155L43.1127 15.9838L42.9946 16.0294L42.8766 16.075L42.7585 16.0978L42.6405 16.075L42.5224 16.0294L42.4044 15.9838L42.3099 15.9155L42.2391 15.8243L42.1682 15.7104L42.121 15.5964L42.0974 15.4825ZM42.6169 15.7104H42.5224V15.1862H42.7585H42.8057H42.853L42.9002 15.209L42.9238 15.2318L42.9474 15.2546L42.971 15.2774V15.3002V15.323V15.3685V15.3913L42.9474 15.4141L42.9238 15.4369L42.9002 15.4597H42.8766H42.853H42.8294L42.971 15.6648H42.8766L42.7349 15.4597H42.6169V15.7104V15.7104ZM42.7349 15.4597H42.7821H42.8057H42.8294H42.853L42.8766 15.4369V15.4141V15.3913V15.3458V15.323V15.3002H42.853H42.8294H42.8057H42.7821H42.7585H42.6169V15.4825H42.7349V15.4597ZM42.7349 15.9838H42.8294L42.9238 15.9611L43.0182 15.9155L43.0891 15.8471L43.1363 15.7787L43.1835 15.6876L43.2307 15.5736V15.4597V15.3458L43.2071 15.2546L43.1599 15.1634L43.1127 15.0951L43.0419 15.0267L42.9474 14.9811L42.853 14.9583H42.7585H42.6641L42.5696 14.9811L42.4752 15.0267L42.4044 15.0951L42.3571 15.1634L42.3099 15.2546L42.2863 15.3458V15.4597V15.5736L42.3099 15.6648L42.3571 15.756L42.4044 15.8243L42.4752 15.8927L42.5696 15.9383L42.6641 15.9611L42.7349 15.9838Z" stroke="white" stroke-width="0.216" stroke-miterlimit="2.6131"/>
<path fill-rule="evenodd" clip-rule="evenodd" d="M34.3256 16.03H35.6012L36.05 13.5902L36.0736 13.499L36.0973 13.4078L36.1209 13.3166L36.1445 13.2026L36.1918 13.1114L36.2626 13.0202L36.3099 12.9518L36.3807 12.8605L36.4516 12.7921L36.5461 12.7237L36.6642 12.6553L36.7587 12.6097L36.9004 12.5641L37.0422 12.5185L37.2075 12.4957H37.3729H37.4438H37.4674H37.491L37.68 11.3784L37.5619 11.4012H37.4438L37.3256 11.424L37.2075 11.4468L37.113 11.4924L37.0185 11.538L36.9477 11.5836L36.8532 11.6292L36.7823 11.6976L36.6878 11.7433L36.617 11.8117L36.5461 11.8801L36.4988 11.9713L36.428 12.0397L36.3571 12.1309L36.2862 12.1993L36.428 11.424H35.176L34.3256 16.03Z" fill="white"/>
<path d="M34.3256 16.03H35.6012L36.05 13.5902L36.0736 13.499L36.0973 13.4078L36.1209 13.3166L36.1445 13.2026L36.1918 13.1114L36.2626 13.0202L36.3099 12.9518L36.3807 12.8605L36.4516 12.7921L36.5461 12.7237L36.6642 12.6553L36.7587 12.6097L36.9004 12.5641L37.0422 12.5185L37.2075 12.4957H37.3729H37.4438H37.4674H37.491L37.68 11.3784L37.5619 11.4012H37.4438L37.3256 11.424L37.2075 11.4468L37.113 11.4924L37.0185 11.538L36.9477 11.5836L36.8532 11.6292L36.7823 11.6976L36.6878 11.7433L36.617 11.8117L36.5461 11.8801L36.4988 11.9713L36.428 12.0397L36.3571 12.1309L36.2862 12.1993L36.428 11.424H35.176L34.3256 16.03Z" stroke="white" stroke-width="0.216" stroke-miterlimit="2.6131"/>
<path fill-rule="evenodd" clip-rule="evenodd" d="M22.5142 16.03H23.7898H23.8134L24.2386 13.5902V13.499L24.2622 13.4078L24.2859 13.3166L24.3331 13.2254L24.3567 13.1342L24.404 13.0658L24.4512 12.9746L24.5221 12.9062L24.593 12.8377L24.6638 12.7921L24.7819 12.7237L24.8764 12.6781L24.9945 12.6325L25.1363 12.6097L25.3016 12.5869L25.467 12.5641H25.4906V12.5869H25.5142H25.5379H25.5615H25.5851H25.6087V12.5185L25.6324 12.4501L25.656 12.3589L25.6796 12.2449L25.7268 12.1309L25.7505 11.9941L25.7977 11.8801L25.845 11.7889L25.8922 11.7204L25.9158 11.6292L25.9631 11.5608L26.0103 11.4924L26.0339 11.4468L26.0576 11.424L26.0812 11.4012H26.0576H26.0339H25.9867H25.9631L25.9395 11.3784H25.8922H25.8686L25.7268 11.4012H25.6087L25.4906 11.424L25.3725 11.4468L25.278 11.4924L25.1835 11.538L25.1127 11.5608L25.0182 11.6292L24.9473 11.6748L24.8764 11.7433L24.8056 11.8117L24.7347 11.8801L24.6638 11.9485L24.6166 12.0397L24.5457 12.1309L24.4748 12.1993L24.6402 11.424H23.3646L22.5142 16.03Z" fill="white"/>
<path d="M22.5142 16.03H23.7898H23.8134L24.2386 13.5902V13.499L24.2622 13.4078L24.2859 13.3166L24.3331 13.2254L24.3567 13.1342L24.404 13.0658L24.4512 12.9746L24.5221 12.9062L24.593 12.8377L24.6638 12.7921L24.7819 12.7237L24.8764 12.6781L24.9945 12.6325L25.1363 12.6097L25.3016 12.5869L25.467 12.5641H25.4906V12.5869H25.5142H25.5379H25.5615H25.5851H25.6087V12.5185L25.6324 12.4501L25.656 12.3589L25.6796 12.2449L25.7268 12.1309L25.7505 11.9941L25.7977 11.8801L25.845 11.7889L25.8922 11.7204L25.9158 11.6292L25.9631 11.5608L26.0103 11.4924L26.0339 11.4468L26.0576 11.424L26.0812 11.4012H26.0576H26.0339H25.9867H25.9631L25.9395 11.3784H25.8922H25.8686L25.7268 11.4012H25.6087L25.4906 11.424L25.3725 11.4468L25.278 11.4924L25.1835 11.538L25.1127 11.5608L25.0182 11.6292L24.9473 11.6748L24.8764 11.7433L24.8056 11.8117L24.7347 11.8801L24.6638 11.9485L24.6166 12.0397L24.5457 12.1309L24.4748 12.1993L24.6402 11.424H23.3646L22.5142 16.03Z" stroke="white" stroke-width="0.216" stroke-miterlimit="2.6131"/>
<path fill-rule="evenodd" clip-rule="evenodd" d="M42.1209 20.5674V20.5446L42.1681 20.4535L42.2153 20.3395L42.2861 20.2484L42.3806 20.18L42.4986 20.1344L42.6167 20.1117L42.7347 20.0889L42.8528 20.1117L42.9708 20.1344L43.0889 20.18L43.1834 20.2484L43.2542 20.3395L43.325 20.4535L43.3486 20.5446V20.5674H43.2306L43.207 20.4763L43.1597 20.4079L43.0889 20.3168L43.0181 20.2712L42.9472 20.2256L42.8292 20.18H42.7347H42.6403L42.5459 20.2256L42.4514 20.2712L42.3806 20.3168L42.3333 20.4079L42.2861 20.4763L42.2625 20.5674H42.1209Z" fill="#FAB51D"/>
<path fill-rule="evenodd" clip-rule="evenodd" d="M42.5225 20.5676V20.4309H42.7584H42.8055H42.8527H42.8999L42.9235 20.4537L42.9471 20.4765L42.9707 20.4993V20.5221V20.5676H42.8999V20.5449V20.5221H42.8763V20.4993H42.8527H42.8291L42.8055 20.4765H42.782H42.7584H42.6168V20.5676H42.5225Z" fill="#FAB51D"/>
<path fill-rule="evenodd" clip-rule="evenodd" d="M42.0974 20.659L42.121 20.5679H42.2625L42.239 20.659H42.0974Z" fill="#FAB51D"/>
<path fill-rule="evenodd" clip-rule="evenodd" d="M42.5225 20.659V20.5679H42.6168V20.659H42.7348H42.782L42.8055 20.6362H42.8291H42.8527L42.8763 20.6134V20.5907H42.8999V20.5679H42.9707V20.5907V20.6362L42.9471 20.659H42.5225Z" fill="#FAB51D"/>
<path fill-rule="evenodd" clip-rule="evenodd" d="M43.2312 20.659V20.5679H43.3489L43.3724 20.659H43.2312Z" fill="#FAB51D"/>
<path fill-rule="evenodd" clip-rule="evenodd" d="M42.0974 20.6587V20.6815L42.121 20.7954L42.1682 20.9094L42.2155 21.0233L42.2863 21.1145L42.3807 21.1828L42.4988 21.2284L42.6169 21.274L42.7349 21.2968L42.853 21.274L42.971 21.2284L43.0891 21.1828L43.1835 21.1145L43.2544 21.0233L43.3252 20.9094L43.3488 20.7954L43.3724 20.6815V20.6587H43.2307V20.6815V20.7726L43.2071 20.8866L43.1599 20.9549L43.0891 21.0233L43.0182 21.0917L42.9474 21.1373L42.8294 21.16L42.7349 21.1828L42.6405 21.16L42.546 21.1373L42.4516 21.0917L42.3807 21.0233L42.3335 20.9549L42.2863 20.8866L42.2627 20.7726L42.2391 20.6815V20.6587H42.0974Z" fill="#FAB51D"/>
<path fill-rule="evenodd" clip-rule="evenodd" d="M42.5225 20.6587V20.9094H42.6168V20.7043H42.7348L42.8763 20.9094H42.9707L42.8291 20.7043H42.8527L42.8999 20.6815H42.9235L42.9471 20.6587H42.5225Z" fill="#FAB51D"/>
</svg>
