<svg width="124" height="21" viewBox="0 0 124 21" fill="none" xmlns="http://www.w3.org/2000/svg">
<path d="M108.458 13.466V16.3157H95.6428C95.7844 15.217 96.2093 14.1527 96.8819 13.2257C97.5899 12.2644 98.9352 10.994 100.989 9.38038C102.652 8.07572 103.644 7.21739 104.033 6.73672C104.493 6.22172 104.777 5.53506 104.777 4.84839C104.812 4.26473 104.564 3.68107 104.104 3.26907C103.573 2.8914 102.936 2.6854 102.298 2.71974C101.626 2.6854 100.989 2.8914 100.493 3.3034C100.033 3.68107 99.7849 4.3334 99.7141 5.22606L96.0676 4.91706C96.2801 3.23474 96.9527 1.99874 98.121 1.27774C99.3954 0.48808 100.918 0.110415 102.405 0.179081C104.281 0.179081 105.768 0.59108 106.83 1.44941C107.857 2.20474 108.458 3.37207 108.458 4.6424C108.458 5.36339 108.317 6.05006 107.998 6.70239C107.609 7.45772 107.113 8.14438 106.547 8.76238C105.803 9.51771 104.989 10.2044 104.139 10.8224C102.971 11.715 102.263 12.2987 101.944 12.5734C101.661 12.848 101.413 13.1227 101.201 13.4317L108.458 13.466Z" fill="#EBE9E9"/>
<path d="M118.088 16.3156V13.0882H110.299V10.3759L118.548 0.178955H121.628V10.3759H124V13.0882H121.628V16.3156H118.088ZM118.088 10.3759V4.8826L113.698 10.3759H118.088Z" fill="#EBE9E9"/>
<path d="M4.73021 15.9037H0.12793V0.041748H16.7669V15.9037H12.1647V3.13174H4.73021V15.9037Z" fill="#66AC00"/>
<path d="M23.0686 10.1356C23.0686 6.90829 25.1219 6.29029 26.3964 6.29029C27.6708 6.29029 29.7242 6.94262 29.7242 10.1356C29.7242 12.1269 28.8391 14.0496 26.3964 14.0496C23.9182 14.0153 23.0686 12.1269 23.0686 10.1356ZM18.9973 4.40197V20.0922H23.2456V14.7363C24.6617 16.2469 26.9982 16.3499 27.5646 16.3499C31.6359 16.3499 34.114 13.8436 34.114 10.1699C34.114 6.35896 31.6359 3.95564 27.6354 3.95564C25.9007 3.9213 24.2368 4.57363 23.0332 5.77529H22.9624L22.9978 4.40197H18.9973Z" fill="#66AC00"/>
<path d="M44.7346 14.5301C43.4601 15.7318 41.7608 16.4185 39.9553 16.3498C35.353 16.3498 35.176 12.9852 35.176 11.6118V4.40186H39.4243V11.0625C39.4243 13.3628 40.2385 14.0151 41.7962 14.0151C44.4868 14.0151 44.6638 11.6805 44.6638 10.8565V4.40186H48.9121V15.9035H44.6638L44.7346 14.5301Z" fill="#66AC00"/>
<path d="M55.1074 6.70233H57.4085C58.6122 6.70233 59.6389 6.874 59.6389 7.83533C59.6389 8.86532 58.0104 8.89966 57.3023 8.89966H55.1074V6.70233ZM50.8591 4.40201V15.9036H59.3202C62.4002 15.9036 64.5243 15.32 64.5243 12.951C64.5243 11.1313 63.4977 10.3417 61.1257 9.92965V9.86099C62.6834 9.65499 64.0287 8.72799 64.0287 7.14866C64.0287 4.36768 60.6655 4.36768 59.3556 4.36768L50.8591 4.40201ZM55.1074 11.0626H57.7271C59.7451 11.0626 60.1699 11.6463 60.1699 12.436C60.1699 12.951 59.8867 13.6033 57.7979 13.6033H55.1428L55.1074 11.0626Z" fill="#66AC00"/>
<path d="M74.8265 11.1315C74.8265 13.4319 72.7378 14.0155 71.7111 14.0155C70.9323 14.0155 69.5162 13.7752 69.5162 12.6765C69.5162 11.3719 71.1093 11.1315 71.9944 11.0285C73.6583 10.7882 73.5166 10.8569 74.7911 10.4105L74.8265 11.1315ZM69.9056 8.11022C69.9056 6.39356 71.7465 6.25622 72.5254 6.25622C73.021 6.25622 74.7557 6.29056 74.8265 7.76689V8.07588C74.7557 9.20888 73.6228 8.96855 70.4721 9.38055C67.8877 9.72388 65.1617 10.3419 65.1617 12.9855C65.1617 13.9469 65.5866 16.3158 70.118 16.3158C71.8527 16.3158 73.7645 15.9039 74.8973 14.7709H74.9681L75.3222 15.9039H79.8182V15.6979C79.004 15.5262 78.9332 14.7709 78.9686 13.5349L79.0394 8.28188C79.0748 6.94289 78.9332 3.99023 72.49 3.99023C70.9323 3.99023 65.976 4.12757 65.799 8.14455L69.9056 8.11022Z" fill="#66AC00"/>
<path d="M79.5349 6.70218V4.40186H93.2355V6.70218H88.5271V15.9035H84.2434V6.70218H79.5349Z" fill="#66AC00"/>
</svg>
