<svg width="74" height="36" viewBox="0 0 74 36" fill="none" xmlns="http://www.w3.org/2000/svg">
<path d="M73.3248 10.5697H71.8742C71.6005 10.5697 71.5732 10.6756 71.5458 10.8875V20.7665C71.5458 21.0314 71.6553 21.0844 71.8742 21.0844H73.2975C73.489 21.0844 73.6259 21.0314 73.6259 20.7665V10.914C73.6533 10.6226 73.5438 10.5697 73.3248 10.5697ZM53.263 10.5697H51.8124C51.5387 10.5697 51.5113 10.6756 51.4839 10.8875V20.7665C51.4839 21.0314 51.5934 21.0844 51.8124 21.0844H53.2356C53.4272 21.0844 53.564 21.0314 53.564 20.7665V10.914C53.5914 10.6226 53.4819 10.5697 53.263 10.5697ZM48.5828 23.7064C47.6522 23.4681 45.7637 22.8324 45.2437 21.1373C47.9806 20.1309 48.6649 17.5618 48.6649 15.7873C48.6649 12.5826 46.6943 10.3313 43.7931 10.3313C41.1109 10.3313 38.8666 12.2118 38.8666 15.8932C38.8666 18.3034 40.0161 20.793 43.0541 21.2698C44.3131 24.1302 48.3364 24.5804 48.6375 24.5804C49.0754 24.5804 49.1849 24.3156 49.1849 24.1567C49.1849 23.8388 48.9659 23.7859 48.5828 23.7064ZM43.7657 20.1044C43.5741 20.1044 42.4794 20.1044 41.713 18.8596C41.1656 17.9591 41.0288 16.7143 41.0288 15.7873C41.0288 14.7808 41.1656 13.589 41.713 12.768C42.233 11.9734 43.0267 11.6026 43.7657 11.6026C44.1215 11.6026 45.0521 11.6821 45.7637 12.7415C46.4206 13.7214 46.5027 15.0457 46.5027 15.7608C46.53 16.6348 46.4206 17.8796 45.9005 18.8066C45.3532 19.7071 44.5047 20.1044 43.7657 20.1044ZM68.6446 10.5697H67.6046C67.3856 10.5697 67.3035 10.6226 67.2488 10.861L65.4698 17.6677L63.2802 10.8875C63.1981 10.5962 63.1707 10.5697 63.0612 10.5432H62.4865C62.3223 10.5432 62.2949 10.6226 62.2128 10.8345L60.0506 17.6413L58.2989 10.914C58.2168 10.5962 58.1621 10.5962 57.8884 10.5962H56.4378C56.2736 10.5962 56.1368 10.6491 56.1368 10.808C56.1368 10.861 56.1368 10.8875 56.1915 11.0464L59.0653 20.8195C59.1474 21.0579 59.2295 21.1109 59.5032 21.1109C59.7222 21.1109 60.1601 21.1108 60.1874 21.0844C60.3517 21.0844 60.379 21.0314 60.4611 20.8195L62.5139 14.463L64.7034 20.8195C64.7855 21.0314 64.8403 21.0844 64.9771 21.1109H65.7435C65.9624 21.1109 65.9898 21.0579 66.0719 20.8195L68.9183 11.0729C68.9457 10.914 68.9731 10.861 68.9731 10.808C68.9731 10.5697 68.8362 10.5697 68.6446 10.5697Z" fill="#0078BF"/>
<path d="M27.3344 23.4682C27.006 23.3358 26.9513 23.7331 27.0608 23.9979C27.2523 24.5806 27.4987 25.0573 27.6903 25.1368C27.8818 25.2427 28.0734 25.0044 27.9366 24.3952C27.8818 24.1303 27.6903 23.6006 27.3344 23.4682ZM24.6522 24.5541C24.6249 24.5541 24.6249 24.5541 24.6522 24.5541C24.6249 24.5541 24.6249 24.5541 24.6249 24.5276H24.5975H24.5701C24.5428 24.5276 24.5428 24.5276 24.5154 24.5011C24.2964 24.4746 24.0775 24.5011 23.9133 24.6071C23.5027 24.8719 23.448 25.4811 23.7764 25.9578C23.9406 26.1697 24.1322 26.3286 24.3512 26.4081C24.3512 26.4081 24.3512 26.4081 24.3785 26.4081H24.4059H24.4333C24.4333 26.4081 24.4333 26.4081 24.4606 26.4081C24.488 26.4081 24.488 26.4081 24.5154 26.4081C24.7343 26.4611 24.9533 26.4081 25.1175 26.3021C25.5281 26.0373 25.5828 25.4281 25.2544 24.9779C25.0628 24.7925 24.8712 24.6336 24.6522 24.5541ZM34.2042 33.9564C33.2189 32.023 31.4672 30.5928 29.5787 29.5069C28.9219 29.1361 28.1829 28.8712 27.5534 28.6593C26.0754 28.1826 24.6249 28.0767 22.9553 27.8118C21.5868 27.5999 20.5194 27.0437 19.3699 26.3021C18.7678 25.9049 18.2751 25.3487 17.8646 24.7925C17.7825 24.6865 17.3993 24.2363 17.454 24.0774C17.454 24.0774 17.1803 25.1103 17.7277 26.567C12.856 26.3551 8.61369 23.7595 6.64308 20.5813C3.05767 14.7545 4.31667 7.7094 9.10634 4.58413C13.896 1.45885 21.2037 3.65714 25.1175 9.27204C27.5808 12.7946 28.2103 16.8998 27.1429 20.2635C27.1429 20.29 27.1155 20.3164 27.1155 20.3429C25.0354 18.8597 23.1469 19.6013 23.1469 19.6013C25.227 19.3895 26.8692 21.0051 26.8692 21.0051C27.1155 21.2169 27.3344 21.4553 27.5534 21.6937C27.6081 21.7467 27.6629 21.8261 27.6903 21.8791C28.2376 22.5942 28.5661 23.3887 28.7303 24.2098C32.8631 19.1246 33.5473 12.106 29.8798 6.64999C25.227 -0.315667 15.2919 -2.09019 7.68312 2.67718C0.101762 7.44455 -2.27939 16.9263 2.4008 23.892C6.23254 29.6128 15.2097 31.3608 20.3552 29.7982C22.2985 29.2155 28.9766 28.6329 33.6021 33.9564C33.6021 33.9564 34.0126 34.4067 34.2316 34.9099C34.2316 34.9099 34.2863 35.0953 34.4779 34.9893C34.5053 34.9629 34.6421 34.8039 34.2042 33.9564Z" fill="#F49600"/>
</svg>
