<svg width="66" height="29" viewBox="0 0 66 29" fill="none" xmlns="http://www.w3.org/2000/svg">
<path d="M19.9987 14.3743C19.9987 10.924 19.9917 7.47372 19.9987 4.02342C19.9987 2.16504 21.1872 0.648281 22.9319 0.22468C25.4132 -0.376559 27.7556 1.42716 27.7625 3.94143C27.7695 6.24391 27.7764 8.53955 27.7834 10.842C27.7903 14.1215 27.7903 17.401 27.7834 20.6805C27.7834 22.1289 27.8181 23.5705 27.7486 25.019C27.6722 26.5699 26.8172 27.6836 25.3785 28.2711C23.9536 28.8587 22.5774 28.6469 21.3819 27.6631C20.4157 26.8705 19.9917 25.8252 19.9987 24.5886C20.0056 21.1792 19.9987 17.7768 19.9987 14.3743Z" fill="#68B82E"/>
<path d="M0.0718377 9.31815C0.0718377 7.54176 0.0648871 5.76537 0.0718377 3.98898C0.0787883 2.01446 1.37855 0.511358 3.34558 0.15608C5.41686 -0.212862 7.50204 1.26974 7.79397 3.32625C7.82872 3.56538 7.85653 3.79768 7.85653 4.03681C7.85653 7.60325 7.85653 11.1629 7.84958 14.7293C7.84958 16.615 6.60541 18.1181 4.74265 18.5281C2.43505 19.0336 0.106591 17.2504 0.0787883 14.9206C0.0509859 13.0486 0.0718377 11.1834 0.0718377 9.31815Z" fill="#7E7E7E"/>
<path d="M58.7412 7.77415C58.9845 7.52819 59.1513 7.36422 59.3181 7.19341C60.2981 6.1959 61.2782 5.19155 62.2652 4.19404C62.6266 3.83193 63.0645 3.62696 63.5858 3.81144C64.4755 4.12572 64.684 5.00708 64.0167 5.69714C63.3078 6.42819 62.5779 7.14558 61.8551 7.8698C61.5006 8.22508 61.4936 8.22508 61.8203 8.60086C62.8421 9.77601 63.843 10.9717 64.8855 12.1331C65.4138 12.7275 65.2331 13.4313 64.8925 13.7661C64.4407 14.217 63.6831 14.217 63.1687 13.7524C62.6335 13.2741 62.2096 12.7002 61.7439 12.1673C61.1461 11.4841 60.5623 10.8008 59.9784 10.104C59.8255 9.91948 59.7351 9.93315 59.5475 10.0835C58.9289 10.5617 58.6161 11.1356 58.7412 11.9282C58.7968 12.2971 58.7621 12.6797 58.7412 13.0555C58.7064 13.6704 58.2616 14.0667 57.5874 14.1008C57.0105 14.135 56.5448 13.7661 56.4336 13.1853C56.4127 13.076 56.3988 12.9598 56.3988 12.8437C56.3988 10.2338 56.3919 7.63067 56.3988 5.02075C56.3988 4.13255 57.0174 3.6133 57.8515 3.77044C58.4076 3.87293 58.7342 4.25553 58.7412 4.86361C58.7551 5.68348 58.7481 6.50335 58.7481 7.32322C58.7412 7.43937 58.7412 7.54869 58.7412 7.77415Z" fill="#7F7F7F"/>
<path d="M13.9654 0.123068C16.0923 0.1299 17.8091 1.83113 17.8022 3.94231C17.7952 6.01932 16.0367 7.77521 13.9793 7.75471C11.7551 7.72738 10.0175 6.04664 10.0244 3.92181C10.0314 1.80381 11.7829 0.116235 13.9654 0.123068Z" fill="#7F7F7F"/>
<path d="M5.90289 28.0659C4.14438 28.9336 2.29552 28.6604 1.06526 27.2939C0.00876812 26.1119 -0.241454 24.7318 0.3702 23.2902C0.981854 21.8554 2.12871 21.0287 3.74125 20.9536C6.42418 20.8237 8.38426 23.2082 7.71005 25.7498C7.60579 26.1392 7.41812 26.4877 7.22351 26.843C6.87597 27.3417 6.45894 27.7722 5.90289 28.0659Z" fill="#68B82E"/>
<path d="M53.0349 18.7807C52.173 18.3161 51.2416 18.7944 51.1443 19.7509C51.054 20.6937 51.1026 21.6366 51.1026 22.5794C51.1026 22.9074 50.9567 22.9552 50.6856 22.9416C50.4354 22.9279 50.2268 22.9757 50.2338 22.5863C50.2616 21.1993 50.2407 19.8124 50.2477 18.4254C50.2477 18.2478 50.1156 17.9677 50.5118 17.9745C50.9775 17.9745 50.9775 17.954 51.0192 18.3844C51.0192 18.4186 51.0331 18.4459 51.054 18.5142C51.3806 18.3434 51.617 18.036 51.9853 17.954C52.736 17.7285 53.4172 17.831 53.9871 18.3981C54.3068 18.7124 54.3347 19.136 54.3416 19.5459C54.3625 20.5708 54.3416 21.5956 54.3486 22.6204C54.3486 22.8732 54.2443 22.9552 53.9941 22.9552C53.4589 22.9621 53.445 22.9552 53.438 22.436C53.4241 21.4453 53.4797 20.4546 53.4102 19.4639C53.3963 19.177 53.2851 18.9378 53.0349 18.7807Z" fill="#6BB534"/>
<path d="M17.8092 19.3481C17.8092 21.145 17.8162 22.9419 17.8092 24.7388C17.7953 26.7065 16.4122 28.2984 14.4312 28.5375C12.0055 28.8245 10.101 27.1096 10.0454 24.9232C9.96895 22.0332 10.0176 19.1431 10.0246 16.2531C10.0246 15.2761 9.9342 14.2922 10.0871 13.3221C10.3165 11.8804 11.1367 10.8556 12.5198 10.3295C13.9447 9.78977 15.2792 10.0221 16.4539 10.9786C17.3922 11.7438 17.8231 12.755 17.8231 13.9506C17.8092 15.7543 17.8092 17.5512 17.8092 19.3481Z" fill="#73AE46"/>
<path d="M5.90295 28.0653C6.40315 27.717 6.81999 27.2869 7.22987 26.843C6.93114 27.3961 6.5282 27.84 5.90295 28.0653Z" fill="#BFE1A6"/>
<path d="M52.6248 8.51202C53.3616 7.83563 53.5145 7.64433 53.6396 7.26172C54.0984 5.84061 53.1531 4.24869 51.617 4.01639C50.0879 3.79093 48.5379 3.92757 47.0018 3.9549C46.5222 3.96173 46.1886 4.36484 46.1469 4.8431C46.126 5.0549 46.1121 5.27353 46.1121 5.49216C46.1121 7.50768 46.1051 9.5232 46.1121 11.5387C46.1121 12.0648 46.126 12.5841 46.1469 13.1101C46.1538 13.3971 46.2859 13.6362 46.5083 13.8207C46.8072 14.0803 47.1755 14.1145 47.5509 14.1145C48.663 14.1145 49.7751 14.1213 50.8872 14.1145C51.3946 14.1077 51.902 14.0803 52.4024 13.9437C53.6883 13.5884 54.5154 12.6114 54.5918 11.3816C54.6544 10.1108 54.1887 8.94929 52.6248 8.51202ZM48.6977 5.99092C48.9966 5.99775 49.3024 5.99092 49.6013 5.99092V5.99775C49.9141 5.99775 50.2269 5.97725 50.5396 6.00458C51.0887 6.04558 51.4015 6.35986 51.4224 6.87228C51.4502 7.42569 51.1999 7.77414 50.6439 7.86296C49.9766 7.97228 49.3024 7.89029 48.6352 7.90395C48.4962 7.91079 48.4684 7.8083 48.4684 7.69898C48.4684 7.20023 48.4753 6.70147 48.4684 6.19589C48.4614 6.03191 48.5448 5.99092 48.6977 5.99092ZM52.1313 11.1288C52.0827 11.5456 51.8394 11.8325 51.4085 11.9487C50.8941 12.0853 50.3728 12.0033 49.9488 12.0306C49.4831 12.0306 49.1148 12.0238 48.7464 12.0375C48.5448 12.0443 48.4545 11.9896 48.4614 11.771C48.4753 11.2586 48.4753 10.7462 48.4614 10.2338C48.4545 10.0356 48.5101 9.9468 48.7325 9.95363C49.4484 9.9673 50.1643 9.96046 50.8872 9.9673C51.1443 9.9673 51.3946 10.022 51.6239 10.1449C52.0132 10.3431 52.18 10.671 52.1313 11.1288Z" fill="#7F7F7F"/>
<path d="M44.6385 12.3243C44.2145 11.5933 43.7766 10.8691 43.3318 10.1517C43.2136 9.95354 43.165 9.84422 43.4082 9.67341C44.5481 8.83988 45.0208 7.4256 44.6454 6.09331C44.2771 4.79517 43.3179 4.00263 41.8096 3.87282C40.3708 3.74984 38.9181 3.81133 37.4724 3.84549C36.819 3.85915 36.4159 4.31692 36.409 4.96598C36.402 6.29827 36.409 7.63057 36.409 8.96286C36.409 8.96286 36.409 8.96286 36.402 8.96286C36.402 9.63242 36.402 10.3088 36.402 10.9784C36.402 11.6479 36.3951 12.3243 36.409 12.9939C36.4229 13.6908 36.8468 14.0802 37.5558 14.0871C38.2509 14.0871 38.7027 13.684 38.7166 13.0076C38.7374 12.2219 38.7305 11.4361 38.7305 10.6504C38.7305 9.95354 38.7374 10.0082 39.4394 9.93987C40.1345 9.87155 40.5237 10.1175 40.8434 10.7188C41.3578 11.6684 41.9764 12.5703 42.5533 13.4858C42.9634 14.1349 43.6862 14.292 44.3605 13.8889C44.9582 13.5405 45.0486 13.0281 44.6385 12.3243ZM41.5246 8.19081C41.1354 8.2933 40.7392 8.23864 40.35 8.24547C39.9121 8.2523 39.4672 8.23864 39.0293 8.2523C38.8 8.25914 38.7305 8.17715 38.7374 7.95852C38.7513 7.41193 38.7513 6.86535 38.7374 6.31877C38.7305 6.07281 38.8 5.96349 39.071 5.98399C39.4394 6.00449 39.8078 5.99082 40.1831 5.99082C40.5446 5.99082 40.8991 5.98399 41.2605 5.99082C41.8582 6.00449 42.3517 6.41442 42.4212 6.961C42.4907 7.56908 42.1571 8.02684 41.5246 8.19081Z" fill="#7F7F7F"/>
<path d="M56.8159 20.6737C57.7404 20.6805 58.6648 20.6805 59.5962 20.6737C60.2773 20.6669 60.2495 20.8308 60.2009 20.0315C60.1314 18.8631 59.2834 17.9545 58.213 17.893C56.8437 17.811 55.9193 18.4805 55.6691 19.7377C55.5092 20.5439 55.5787 21.3228 55.961 22.0606C56.7742 23.3861 59.1722 23.4339 59.9993 22.0197C60.2634 21.5619 60.1939 21.3774 59.6587 21.3501C59.5058 21.3433 59.2903 21.2544 59.2139 21.4936C59.1166 21.8215 58.8664 22.0128 58.5953 22.1973C57.6292 22.6277 56.5657 21.9855 56.5032 20.9538C56.4893 20.701 56.6144 20.6737 56.8159 20.6737ZM56.5657 19.683C56.6422 19.0818 57.2816 18.5625 57.9419 18.5694C58.6231 18.5762 59.2069 19.0749 59.2834 19.7035C59.3042 19.8743 59.2556 19.9563 59.0679 19.9563C58.6787 19.9495 58.2825 19.9563 57.8933 19.9563V19.9631C57.5249 19.9631 57.1565 19.9563 56.7881 19.9631C56.5796 19.97 56.5449 19.8607 56.5657 19.683Z" fill="#6AB534"/>
<path d="M43.0189 22.4775C43.0258 20.6601 43.0258 18.8427 43.0189 17.0253C43.0189 16.0756 43.0189 16.0825 42.0388 16.1098C41.8373 16.1166 41.7538 16.185 41.6913 16.3626C41.5662 16.7384 41.4202 17.1073 41.2882 17.4831C41.1213 17.7837 41.0518 18.1185 40.9406 18.4464C40.8711 18.6514 40.7947 18.8564 40.7321 19.0613C40.4402 19.7787 40.2039 20.5166 39.9675 21.2545C39.9745 21.275 39.9675 21.2955 39.9536 21.3092C39.8841 21.4185 39.8285 21.5346 39.7451 21.6508C39.6687 21.521 39.6061 21.4185 39.5505 21.3092C39.057 19.8539 38.5566 18.4054 38.0631 16.9502C37.7781 16.1166 37.792 16.1098 36.9093 16.1098C36.7494 16.1098 36.5826 16.1166 36.4227 16.1166C36.4019 16.144 36.381 16.1713 36.381 16.2055C36.3741 18.3645 36.381 20.5303 36.381 22.6893C36.381 22.7576 36.3602 22.8396 36.4297 22.8806C36.659 23.0036 36.9093 22.9557 37.1386 22.9216C37.3611 22.8942 37.2776 22.6893 37.2776 22.5595C37.2985 20.9471 37.2359 19.3346 37.3263 17.6539C37.5348 18.0365 37.7086 18.3576 37.8059 18.7061C38.0005 19.3278 38.2299 19.9359 38.4314 20.5576C38.4384 20.5781 38.4454 20.5918 38.4454 20.6123C38.64 20.9402 38.7095 21.3023 38.8415 21.6508C38.9458 21.9582 39.0779 22.2588 39.1543 22.5731C39.2377 22.8874 39.4323 22.9284 39.7173 22.9284C39.9953 22.9284 40.1483 22.8533 40.2456 22.5731C40.7113 21.2135 41.2047 19.8539 41.6913 18.5011C41.7121 18.4533 41.733 18.4054 41.7538 18.3576C41.9137 17.9682 41.9554 17.7427 42.1222 17.4216C42.1222 17.6676 42.1222 17.9135 42.1222 18.1595C42.1222 18.2961 42.1292 18.4328 42.1292 18.5694C42.1292 19.9017 42.1292 21.2272 42.1292 22.5595C42.1292 22.6756 42.0736 22.8464 42.2195 22.8942C42.435 22.9694 42.6852 22.9694 42.9007 22.8942C43.1023 22.8396 43.0189 22.621 43.0189 22.4775Z" fill="#6AB632"/>
<path d="M17.6563 19.3958C17.6563 21.1927 17.6563 22.9964 17.6563 24.7933C17.6563 25.2443 17.4895 25.6474 17.3852 26.071C17.2532 26.6175 16.7736 26.8977 16.572 27.3691C16.5025 27.5399 16.2662 27.5057 16.1341 27.6219C15.6684 27.9977 15.1263 28.1616 14.5424 28.3119C13.7779 28.5101 13.0828 28.4144 12.4434 28.107C11.8665 27.8269 11.3313 27.4374 10.9003 26.8908C10.4972 26.3784 10.518 25.743 10.2053 25.2238C10.3999 24.8821 10.0245 24.5542 10.1844 24.1921C10.3095 23.912 10.1358 23.6113 10.1358 23.3176C10.1427 21.3909 10.108 19.471 10.1497 17.5443C10.1705 16.458 10.101 15.3716 10.1358 14.2853C10.1566 13.6226 10.1983 12.9325 10.5458 12.3791C10.9212 11.771 11.3174 11.1493 12.0124 10.7598C12.5615 10.4524 13.1245 10.4114 13.7084 10.3021C14.7579 10.0971 15.5572 10.6095 16.3427 11.1356C16.5998 11.3064 16.7319 11.6685 16.9613 11.9008C17.3922 12.3381 17.3644 12.9598 17.6285 13.4586C17.6772 13.5474 17.6494 13.6841 17.6494 13.7934C17.6563 15.6586 17.6563 17.5238 17.6563 19.3958Z" fill="#68B82E"/>
<path d="M64.2392 19.3478C64.4477 19.0062 64.5242 18.6099 64.691 18.2546C64.7952 18.0292 65.2887 17.8857 65.4834 18.036C65.5807 18.1112 65.5181 18.2 65.4903 18.282C65.3374 18.6987 65.1845 19.1087 65.0316 19.5254C64.413 21.0422 63.9264 22.6068 63.2314 24.0962C62.9464 24.7043 62.439 24.9913 61.8551 24.9229C61.5076 24.8819 61.2852 24.5198 61.4033 24.2055C61.452 24.0757 61.5493 24.1099 61.6327 24.1236C62.5432 24.2329 62.6614 23.6863 62.8908 23.0167C62.9394 22.8801 62.8491 22.7503 62.8004 22.6273C62.2652 21.2335 61.7231 19.8397 61.2018 18.4459C61.1531 18.3161 60.9585 18.1317 61.2087 18.0087C61.459 17.8857 61.9316 18.0087 62.0011 18.2068C62.3834 19.3478 62.8908 20.4546 63.2036 21.6161C63.2105 21.6366 63.2314 21.6503 63.2453 21.6708C63.3912 21.8484 63.4051 21.6503 63.4677 21.5956C63.7179 20.8372 63.982 20.0925 64.2392 19.3478Z" fill="#69B632"/>
<path d="M46.0977 18.7268C46.0977 18.7196 46.0906 18.7196 46.0835 18.7124C46.0906 18.7196 46.0977 18.7268 46.0977 18.7268Z" fill="#6AB633"/>
<path d="M48.934 19.5874C48.7533 18.7129 47.954 17.9818 47.0712 17.893C45.8896 17.77 44.9582 18.2346 44.5482 19.157C44.2771 19.7719 44.2771 20.4209 44.3535 21.0632C44.4856 22.17 45.3475 22.9694 46.4526 23.024C47.7176 23.0855 48.6629 22.4569 48.9131 21.3774C48.9826 21.07 49.0313 20.7489 49.0174 20.4209C49.0382 20.1476 48.9896 19.8675 48.934 19.5874ZM47.8497 21.7259C47.7663 21.8762 47.662 22.0129 47.4883 22.0743C46.821 22.6141 45.7993 22.4023 45.41 21.5961C45.0416 20.824 45.0833 20.0247 45.4448 19.2526C45.5629 18.9998 45.7715 18.7812 46.0773 18.706C46.7862 18.3986 47.5647 18.6104 47.8914 19.2731C48.2945 20.0793 48.2876 20.9129 47.8497 21.7259Z" fill="#6AB633"/>
</svg>
