<svg width="71" height="21" viewBox="0 0 71 21" fill="none" xmlns="http://www.w3.org/2000/svg">
<path fill-rule="evenodd" clip-rule="evenodd" d="M24.8884 20.6583L28.4954 0.411865H34.2194L30.6125 20.6583H24.8884Z" fill="#005098"/>
<path fill-rule="evenodd" clip-rule="evenodd" d="M51.3522 0.904096C50.2152 0.525659 48.4117 0.0715355 46.2162 0.0715355C40.5314 0.0715355 36.5716 2.79628 36.5716 6.73203C36.5324 9.64599 39.3944 11.2733 41.5899 12.2194C43.8247 13.2411 44.5696 13.8467 44.5304 14.7171C44.5304 16.0794 42.7661 16.6849 41.1195 16.6849C38.8455 16.6849 37.6301 16.3822 35.7483 15.6253L35.0034 15.2847L34.2192 19.826C35.5522 20.3936 38.0222 20.8856 40.5706 20.9234C46.5691 20.9234 50.4504 18.1987 50.5288 13.998C50.568 11.7274 49.039 9.94874 45.7457 8.51068C43.7462 7.60243 42.5309 6.95909 42.5309 6.013C42.5309 5.14259 43.5894 4.27219 45.7849 4.27219C47.6668 4.23434 49.039 4.65062 50.0584 5.06691L50.568 5.29396L51.3522 0.904096Z" fill="#005098"/>
<path fill-rule="evenodd" clip-rule="evenodd" d="M66.0152 0.449953H61.5849C60.2127 0.449953 59.1934 0.828388 58.5661 2.11508L50.0977 20.6963H56.0961C56.0961 20.6963 57.0763 18.1987 57.3115 17.6688C57.978 17.6688 63.7805 17.6688 64.643 17.6688C64.7998 18.35 65.3487 20.6963 65.3487 20.6963H70.6415L66.0152 0.449953ZM58.9582 13.4682C59.4286 12.3329 61.2321 7.82948 61.2321 7.82948C61.1929 7.86732 61.7026 6.65632 61.977 5.89945L62.3691 7.64026C62.3691 7.64026 63.4668 12.4843 63.7021 13.4682H58.9582Z" fill="#005098"/>
<path fill-rule="evenodd" clip-rule="evenodd" d="M20.1052 0.449953L14.4987 14.2251L13.9107 11.4246C12.8521 8.17007 9.59802 4.68845 5.99109 2.94764L11.127 20.6585H17.1647L26.1429 0.449953H20.1052Z" fill="#005098"/>
<path fill-rule="evenodd" clip-rule="evenodd" d="M9.32361 0.412109H0.110251L0.0710449 0.866233C7.2065 2.53136 11.9896 6.58064 13.9499 11.4625L11.9112 2.15292C11.5583 0.866236 10.5782 0.487797 9.32361 0.412109Z" fill="#F7A600"/>
</svg>
