<svg width="120" height="30" viewBox="0 0 120 30" fill="none" xmlns="http://www.w3.org/2000/svg">
<path fill-rule="evenodd" clip-rule="evenodd" d="M104.566 0.0366211C106.921 0.0366211 109.154 0.566689 111.116 1.50903C111.418 1.65627 111.75 1.80352 112.052 1.98021L110.664 3.18758L108.581 1.09676L105.139 4.15938L103.057 1.95076L96.5665 7.66372L100.732 12.1398L99.1022 13.5534L103.208 18.0295L101.577 19.443L107.434 25.8038L110.905 22.6823L113.924 26.0394C113.32 26.4811 112.686 26.9229 111.962 27.3057C109.788 28.5131 107.253 29.2198 104.596 29.2198C96.3552 29.2198 89.6237 22.6529 89.6237 14.6135C89.6237 6.60358 96.3552 0.0366211 104.566 0.0366211Z" fill="#006BB3"/>
<path fill-rule="evenodd" clip-rule="evenodd" d="M101.849 13.7004L105.411 10.5789L108.611 14.0537L105.049 17.1753L101.849 13.7004Z" fill="#006BB3"/>
<path fill-rule="evenodd" clip-rule="evenodd" d="M104.385 19.7082L107.947 16.5867L111.147 20.0616L107.585 23.1831L104.385 19.7082Z" fill="#006BB3"/>
<path fill-rule="evenodd" clip-rule="evenodd" d="M99.3135 7.78191L102.875 4.6604L106.075 8.13529L102.513 11.2568L99.3135 7.78191Z" fill="#006BB3"/>
<path fill-rule="evenodd" clip-rule="evenodd" d="M105.834 6.10317L108.49 3.74731L110.905 6.36821L108.249 8.69462L105.834 6.10317Z" fill="#006BB3"/>
<path fill-rule="evenodd" clip-rule="evenodd" d="M110.573 16.822L113.229 14.4956L115.644 17.0871L112.988 19.4429L110.573 16.822Z" fill="#006BB3"/>
<path fill-rule="evenodd" clip-rule="evenodd" d="M112.927 22.0932L115.584 19.7373L117.999 22.3582L115.312 24.6846L112.927 22.0932Z" fill="#006BB3"/>
<path fill-rule="evenodd" clip-rule="evenodd" d="M113.984 10.049L115.765 8.48828L117.365 10.2257L115.614 11.7865L113.984 10.049Z" fill="#006BB3"/>
<path fill-rule="evenodd" clip-rule="evenodd" d="M111.72 4.89572L113.501 3.33496L115.101 5.07241L113.32 6.63316L111.72 4.89572Z" fill="#006BB3"/>
<path fill-rule="evenodd" clip-rule="evenodd" d="M116.278 15.2024L118.059 13.6416L119.659 15.379L117.878 16.9398L116.278 15.2024Z" fill="#006BB3"/>
<path fill-rule="evenodd" clip-rule="evenodd" d="M108.309 11.3449L110.965 8.98901L113.35 11.5805L110.694 13.9363L108.309 11.3449Z" fill="#006BB3"/>
<path d="M6.97307 12.1096H6.85233L4.58834 20.414H2.77716L0 8.60522H1.90175L3.8035 17.4102H3.92424L6.15804 8.60522H7.66736L10.0521 17.4102H10.1728L11.9237 8.60522H13.916L11.1388 20.414H9.29743L6.97307 12.1096Z" fill="#006BB3"/>
<path d="M21.4626 18.5886V19.8548C20.7079 20.2966 19.6816 20.6205 18.4439 20.6205C15.5762 20.6205 14.3989 18.883 14.3989 16.2621C14.3989 13.7296 15.7271 11.9038 18.2628 11.9038C20.406 11.9038 21.7041 13.2584 21.7041 15.9677V16.5861H16.1799C16.1799 18.5886 17.0251 19.472 18.776 19.472C19.6816 19.4426 20.5268 19.1481 21.4626 18.5886ZM16.2101 15.467H20.1042C20.0136 13.7296 19.1382 13.0228 18.2326 13.0228C17.1761 13.0228 16.3912 13.7885 16.2101 15.467Z" fill="#006BB3"/>
<path d="M25.0548 12.5224C25.568 12.2574 26.4434 11.904 27.349 11.904C29.462 11.904 30.6091 13.347 30.6091 15.9973C30.6091 19.1188 29.0696 20.6207 26.5943 20.6207C25.6887 20.6207 24.3001 20.3262 23.2738 19.7961V8.19353L25.0548 7.78125V12.5224ZM25.0548 19.1777C25.5982 19.4133 26.2019 19.4428 26.6245 19.4428C27.8923 19.4428 28.8583 18.6771 28.8583 15.9679C28.8583 13.8476 28.0735 13.1703 26.9264 13.1703C26.2321 13.1703 25.7491 13.347 25.0548 13.7298V19.1777Z" fill="#006BB3"/>
<path d="M38.3971 17.9111H38.4876L42.1402 8.60547H44.2532V20.4142H42.4119V11.8742H42.2609L38.7895 20.4437H37.7028L34.2313 12.0804H34.0804V20.4437H32.5409V8.60547H34.5936L38.3971 17.9111Z" fill="#006BB3"/>
<path d="M46.1249 16.2621C46.1249 13.3468 47.7549 11.9038 50.0189 11.9038C52.2829 11.9038 53.913 13.3468 53.913 16.2621C53.913 19.1186 52.3735 20.6205 50.0189 20.6205C47.6644 20.6205 46.1249 19.1186 46.1249 16.2621ZM52.1018 16.2621C52.1018 14.0241 51.166 13.0523 49.9887 13.0523C48.8718 13.0523 47.8757 13.9946 47.8757 16.2621C47.8757 18.5297 48.7511 19.472 49.9887 19.472C51.2264 19.4426 52.1018 18.5297 52.1018 16.2621Z" fill="#006BB3"/>
<path d="M55.513 13.1406C56.2676 12.6989 57.8977 11.9038 59.8598 11.9038C61.9125 11.9038 62.6672 12.6989 62.6672 14.4069V20.4438H60.8862V14.7897C60.8862 13.4646 60.2221 13.229 59.3467 13.229C58.6524 13.229 57.8071 13.5235 57.2638 13.8179V20.4144H55.4828V13.1406H55.513Z" fill="#006BB3"/>
<path d="M71.3306 18.5886V19.8548C70.5759 20.2966 69.5496 20.6205 68.312 20.6205C65.4442 20.6205 64.267 18.883 64.267 16.2621C64.267 13.7296 65.5952 11.9038 68.1308 11.9038C70.2741 11.9038 71.5721 13.2584 71.5721 15.9677V16.5861H66.0178C66.0178 18.5886 66.863 19.472 68.6138 19.472C69.5496 19.4426 70.3948 19.1481 71.3306 18.5886ZM66.0782 15.467H69.9722C69.8817 13.7296 69.0062 13.0228 68.1007 13.0228C67.0743 13.0228 66.2593 13.7885 66.0782 15.467Z" fill="#006BB3"/>
<path d="M78.2432 12.1692H80.0544L76.9754 20.503C76.1302 22.8 75.0736 24.0074 73.1115 24.0074V22.6528C74.2586 22.6528 74.9831 21.7399 75.4057 20.5325L72.1154 12.1986H73.9869L76.1603 18.3239H76.2509L78.2432 12.1692Z" fill="#006BB3"/>
</svg>
