<svg width="106" height="40" viewBox="0 0 106 40" fill="none" xmlns="http://www.w3.org/2000/svg">
<path d="M100.542 15.4987C101.912 15.4987 103.282 15.4987 104.67 15.4637C105.156 15.4461 105.264 15.6214 105.264 16.0598C105.246 18.9526 105.246 21.8455 105.246 24.7383C105.246 28.8585 105.246 32.9786 105.264 37.0987C105.264 37.6072 105.156 37.765 104.598 37.765C95.9647 37.7474 87.3499 37.7474 78.7171 37.7474C76.8608 37.7474 75.7073 36.5728 75.7073 34.7669C75.7073 29.4721 75.7434 24.1598 75.6893 18.865C75.6713 16.8838 76.3922 15.3409 77.834 14.0435C79.2578 12.7636 80.8438 11.6766 82.3757 10.5195C86.665 7.22338 90.9724 3.92728 95.2798 0.648702C95.5141 0.455845 95.7665 0.28052 96.1449 2.61254e-10C96.1449 5.24221 96.1449 10.3442 96.1449 15.4286C96.1269 18.2338 96.1089 21.039 96.1089 23.8442C96.1089 24.2474 96.0188 24.5279 95.6403 24.7734C91.7654 27.3156 87.9266 29.8754 84.0698 32.4351C82.646 33.3819 81.2403 34.3286 79.7984 35.2754C79.9606 35.3981 80.0508 35.3455 80.1589 35.3104C82.5379 34.5741 84.8988 33.8377 87.2778 33.0838C91.4771 31.7513 95.6763 30.4013 99.8936 29.0864C100.398 28.9286 100.597 28.7357 100.597 28.1922C100.524 23.9494 100.542 19.724 100.542 15.4987ZM92.1619 15.2883C92.1619 14.1838 91.3329 13.5877 90.1975 13.8682C88.8818 14.1838 87.6743 15.6039 87.5842 16.9188C87.5121 18.0234 88.3231 18.7247 89.4225 18.5143C90.8643 18.2513 92.18 16.6734 92.1619 15.2883Z" fill="#FECB01"/>
<path d="M11.0604 25.4394C11.0604 28.8933 11.0424 32.3647 11.0784 35.8186C11.0784 36.3621 10.9883 36.59 10.3575 36.5725C8.69944 36.5374 8.69944 36.5725 8.69944 34.9595C8.69944 32.9608 8.69944 30.9796 8.68141 28.9809C8.68141 28.753 8.87966 28.2972 8.41108 28.3147C7.94249 28.3322 7.36577 27.9991 7.02334 28.6303C6.21232 30.1731 5.4013 31.6985 4.59029 33.2413C4.10368 34.1705 3.59905 35.0998 3.13046 36.0465C2.95023 36.4147 2.73396 36.59 2.30142 36.555C1.77876 36.5199 1.27413 36.555 0.751478 36.5374C0.0666194 36.5374 -0.0234935 36.3972 0.300913 35.8186C0.949726 34.6614 1.59854 33.5218 2.26537 32.3647C3.04035 30.9972 3.79729 29.6472 4.59029 28.2796C4.73447 28.0342 4.8426 27.8764 4.46413 27.666C1.54447 26.1582 0.751478 23.6335 0.985771 20.6355C1.07588 19.601 1.29216 18.6017 1.76074 17.6549C2.86012 15.4458 4.6804 14.2712 7.22159 14.2186C8.28492 14.201 9.33023 14.2361 10.3936 14.201C10.9342 14.1835 11.0784 14.3764 11.0784 14.8848C11.0604 18.4264 11.0604 21.9329 11.0604 25.4394ZM8.68141 21.2842C8.68141 19.7588 8.68141 18.216 8.68141 16.6907C8.68141 16.4978 8.77153 16.2699 8.4291 16.1822C6.62684 15.7614 4.80656 16.6381 4.04961 18.3562C3.45486 19.7413 3.36475 21.1965 3.59905 22.6692C3.99554 25.1764 5.4013 26.351 7.97853 26.351C8.51921 26.351 8.71746 26.2459 8.69944 25.6673C8.66339 24.2296 8.68141 22.7569 8.68141 21.2842Z" fill="#FE0505"/>
<path d="M100.542 15.4988C100.542 19.7241 100.524 23.9495 100.56 28.1748C100.56 28.7183 100.362 28.9111 99.8575 29.0689C95.6402 30.3839 91.459 31.7339 87.2417 33.0663C84.8807 33.8202 82.5018 34.5391 80.1228 35.293C80.0146 35.328 79.9245 35.3806 79.7623 35.2579C81.2041 34.2936 82.6099 33.3644 84.0337 32.4176C87.8905 29.8579 91.7473 27.2982 95.6042 24.7559C95.9827 24.5105 96.0728 24.23 96.0728 23.8267C96.0728 21.0215 96.0908 18.2163 96.1088 15.4111C97.3343 15.4287 98.5599 15.4462 99.8034 15.4637C100.056 15.4637 100.29 15.4813 100.542 15.4988Z" fill="#D5AA05"/>
<path d="M33.6247 28.1224C33.6247 30.0334 33.6427 31.9269 33.6247 33.838C33.6247 34.3639 33.7328 34.7146 34.3456 34.662C34.7601 34.6269 34.8322 34.8373 34.8322 35.188C34.8142 36.3977 34.8142 37.5899 34.8322 38.7996C34.8322 39.3081 34.616 39.4834 34.0933 39.4834C32.6515 39.4834 32.6695 39.5009 32.6515 38.1334C32.6515 37.625 32.9038 36.9412 32.5253 36.6431C32.2009 36.3977 31.5341 36.5555 31.0114 36.5555C29.5696 36.5555 28.1278 36.573 26.686 36.538C26.2895 36.538 26.1273 36.6081 26.1453 37.0289C26.1814 37.625 26.1453 38.2035 26.1634 38.7996C26.1814 39.2906 25.9651 39.4483 25.4785 39.4483C24.0187 39.4834 24.0187 39.5009 24.0187 38.0633C24.0187 37.0815 24.0187 36.0996 24.0187 35.1003C24.0187 34.8373 24.0367 34.5918 24.3972 34.6444C24.9018 34.7321 25.064 34.4165 25.2262 34.0659C26.4157 31.5587 26.8302 28.8938 26.9924 26.1587C27.0645 24.8263 27.0825 23.4938 27.0825 22.1613C27.0825 21.7756 27.1726 21.6178 27.6052 21.6353C29.4255 21.6529 31.2457 21.6529 33.084 21.6353C33.5346 21.6353 33.6427 21.7931 33.6427 22.1964C33.6067 24.1776 33.6247 26.1412 33.6247 28.1224ZM31.2277 29.0516C31.2277 27.6315 31.2277 26.2113 31.2277 24.7912C31.2277 23.5289 31.2277 23.5639 29.9481 23.5113C29.3894 23.4938 29.3173 23.6691 29.2993 24.16C29.1731 27.649 28.8487 31.1029 27.1005 34.2587C26.8843 34.6269 27.0645 34.6444 27.3709 34.6444C28.4703 34.6444 29.5696 34.6269 30.669 34.6444C31.1196 34.662 31.2277 34.5217 31.2277 34.0834C31.2097 32.4178 31.2277 30.7347 31.2277 29.0516Z" fill="#EBE9E9"/>
<path d="M14.1602 29.0863C14.1602 26.8246 14.1783 24.5805 14.1422 22.3188C14.1422 21.8279 14.2323 21.635 14.791 21.635C16.5212 21.6525 16.5212 21.6175 16.5212 23.2831C16.5212 24.5103 16.5392 25.7376 16.5032 26.9649C16.5032 27.3857 16.5933 27.5435 17.0619 27.5259C17.8188 27.4909 18.5938 27.4909 19.3507 27.5259C19.8373 27.5435 19.9996 27.4558 19.9996 26.9298C19.9635 25.3694 19.9996 23.8266 19.9815 22.2662C19.9635 21.7753 20.1257 21.635 20.6303 21.635C22.3785 21.635 22.3785 21.6175 22.3785 23.3532C22.3785 27.5084 22.3605 31.6811 22.3966 35.8363C22.3966 36.4324 22.2163 36.5727 21.6396 36.5552C19.9996 36.5201 19.9996 36.5376 19.9996 34.9246C19.9996 33.2591 19.9815 31.5935 20.0176 29.9279C20.0176 29.5422 19.9455 29.3844 19.5129 29.4194C18.6839 29.4545 17.8549 29.4545 17.0078 29.4194C16.6113 29.4019 16.5212 29.5422 16.5392 29.9103C16.5572 31.9091 16.5392 33.8902 16.5572 35.8889C16.5572 36.3798 16.4491 36.5727 15.8904 36.5552C14.1783 36.5201 14.1783 36.5552 14.1783 34.872C14.1602 32.9435 14.1602 31.0149 14.1602 29.0863Z" fill="#EBE9E9"/>
<path d="M56.2249 36.5379C55.504 36.5379 54.7831 36.5379 54.0802 36.5379C53.6296 36.5379 53.4134 36.2574 53.2331 35.8892C52.1157 33.6275 50.9803 31.3659 49.8449 29.0691C49.6106 29.2269 49.7187 29.4373 49.7187 29.5951C49.7187 31.699 49.7007 33.8029 49.7187 35.9068C49.7187 36.3977 49.5746 36.5379 49.0699 36.5379C47.3217 36.5204 47.3217 36.5379 47.3217 34.8373C47.3217 30.647 47.3398 26.4743 47.3037 22.284C47.3037 21.7581 47.4479 21.6178 47.9886 21.6178C49.7187 21.6353 49.7187 21.6178 49.7187 23.2834C49.7187 24.8964 49.7187 26.5269 49.7187 28.21C50.0612 28.0697 50.1152 27.7717 50.2234 27.5438C51.0885 25.8081 51.9535 24.0899 52.7826 22.3366C53.0169 21.8282 53.3413 21.5827 53.918 21.6178C54.4947 21.6529 55.0714 21.6178 55.7743 21.6178C54.9633 23.0905 54.2064 24.4405 53.4314 25.7905C53.0529 26.4743 52.6744 27.1931 52.2599 27.8594C52.0436 28.21 52.0617 28.473 52.2599 28.8061C53.5395 31.1379 54.7831 33.5048 56.0266 35.8542C56.1168 36.0821 56.2609 36.2574 56.2249 36.5379Z" fill="#EBE9E9"/>
<path d="M41.6086 29.5247C40.7074 29.5247 39.8063 29.5422 38.9052 29.5071C38.5988 29.5071 38.5087 29.5773 38.5087 29.8578C38.5447 30.6467 38.5808 31.4357 38.7971 32.2071C39.3918 34.2409 40.8877 35.0649 43.1765 34.6617C43.2667 34.6441 43.3568 34.6091 43.4469 34.5915C44.4381 34.3812 44.4201 34.3812 44.6544 35.3454C44.7625 35.7838 44.5643 35.9415 44.2399 36.0993C40.9598 37.6948 37.4634 37.011 36.346 32.663C35.6431 29.8753 35.8774 27.0876 36.8686 24.3876C37.157 23.5987 37.5895 22.8798 38.2203 22.2837C39.8424 20.7234 42.2394 20.9513 43.519 22.7922C44.4201 24.0896 44.6904 25.5799 44.7986 27.0876C44.8526 27.7714 44.8166 28.4376 44.8526 29.1214C44.8707 29.5071 44.7265 29.5948 44.348 29.5948C43.4289 29.5773 42.5097 29.5948 41.5725 29.5948C41.6086 29.5773 41.6086 29.5597 41.6086 29.5247ZM42.4376 27.2279C42.3115 26.0532 42.2754 25.0539 41.8248 24.1071C41.5906 23.6162 41.2842 23.1604 40.6534 23.1428C40.0406 23.1253 39.6802 23.5286 39.4098 24.0195C38.8511 25.1065 38.743 26.2811 38.6168 27.4558C38.5808 27.7363 38.6889 27.8415 38.9953 27.7889C39.8964 27.6487 40.7976 27.6837 41.6987 27.7188C42.2574 27.7539 42.5818 27.6662 42.4376 27.2279Z" fill="#EBE9E9"/>
<path d="M56.7115 29.8404C56.7115 27.7541 56.9818 25.9131 57.8469 24.1774C58.3876 23.0904 59.1085 22.1437 60.262 21.6352C61.8299 20.9339 63.2897 21.3722 64.7135 22.0911C65.0199 22.2489 64.9298 22.4768 64.7856 22.7047C64.5513 23.0729 64.299 23.4411 64.0827 23.8268C63.8665 24.195 63.6322 24.195 63.3438 23.9144C63.2537 23.8268 63.1456 23.7391 63.0374 23.669C61.92 22.8625 60.9829 23.0203 60.298 24.2125C59.469 25.6151 59.3068 27.193 59.2166 28.7709C59.1626 29.9281 59.2707 31.0852 59.6131 32.2073C60.2439 34.2761 61.6497 35.1002 63.8304 34.6794C63.9025 34.6619 63.9566 34.6443 64.0287 34.6268C64.9298 34.4339 65.2362 34.6969 65.2362 35.6086C65.2362 35.8365 65.092 35.9593 64.9118 36.0645C62.2985 37.5372 59.2707 37.1865 57.7208 34.3813C56.8917 32.8911 56.6755 31.2956 56.7115 29.8404Z" fill="#EBE9E9"/>
<path d="M92.1619 15.2884C92.1619 16.691 90.8463 18.2514 89.4405 18.5144C88.3412 18.7248 87.5301 18.0235 87.6022 16.919C87.6923 15.5865 88.8999 14.1839 90.2155 13.8683C91.3509 13.5703 92.1619 14.1664 92.1619 15.2884Z" fill="#050505"/>
</svg>
